SplineFontDB: 3.0
FontName: LEDFixedWidthSemiCondensedMedium
FullName: LED Fixed-Width Semi-Condensed Medium
FamilyName: LED Fixed-Width Semi-Condensed
Weight: Medium
Copyright: Public domain font.  Share and enjoy.
Version: 1.001
ItalicAngle: 0
UnderlinePosition: -100
UnderlineWidth: 50
Ascent: 846
Descent: 154
LayerCount: 2
Layer: 0 0 "Back"  1
Layer: 1 0 "Fore"  0
NeedsXUIDChange: 1
XUID: [1021 721 781271382 7603872]
OS2Version: 0
OS2_WeightWidthSlopeOnly: 0
OS2_UseTypoMetrics: 1
CreationTime: 1318363544
ModificationTime: 1326247676
OS2TypoAscent: 0
OS2TypoAOffset: 1
OS2TypoDescent: 0
OS2TypoDOffset: 1
OS2TypoLinegap: 0
OS2WinAscent: 0
OS2WinAOffset: 1
OS2WinDescent: 0
OS2WinDOffset: 1
HheadAscent: 0
HheadAOffset: 1
HheadDescent: 0
HheadDOffset: 1
OS2Vendor: 'PfEd'
DEI: 91125
Encoding: UnicodeBmp
UnicodeInterp: none
NameList: Adobe Glyph List
DisplaySize: 39
AntiAlias: 1
FitToEm: 1
WinInfo: 1488 16 5
BeginChars: 65536 1472

StartChar: C000
Encoding: 0 0 0
Width: 460
VWidth: 0
Flags: W
LayerCount: 2
Fore
SplineSet
0 641 m 0 0 692 l 0 51 692 l 0 51 641 l 0 0 641 l 0
0 487 m 0 0 538 l 0 51 538 l 0 51 487 l 0 0 487 l 0
0 333 m 0 0 384 l 0 51 384 l 0 51 333 l 0 0 333 l 0
0 179 m 0 0 230 l 0 51 230 l 0 51 179 l 0 0 179 l 0
0 25 m 0 0 76 l 0 51 76 l 0 51 25 l 0 0 25 l 0
153 641 m 0 153 692 l 0 205 692 l 0 205 641 l 0 153 641 l 0
153 25 m 0 153 76 l 0 205 76 l 0 205 25 l 0 153 25 l 0
307 641 m 0 307 692 l 0 358 692 l 0 358 641 l 0 307 641 l 0
307 487 m 0 307 538 l 0 358 538 l 0 358 487 l 0 307 487 l 0
307 333 m 0 307 384 l 0 358 384 l 0 358 333 l 0 307 333 l 0
307 179 m 0 307 230 l 0 358 230 l 0 358 179 l 0 307 179 l 0
307 25 m 0 307 76 l 0 358 76 l 0 358 25 l 0 307 25 l 0
EndSplineSet
EndChar

StartChar: space
Encoding: 32 32 1
Width: 460
VWidth: 0
Flags: W
LayerCount: 2
Fore
SplineSet
EndSplineSet
EndChar

StartChar: exclam
Encoding: 33 33 2
Width: 460
VWidth: 0
Flags: W
LayerCount: 2
Fore
SplineSet
153 641 m 0 153 692 l 0 205 692 l 0 205 641 l 0 153 641 l 0
153 564 m 0 153 615 l 0 205 615 l 0 205 564 l 0 153 564 l 0
153 487 m 0 153 538 l 0 205 538 l 0 205 487 l 0 153 487 l 0
153 410 m 0 153 461 l 0 205 461 l 0 205 410 l 0 153 410 l 0
153 333 m 0 153 384 l 0 205 384 l 0 205 333 l 0 153 333 l 0
153 256 m 0 153 307 l 0 205 307 l 0 205 256 l 0 153 256 l 0
153 179 m 0 153 230 l 0 205 230 l 0 205 179 l 0 153 179 l 0
153 25 m 0 153 76 l 0 205 76 l 0 205 25 l 0 153 25 l 0
EndSplineSet
EndChar

StartChar: quotedbl
Encoding: 34 34 3
Width: 460
VWidth: 0
Flags: W
LayerCount: 2
Fore
SplineSet
76 641 m 0 76 692 l 0 128 692 l 0 128 641 l 0 76 641 l 0
76 564 m 0 76 615 l 0 128 615 l 0 128 564 l 0 76 564 l 0
76 487 m 0 76 538 l 0 128 538 l 0 128 487 l 0 76 487 l 0
230 641 m 0 230 692 l 0 282 692 l 0 282 641 l 0 230 641 l 0
230 564 m 0 230 615 l 0 282 615 l 0 282 564 l 0 230 564 l 0
230 487 m 0 230 538 l 0 282 538 l 0 282 487 l 0 230 487 l 0
EndSplineSet
EndChar

StartChar: numbersign
Encoding: 35 35 4
Width: 460
VWidth: 0
Flags: W
LayerCount: 2
Fore
SplineSet
0 410 m 0 0 461 l 0 51 461 l 0 51 410 l 0 0 410 l 0
0 256 m 0 0 307 l 0 51 307 l 0 51 256 l 0 0 256 l 0
76 564 m 0 76 615 l 0 128 615 l 0 128 564 l 0 76 564 l 0
76 487 m 0 76 538 l 0 128 538 l 0 128 487 l 0 76 487 l 0
76 410 m 0 76 461 l 0 128 461 l 0 128 410 l 0 76 410 l 0
76 333 m 0 76 384 l 0 128 384 l 0 128 333 l 0 76 333 l 0
76 256 m 0 76 307 l 0 128 307 l 0 128 256 l 0 76 256 l 0
76 179 m 0 76 230 l 0 128 230 l 0 128 179 l 0 76 179 l 0
76 102 m 0 76 153 l 0 128 153 l 0 128 102 l 0 76 102 l 0
153 410 m 0 153 461 l 0 205 461 l 0 205 410 l 0 153 410 l 0
153 256 m 0 153 307 l 0 205 307 l 0 205 256 l 0 153 256 l 0
230 564 m 0 230 615 l 0 282 615 l 0 282 564 l 0 230 564 l 0
230 487 m 0 230 538 l 0 282 538 l 0 282 487 l 0 230 487 l 0
230 410 m 0 230 461 l 0 282 461 l 0 282 410 l 0 230 410 l 0
230 333 m 0 230 384 l 0 282 384 l 0 282 333 l 0 230 333 l 0
230 256 m 0 230 307 l 0 282 307 l 0 282 256 l 0 230 256 l 0
230 179 m 0 230 230 l 0 282 230 l 0 282 179 l 0 230 179 l 0
230 102 m 0 230 153 l 0 282 153 l 0 282 102 l 0 230 102 l 0
307 410 m 0 307 461 l 0 358 461 l 0 358 410 l 0 307 410 l 0
307 256 m 0 307 307 l 0 358 307 l 0 358 256 l 0 307 256 l 0
EndSplineSet
EndChar

StartChar: dollar
Encoding: 36 36 5
Width: 460
VWidth: 0
Flags: W
LayerCount: 2
Fore
SplineSet
0 487 m 0 0 538 l 0 51 538 l 0 51 487 l 0 0 487 l 0
0 410 m 0 0 461 l 0 51 461 l 0 51 410 l 0 0 410 l 0
0 102 m 0 0 153 l 0 51 153 l 0 51 102 l 0 0 102 l 0
76 564 m 0 76 615 l 0 128 615 l 0 128 564 l 0 76 564 l 0
76 333 m 0 76 384 l 0 128 384 l 0 128 333 l 0 76 333 l 0
76 102 m 0 76 153 l 0 128 153 l 0 128 102 l 0 76 102 l 0
153 641 m 0 153 692 l 0 205 692 l 0 205 641 l 0 153 641 l 0
153 564 m 0 153 615 l 0 205 615 l 0 205 564 l 0 153 564 l 0
153 487 m 0 153 538 l 0 205 538 l 0 205 487 l 0 153 487 l 0
153 410 m 0 153 461 l 0 205 461 l 0 205 410 l 0 153 410 l 0
153 333 m 0 153 384 l 0 205 384 l 0 205 333 l 0 153 333 l 0
153 256 m 0 153 307 l 0 205 307 l 0 205 256 l 0 153 256 l 0
153 179 m 0 153 230 l 0 205 230 l 0 205 179 l 0 153 179 l 0
153 102 m 0 153 153 l 0 205 153 l 0 205 102 l 0 153 102 l 0
153 25 m 0 153 76 l 0 205 76 l 0 205 25 l 0 153 25 l 0
230 564 m 0 230 615 l 0 282 615 l 0 282 564 l 0 230 564 l 0
230 333 m 0 230 384 l 0 282 384 l 0 282 333 l 0 230 333 l 0
230 102 m 0 230 153 l 0 282 153 l 0 282 102 l 0 230 102 l 0
307 564 m 0 307 615 l 0 358 615 l 0 358 564 l 0 307 564 l 0
307 256 m 0 307 307 l 0 358 307 l 0 358 256 l 0 307 256 l 0
307 179 m 0 307 230 l 0 358 230 l 0 358 179 l 0 307 179 l 0
EndSplineSet
EndChar

StartChar: percent
Encoding: 37 37 6
Width: 460
VWidth: 0
Flags: W
LayerCount: 2
Fore
SplineSet
0 564 m 0 0 615 l 0 51 615 l 0 51 564 l 0 0 564 l 0
0 102 m 0 0 153 l 0 51 153 l 0 51 102 l 0 0 102 l 0
0 25 m 0 0 76 l 0 51 76 l 0 51 25 l 0 0 25 l 0
76 641 m 0 76 692 l 0 128 692 l 0 128 641 l 0 76 641 l 0
76 487 m 0 76 538 l 0 128 538 l 0 128 487 l 0 76 487 l 0
76 256 m 0 76 307 l 0 128 307 l 0 128 256 l 0 76 256 l 0
76 179 m 0 76 230 l 0 128 230 l 0 128 179 l 0 76 179 l 0
153 564 m 0 153 615 l 0 205 615 l 0 205 564 l 0 153 564 l 0
153 333 m 0 153 384 l 0 205 384 l 0 205 333 l 0 153 333 l 0
153 102 m 0 153 153 l 0 205 153 l 0 205 102 l 0 153 102 l 0
230 487 m 0 230 538 l 0 282 538 l 0 282 487 l 0 230 487 l 0
230 410 m 0 230 461 l 0 282 461 l 0 282 410 l 0 230 410 l 0
230 179 m 0 230 230 l 0 282 230 l 0 282 179 l 0 230 179 l 0
230 25 m 0 230 76 l 0 282 76 l 0 282 25 l 0 230 25 l 0
307 641 m 0 307 692 l 0 358 692 l 0 358 641 l 0 307 641 l 0
307 564 m 0 307 615 l 0 358 615 l 0 358 564 l 0 307 564 l 0
307 102 m 0 307 153 l 0 358 153 l 0 358 102 l 0 307 102 l 0
EndSplineSet
EndChar

StartChar: ampersand
Encoding: 38 38 7
Width: 460
VWidth: 0
Flags: W
LayerCount: 2
Fore
SplineSet
0 487 m 0 0 538 l 0 51 538 l 0 51 487 l 0 0 487 l 0
0 410 m 0 0 461 l 0 51 461 l 0 51 410 l 0 0 410 l 0
0 256 m 0 0 307 l 0 51 307 l 0 51 256 l 0 0 256 l 0
0 179 m 0 0 230 l 0 51 230 l 0 51 179 l 0 0 179 l 0
0 102 m 0 0 153 l 0 51 153 l 0 51 102 l 0 0 102 l 0
76 564 m 0 76 615 l 0 128 615 l 0 128 564 l 0 76 564 l 0
76 333 m 0 76 384 l 0 128 384 l 0 128 333 l 0 76 333 l 0
76 25 m 0 76 76 l 0 128 76 l 0 128 25 l 0 76 25 l 0
153 487 m 0 153 538 l 0 205 538 l 0 205 487 l 0 153 487 l 0
153 410 m 0 153 461 l 0 205 461 l 0 205 410 l 0 153 410 l 0
153 256 m 0 153 307 l 0 205 307 l 0 205 256 l 0 153 256 l 0
153 25 m 0 153 76 l 0 205 76 l 0 205 25 l 0 153 25 l 0
230 179 m 0 230 230 l 0 282 230 l 0 282 179 l 0 230 179 l 0
230 102 m 0 230 153 l 0 282 153 l 0 282 102 l 0 230 102 l 0
307 179 m 0 307 230 l 0 358 230 l 0 358 179 l 0 307 179 l 0
307 25 m 0 307 76 l 0 358 76 l 0 358 25 l 0 307 25 l 0
EndSplineSet
EndChar

StartChar: apostrophe
Encoding: 39 39 8
Width: 460
VWidth: 0
Flags: W
LayerCount: 2
Fore
SplineSet
153 641 m 0 153 692 l 0 205 692 l 0 205 641 l 0 153 641 l 0
153 564 m 0 153 615 l 0 205 615 l 0 205 564 l 0 153 564 l 0
153 487 m 0 153 538 l 0 205 538 l 0 205 487 l 0 153 487 l 0
EndSplineSet
EndChar

StartChar: parenleft
Encoding: 40 40 9
Width: 460
VWidth: 0
Flags: W
LayerCount: 2
Fore
SplineSet
76 487 m 0 76 538 l 0 128 538 l 0 128 487 l 0 76 487 l 0
76 410 m 0 76 461 l 0 128 461 l 0 128 410 l 0 76 410 l 0
76 333 m 0 76 384 l 0 128 384 l 0 128 333 l 0 76 333 l 0
76 256 m 0 76 307 l 0 128 307 l 0 128 256 l 0 76 256 l 0
76 179 m 0 76 230 l 0 128 230 l 0 128 179 l 0 76 179 l 0
153 641 m 0 153 692 l 0 205 692 l 0 205 641 l 0 153 641 l 0
153 564 m 0 153 615 l 0 205 615 l 0 205 564 l 0 153 564 l 0
153 102 m 0 153 153 l 0 205 153 l 0 205 102 l 0 153 102 l 0
153 25 m 0 153 76 l 0 205 76 l 0 205 25 l 0 153 25 l 0
230 717 m 0 230 769 l 0 282 769 l 0 282 717 l 0 230 717 l 0
230 -51 m 0 230 0 l 0 282 0 l 0 282 -51 l 0 230 -51 l 0
EndSplineSet
EndChar

StartChar: parenright
Encoding: 41 41 10
Width: 460
VWidth: 0
Flags: W
LayerCount: 2
Fore
SplineSet
76 717 m 0 76 769 l 0 128 769 l 0 128 717 l 0 76 717 l 0
76 -51 m 0 76 0 l 0 128 0 l 0 128 -51 l 0 76 -51 l 0
153 641 m 0 153 692 l 0 205 692 l 0 205 641 l 0 153 641 l 0
153 564 m 0 153 615 l 0 205 615 l 0 205 564 l 0 153 564 l 0
153 102 m 0 153 153 l 0 205 153 l 0 205 102 l 0 153 102 l 0
153 25 m 0 153 76 l 0 205 76 l 0 205 25 l 0 153 25 l 0
230 487 m 0 230 538 l 0 282 538 l 0 282 487 l 0 230 487 l 0
230 410 m 0 230 461 l 0 282 461 l 0 282 410 l 0 230 410 l 0
230 333 m 0 230 384 l 0 282 384 l 0 282 333 l 0 230 333 l 0
230 256 m 0 230 307 l 0 282 307 l 0 282 256 l 0 230 256 l 0
230 179 m 0 230 230 l 0 282 230 l 0 282 179 l 0 230 179 l 0
EndSplineSet
EndChar

StartChar: asterisk
Encoding: 42 42 11
Width: 460
VWidth: 0
Flags: W
LayerCount: 2
Fore
SplineSet
0 487 m 0 0 538 l 0 51 538 l 0 51 487 l 0 0 487 l 0
0 410 m 0 0 461 l 0 51 461 l 0 51 410 l 0 0 410 l 0
0 256 m 0 0 307 l 0 51 307 l 0 51 256 l 0 0 256 l 0
0 179 m 0 0 230 l 0 51 230 l 0 51 179 l 0 0 179 l 0
76 410 m 0 76 461 l 0 128 461 l 0 128 410 l 0 76 410 l 0
76 333 m 0 76 384 l 0 128 384 l 0 128 333 l 0 76 333 l 0
76 256 m 0 76 307 l 0 128 307 l 0 128 256 l 0 76 256 l 0
153 564 m 0 153 615 l 0 205 615 l 0 205 564 l 0 153 564 l 0
153 487 m 0 153 538 l 0 205 538 l 0 205 487 l 0 153 487 l 0
153 410 m 0 153 461 l 0 205 461 l 0 205 410 l 0 153 410 l 0
153 333 m 0 153 384 l 0 205 384 l 0 205 333 l 0 153 333 l 0
153 256 m 0 153 307 l 0 205 307 l 0 205 256 l 0 153 256 l 0
153 179 m 0 153 230 l 0 205 230 l 0 205 179 l 0 153 179 l 0
153 102 m 0 153 153 l 0 205 153 l 0 205 102 l 0 153 102 l 0
230 410 m 0 230 461 l 0 282 461 l 0 282 410 l 0 230 410 l 0
230 333 m 0 230 384 l 0 282 384 l 0 282 333 l 0 230 333 l 0
230 256 m 0 230 307 l 0 282 307 l 0 282 256 l 0 230 256 l 0
307 487 m 0 307 538 l 0 358 538 l 0 358 487 l 0 307 487 l 0
307 410 m 0 307 461 l 0 358 461 l 0 358 410 l 0 307 410 l 0
307 256 m 0 307 307 l 0 358 307 l 0 358 256 l 0 307 256 l 0
307 179 m 0 307 230 l 0 358 230 l 0 358 179 l 0 307 179 l 0
EndSplineSet
EndChar

StartChar: plus
Encoding: 43 43 12
Width: 460
VWidth: 0
Flags: W
LayerCount: 2
Fore
SplineSet
0 333 m 0 0 384 l 0 51 384 l 0 51 333 l 0 0 333 l 0
76 333 m 0 76 384 l 0 128 384 l 0 128 333 l 0 76 333 l 0
153 487 m 0 153 538 l 0 205 538 l 0 205 487 l 0 153 487 l 0
153 410 m 0 153 461 l 0 205 461 l 0 205 410 l 0 153 410 l 0
153 333 m 0 153 384 l 0 205 384 l 0 205 333 l 0 153 333 l 0
153 256 m 0 153 307 l 0 205 307 l 0 205 256 l 0 153 256 l 0
153 179 m 0 153 230 l 0 205 230 l 0 205 179 l 0 153 179 l 0
230 333 m 0 230 384 l 0 282 384 l 0 282 333 l 0 230 333 l 0
307 333 m 0 307 384 l 0 358 384 l 0 358 333 l 0 307 333 l 0
EndSplineSet
EndChar

StartChar: comma
Encoding: 44 44 13
Width: 460
VWidth: 0
Flags: W
LayerCount: 2
Fore
SplineSet
76 -51 m 0 76 0 l 0 128 0 l 0 128 -51 l 0 76 -51 l 0
153 102 m 0 153 153 l 0 205 153 l 0 205 102 l 0 153 102 l 0
153 25 m 0 153 76 l 0 205 76 l 0 205 25 l 0 153 25 l 0
230 102 m 0 230 153 l 0 282 153 l 0 282 102 l 0 230 102 l 0
EndSplineSet
EndChar

StartChar: minus
Encoding: 45 45 14
Width: 460
VWidth: 0
Flags: W
LayerCount: 2
Fore
SplineSet
0 333 m 0 0 384 l 0 51 384 l 0 51 333 l 0 0 333 l 0
76 333 m 0 76 384 l 0 128 384 l 0 128 333 l 0 76 333 l 0
153 333 m 0 153 384 l 0 205 384 l 0 205 333 l 0 153 333 l 0
230 333 m 0 230 384 l 0 282 384 l 0 282 333 l 0 230 333 l 0
307 333 m 0 307 384 l 0 358 384 l 0 358 333 l 0 307 333 l 0
EndSplineSet
EndChar

StartChar: period
Encoding: 46 46 15
Width: 460
VWidth: 0
Flags: W
LayerCount: 2
Fore
SplineSet
76 25 m 0 76 76 l 0 128 76 l 0 128 25 l 0 76 25 l 0
153 102 m 0 153 153 l 0 205 153 l 0 205 102 l 0 153 102 l 0
153 25 m 0 153 76 l 0 205 76 l 0 205 25 l 0 153 25 l 0
153 -51 m 0 153 0 l 0 205 0 l 0 205 -51 l 0 153 -51 l 0
230 25 m 0 230 76 l 0 282 76 l 0 282 25 l 0 230 25 l 0
EndSplineSet
EndChar

StartChar: slash
Encoding: 47 47 16
Width: 460
VWidth: 0
Flags: W
LayerCount: 2
Fore
SplineSet
0 102 m 0 0 153 l 0 51 153 l 0 51 102 l 0 0 102 l 0
0 25 m 0 0 76 l 0 51 76 l 0 51 25 l 0 0 25 l 0
76 256 m 0 76 307 l 0 128 307 l 0 128 256 l 0 76 256 l 0
76 179 m 0 76 230 l 0 128 230 l 0 128 179 l 0 76 179 l 0
153 333 m 0 153 384 l 0 205 384 l 0 205 333 l 0 153 333 l 0
230 487 m 0 230 538 l 0 282 538 l 0 282 487 l 0 230 487 l 0
230 410 m 0 230 461 l 0 282 461 l 0 282 410 l 0 230 410 l 0
307 641 m 0 307 692 l 0 358 692 l 0 358 641 l 0 307 641 l 0
307 564 m 0 307 615 l 0 358 615 l 0 358 564 l 0 307 564 l 0
EndSplineSet
EndChar

StartChar: 0
Encoding: 48 48 17
Width: 460
VWidth: 0
Flags: W
LayerCount: 2
Fore
SplineSet
0 487 m 0 0 538 l 0 51 538 l 0 51 487 l 0 0 487 l 0
0 410 m 0 0 461 l 0 51 461 l 0 51 410 l 0 0 410 l 0
0 333 m 0 0 384 l 0 51 384 l 0 51 333 l 0 0 333 l 0
0 256 m 0 0 307 l 0 51 307 l 0 51 256 l 0 0 256 l 0
0 179 m 0 0 230 l 0 51 230 l 0 51 179 l 0 0 179 l 0
76 564 m 0 76 615 l 0 128 615 l 0 128 564 l 0 76 564 l 0
76 102 m 0 76 153 l 0 128 153 l 0 128 102 l 0 76 102 l 0
153 641 m 0 153 692 l 0 205 692 l 0 205 641 l 0 153 641 l 0
153 25 m 0 153 76 l 0 205 76 l 0 205 25 l 0 153 25 l 0
230 564 m 0 230 615 l 0 282 615 l 0 282 564 l 0 230 564 l 0
230 102 m 0 230 153 l 0 282 153 l 0 282 102 l 0 230 102 l 0
307 487 m 0 307 538 l 0 358 538 l 0 358 487 l 0 307 487 l 0
307 410 m 0 307 461 l 0 358 461 l 0 358 410 l 0 307 410 l 0
307 333 m 0 307 384 l 0 358 384 l 0 358 333 l 0 307 333 l 0
307 256 m 0 307 307 l 0 358 307 l 0 358 256 l 0 307 256 l 0
307 179 m 0 307 230 l 0 358 230 l 0 358 179 l 0 307 179 l 0
EndSplineSet
EndChar

StartChar: 1
Encoding: 49 49 18
Width: 460
VWidth: 0
Flags: W
LayerCount: 2
Fore
SplineSet
0 487 m 0 0 538 l 0 51 538 l 0 51 487 l 0 0 487 l 0
0 25 m 0 0 76 l 0 51 76 l 0 51 25 l 0 0 25 l 0
76 564 m 0 76 615 l 0 128 615 l 0 128 564 l 0 76 564 l 0
76 25 m 0 76 76 l 0 128 76 l 0 128 25 l 0 76 25 l 0
153 641 m 0 153 692 l 0 205 692 l 0 205 641 l 0 153 641 l 0
153 564 m 0 153 615 l 0 205 615 l 0 205 564 l 0 153 564 l 0
153 487 m 0 153 538 l 0 205 538 l 0 205 487 l 0 153 487 l 0
153 410 m 0 153 461 l 0 205 461 l 0 205 410 l 0 153 410 l 0
153 333 m 0 153 384 l 0 205 384 l 0 205 333 l 0 153 333 l 0
153 256 m 0 153 307 l 0 205 307 l 0 205 256 l 0 153 256 l 0
153 179 m 0 153 230 l 0 205 230 l 0 205 179 l 0 153 179 l 0
153 102 m 0 153 153 l 0 205 153 l 0 205 102 l 0 153 102 l 0
153 25 m 0 153 76 l 0 205 76 l 0 205 25 l 0 153 25 l 0
230 25 m 0 230 76 l 0 282 76 l 0 282 25 l 0 230 25 l 0
307 25 m 0 307 76 l 0 358 76 l 0 358 25 l 0 307 25 l 0
EndSplineSet
EndChar

StartChar: 2
Encoding: 50 50 19
Width: 460
VWidth: 0
Flags: W
LayerCount: 2
Fore
SplineSet
0 564 m 0 0 615 l 0 51 615 l 0 51 564 l 0 0 564 l 0
0 487 m 0 0 538 l 0 51 538 l 0 51 487 l 0 0 487 l 0
0 102 m 0 0 153 l 0 51 153 l 0 51 102 l 0 0 102 l 0
0 25 m 0 0 76 l 0 51 76 l 0 51 25 l 0 0 25 l 0
76 641 m 0 76 692 l 0 128 692 l 0 128 641 l 0 76 641 l 0
76 179 m 0 76 230 l 0 128 230 l 0 128 179 l 0 76 179 l 0
76 25 m 0 76 76 l 0 128 76 l 0 128 25 l 0 76 25 l 0
153 641 m 0 153 692 l 0 205 692 l 0 205 641 l 0 153 641 l 0
153 256 m 0 153 307 l 0 205 307 l 0 205 256 l 0 153 256 l 0
153 25 m 0 153 76 l 0 205 76 l 0 205 25 l 0 153 25 l 0
230 641 m 0 230 692 l 0 282 692 l 0 282 641 l 0 230 641 l 0
230 333 m 0 230 384 l 0 282 384 l 0 282 333 l 0 230 333 l 0
230 25 m 0 230 76 l 0 282 76 l 0 282 25 l 0 230 25 l 0
307 564 m 0 307 615 l 0 358 615 l 0 358 564 l 0 307 564 l 0
307 487 m 0 307 538 l 0 358 538 l 0 358 487 l 0 307 487 l 0
307 410 m 0 307 461 l 0 358 461 l 0 358 410 l 0 307 410 l 0
307 25 m 0 307 76 l 0 358 76 l 0 358 25 l 0 307 25 l 0
EndSplineSet
EndChar

StartChar: 3
Encoding: 51 51 20
Width: 460
VWidth: 0
Flags: W
LayerCount: 2
Fore
SplineSet
0 641 m 0 0 692 l 0 51 692 l 0 51 641 l 0 0 641 l 0
0 102 m 0 0 153 l 0 51 153 l 0 51 102 l 0 0 102 l 0
76 641 m 0 76 692 l 0 128 692 l 0 128 641 l 0 76 641 l 0
76 333 m 0 76 384 l 0 128 384 l 0 128 333 l 0 76 333 l 0
76 25 m 0 76 76 l 0 128 76 l 0 128 25 l 0 76 25 l 0
153 641 m 0 153 692 l 0 205 692 l 0 205 641 l 0 153 641 l 0
153 410 m 0 153 461 l 0 205 461 l 0 205 410 l 0 153 410 l 0
153 333 m 0 153 384 l 0 205 384 l 0 205 333 l 0 153 333 l 0
153 25 m 0 153 76 l 0 205 76 l 0 205 25 l 0 153 25 l 0
230 641 m 0 230 692 l 0 282 692 l 0 282 641 l 0 230 641 l 0
230 487 m 0 230 538 l 0 282 538 l 0 282 487 l 0 230 487 l 0
230 333 m 0 230 384 l 0 282 384 l 0 282 333 l 0 230 333 l 0
230 25 m 0 230 76 l 0 282 76 l 0 282 25 l 0 230 25 l 0
307 641 m 0 307 692 l 0 358 692 l 0 358 641 l 0 307 641 l 0
307 564 m 0 307 615 l 0 358 615 l 0 358 564 l 0 307 564 l 0
307 256 m 0 307 307 l 0 358 307 l 0 358 256 l 0 307 256 l 0
307 179 m 0 307 230 l 0 358 230 l 0 358 179 l 0 307 179 l 0
307 102 m 0 307 153 l 0 358 153 l 0 358 102 l 0 307 102 l 0
EndSplineSet
EndChar

StartChar: 4
Encoding: 52 52 21
Width: 460
VWidth: 0
Flags: W
LayerCount: 2
Fore
SplineSet
0 256 m 0 0 307 l 0 51 307 l 0 51 256 l 0 0 256 l 0
0 179 m 0 0 230 l 0 51 230 l 0 51 179 l 0 0 179 l 0
76 410 m 0 76 461 l 0 128 461 l 0 128 410 l 0 76 410 l 0
76 333 m 0 76 384 l 0 128 384 l 0 128 333 l 0 76 333 l 0
76 179 m 0 76 230 l 0 128 230 l 0 128 179 l 0 76 179 l 0
153 487 m 0 153 538 l 0 205 538 l 0 205 487 l 0 153 487 l 0
153 179 m 0 153 230 l 0 205 230 l 0 205 179 l 0 153 179 l 0
230 641 m 0 230 692 l 0 282 692 l 0 282 641 l 0 230 641 l 0
230 564 m 0 230 615 l 0 282 615 l 0 282 564 l 0 230 564 l 0
230 487 m 0 230 538 l 0 282 538 l 0 282 487 l 0 230 487 l 0
230 410 m 0 230 461 l 0 282 461 l 0 282 410 l 0 230 410 l 0
230 333 m 0 230 384 l 0 282 384 l 0 282 333 l 0 230 333 l 0
230 256 m 0 230 307 l 0 282 307 l 0 282 256 l 0 230 256 l 0
230 179 m 0 230 230 l 0 282 230 l 0 282 179 l 0 230 179 l 0
230 102 m 0 230 153 l 0 282 153 l 0 282 102 l 0 230 102 l 0
230 25 m 0 230 76 l 0 282 76 l 0 282 25 l 0 230 25 l 0
307 179 m 0 307 230 l 0 358 230 l 0 358 179 l 0 307 179 l 0
EndSplineSet
EndChar

StartChar: 5
Encoding: 53 53 22
Width: 460
VWidth: 0
Flags: W
LayerCount: 2
Fore
SplineSet
0 641 m 0 0 692 l 0 51 692 l 0 51 641 l 0 0 641 l 0
0 564 m 0 0 615 l 0 51 615 l 0 51 564 l 0 0 564 l 0
0 487 m 0 0 538 l 0 51 538 l 0 51 487 l 0 0 487 l 0
0 410 m 0 0 461 l 0 51 461 l 0 51 410 l 0 0 410 l 0
0 333 m 0 0 384 l 0 51 384 l 0 51 333 l 0 0 333 l 0
0 102 m 0 0 153 l 0 51 153 l 0 51 102 l 0 0 102 l 0
76 641 m 0 76 692 l 0 128 692 l 0 128 641 l 0 76 641 l 0
76 333 m 0 76 384 l 0 128 384 l 0 128 333 l 0 76 333 l 0
76 25 m 0 76 76 l 0 128 76 l 0 128 25 l 0 76 25 l 0
153 641 m 0 153 692 l 0 205 692 l 0 205 641 l 0 153 641 l 0
153 410 m 0 153 461 l 0 205 461 l 0 205 410 l 0 153 410 l 0
153 25 m 0 153 76 l 0 205 76 l 0 205 25 l 0 153 25 l 0
230 641 m 0 230 692 l 0 282 692 l 0 282 641 l 0 230 641 l 0
230 410 m 0 230 461 l 0 282 461 l 0 282 410 l 0 230 410 l 0
230 25 m 0 230 76 l 0 282 76 l 0 282 25 l 0 230 25 l 0
307 641 m 0 307 692 l 0 358 692 l 0 358 641 l 0 307 641 l 0
307 333 m 0 307 384 l 0 358 384 l 0 358 333 l 0 307 333 l 0
307 256 m 0 307 307 l 0 358 307 l 0 358 256 l 0 307 256 l 0
307 179 m 0 307 230 l 0 358 230 l 0 358 179 l 0 307 179 l 0
307 102 m 0 307 153 l 0 358 153 l 0 358 102 l 0 307 102 l 0
EndSplineSet
EndChar

StartChar: 6
Encoding: 54 54 23
Width: 460
VWidth: 0
Flags: W
LayerCount: 2
Fore
SplineSet
0 564 m 0 0 615 l 0 51 615 l 0 51 564 l 0 0 564 l 0
0 487 m 0 0 538 l 0 51 538 l 0 51 487 l 0 0 487 l 0
0 410 m 0 0 461 l 0 51 461 l 0 51 410 l 0 0 410 l 0
0 333 m 0 0 384 l 0 51 384 l 0 51 333 l 0 0 333 l 0
0 256 m 0 0 307 l 0 51 307 l 0 51 256 l 0 0 256 l 0
0 179 m 0 0 230 l 0 51 230 l 0 51 179 l 0 0 179 l 0
0 102 m 0 0 153 l 0 51 153 l 0 51 102 l 0 0 102 l 0
76 641 m 0 76 692 l 0 128 692 l 0 128 641 l 0 76 641 l 0
76 333 m 0 76 384 l 0 128 384 l 0 128 333 l 0 76 333 l 0
76 25 m 0 76 76 l 0 128 76 l 0 128 25 l 0 76 25 l 0
153 641 m 0 153 692 l 0 205 692 l 0 205 641 l 0 153 641 l 0
153 333 m 0 153 384 l 0 205 384 l 0 205 333 l 0 153 333 l 0
153 25 m 0 153 76 l 0 205 76 l 0 205 25 l 0 153 25 l 0
230 641 m 0 230 692 l 0 282 692 l 0 282 641 l 0 230 641 l 0
230 333 m 0 230 384 l 0 282 384 l 0 282 333 l 0 230 333 l 0
230 25 m 0 230 76 l 0 282 76 l 0 282 25 l 0 230 25 l 0
307 564 m 0 307 615 l 0 358 615 l 0 358 564 l 0 307 564 l 0
307 256 m 0 307 307 l 0 358 307 l 0 358 256 l 0 307 256 l 0
307 179 m 0 307 230 l 0 358 230 l 0 358 179 l 0 307 179 l 0
307 102 m 0 307 153 l 0 358 153 l 0 358 102 l 0 307 102 l 0
EndSplineSet
EndChar

StartChar: 7
Encoding: 55 55 24
Width: 460
VWidth: 0
Flags: W
LayerCount: 2
Fore
SplineSet
0 641 m 0 0 692 l 0 51 692 l 0 51 641 l 0 0 641 l 0
76 641 m 0 76 692 l 0 128 692 l 0 128 641 l 0 76 641 l 0
76 179 m 0 76 230 l 0 128 230 l 0 128 179 l 0 76 179 l 0
76 102 m 0 76 153 l 0 128 153 l 0 128 102 l 0 76 102 l 0
76 25 m 0 76 76 l 0 128 76 l 0 128 25 l 0 76 25 l 0
153 641 m 0 153 692 l 0 205 692 l 0 205 641 l 0 153 641 l 0
153 333 m 0 153 384 l 0 205 384 l 0 205 333 l 0 153 333 l 0
153 256 m 0 153 307 l 0 205 307 l 0 205 256 l 0 153 256 l 0
230 641 m 0 230 692 l 0 282 692 l 0 282 641 l 0 230 641 l 0
230 487 m 0 230 538 l 0 282 538 l 0 282 487 l 0 230 487 l 0
230 410 m 0 230 461 l 0 282 461 l 0 282 410 l 0 230 410 l 0
307 641 m 0 307 692 l 0 358 692 l 0 358 641 l 0 307 641 l 0
307 564 m 0 307 615 l 0 358 615 l 0 358 564 l 0 307 564 l 0
EndSplineSet
EndChar

StartChar: 8
Encoding: 56 56 25
Width: 460
VWidth: 0
Flags: W
LayerCount: 2
Fore
SplineSet
0 564 m 0 0 615 l 0 51 615 l 0 51 564 l 0 0 564 l 0
0 487 m 0 0 538 l 0 51 538 l 0 51 487 l 0 0 487 l 0
0 410 m 0 0 461 l 0 51 461 l 0 51 410 l 0 0 410 l 0
0 256 m 0 0 307 l 0 51 307 l 0 51 256 l 0 0 256 l 0
0 179 m 0 0 230 l 0 51 230 l 0 51 179 l 0 0 179 l 0
0 102 m 0 0 153 l 0 51 153 l 0 51 102 l 0 0 102 l 0
76 641 m 0 76 692 l 0 128 692 l 0 128 641 l 0 76 641 l 0
76 333 m 0 76 384 l 0 128 384 l 0 128 333 l 0 76 333 l 0
76 25 m 0 76 76 l 0 128 76 l 0 128 25 l 0 76 25 l 0
153 641 m 0 153 692 l 0 205 692 l 0 205 641 l 0 153 641 l 0
153 333 m 0 153 384 l 0 205 384 l 0 205 333 l 0 153 333 l 0
153 25 m 0 153 76 l 0 205 76 l 0 205 25 l 0 153 25 l 0
230 641 m 0 230 692 l 0 282 692 l 0 282 641 l 0 230 641 l 0
230 333 m 0 230 384 l 0 282 384 l 0 282 333 l 0 230 333 l 0
230 25 m 0 230 76 l 0 282 76 l 0 282 25 l 0 230 25 l 0
307 564 m 0 307 615 l 0 358 615 l 0 358 564 l 0 307 564 l 0
307 487 m 0 307 538 l 0 358 538 l 0 358 487 l 0 307 487 l 0
307 410 m 0 307 461 l 0 358 461 l 0 358 410 l 0 307 410 l 0
307 256 m 0 307 307 l 0 358 307 l 0 358 256 l 0 307 256 l 0
307 179 m 0 307 230 l 0 358 230 l 0 358 179 l 0 307 179 l 0
307 102 m 0 307 153 l 0 358 153 l 0 358 102 l 0 307 102 l 0
EndSplineSet
EndChar

StartChar: 9
Encoding: 57 57 26
Width: 460
VWidth: 0
Flags: W
LayerCount: 2
Fore
SplineSet
0 564 m 0 0 615 l 0 51 615 l 0 51 564 l 0 0 564 l 0
0 487 m 0 0 538 l 0 51 538 l 0 51 487 l 0 0 487 l 0
0 410 m 0 0 461 l 0 51 461 l 0 51 410 l 0 0 410 l 0
0 102 m 0 0 153 l 0 51 153 l 0 51 102 l 0 0 102 l 0
76 641 m 0 76 692 l 0 128 692 l 0 128 641 l 0 76 641 l 0
76 333 m 0 76 384 l 0 128 384 l 0 128 333 l 0 76 333 l 0
76 25 m 0 76 76 l 0 128 76 l 0 128 25 l 0 76 25 l 0
153 641 m 0 153 692 l 0 205 692 l 0 205 641 l 0 153 641 l 0
153 333 m 0 153 384 l 0 205 384 l 0 205 333 l 0 153 333 l 0
153 25 m 0 153 76 l 0 205 76 l 0 205 25 l 0 153 25 l 0
230 641 m 0 230 692 l 0 282 692 l 0 282 641 l 0 230 641 l 0
230 333 m 0 230 384 l 0 282 384 l 0 282 333 l 0 230 333 l 0
230 25 m 0 230 76 l 0 282 76 l 0 282 25 l 0 230 25 l 0
307 564 m 0 307 615 l 0 358 615 l 0 358 564 l 0 307 564 l 0
307 487 m 0 307 538 l 0 358 538 l 0 358 487 l 0 307 487 l 0
307 410 m 0 307 461 l 0 358 461 l 0 358 410 l 0 307 410 l 0
307 333 m 0 307 384 l 0 358 384 l 0 358 333 l 0 307 333 l 0
307 256 m 0 307 307 l 0 358 307 l 0 358 256 l 0 307 256 l 0
307 179 m 0 307 230 l 0 358 230 l 0 358 179 l 0 307 179 l 0
307 102 m 0 307 153 l 0 358 153 l 0 358 102 l 0 307 102 l 0
EndSplineSet
EndChar

StartChar: colon
Encoding: 58 58 27
Width: 460
VWidth: 0
Flags: W
LayerCount: 2
Fore
SplineSet
76 410 m 0 76 461 l 0 128 461 l 0 128 410 l 0 76 410 l 0
76 25 m 0 76 76 l 0 128 76 l 0 128 25 l 0 76 25 l 0
153 487 m 0 153 538 l 0 205 538 l 0 205 487 l 0 153 487 l 0
153 410 m 0 153 461 l 0 205 461 l 0 205 410 l 0 153 410 l 0
153 333 m 0 153 384 l 0 205 384 l 0 205 333 l 0 153 333 l 0
153 102 m 0 153 153 l 0 205 153 l 0 205 102 l 0 153 102 l 0
153 25 m 0 153 76 l 0 205 76 l 0 205 25 l 0 153 25 l 0
153 -51 m 0 153 0 l 0 205 0 l 0 205 -51 l 0 153 -51 l 0
230 410 m 0 230 461 l 0 282 461 l 0 282 410 l 0 230 410 l 0
230 25 m 0 230 76 l 0 282 76 l 0 282 25 l 0 230 25 l 0
EndSplineSet
EndChar

StartChar: semicolon
Encoding: 59 59 28
Width: 460
VWidth: 0
Flags: W
LayerCount: 2
Fore
SplineSet
76 410 m 0 76 461 l 0 128 461 l 0 128 410 l 0 76 410 l 0
76 -51 m 0 76 0 l 0 128 0 l 0 128 -51 l 0 76 -51 l 0
153 487 m 0 153 538 l 0 205 538 l 0 205 487 l 0 153 487 l 0
153 410 m 0 153 461 l 0 205 461 l 0 205 410 l 0 153 410 l 0
153 333 m 0 153 384 l 0 205 384 l 0 205 333 l 0 153 333 l 0
153 102 m 0 153 153 l 0 205 153 l 0 205 102 l 0 153 102 l 0
153 25 m 0 153 76 l 0 205 76 l 0 205 25 l 0 153 25 l 0
230 410 m 0 230 461 l 0 282 461 l 0 282 410 l 0 230 410 l 0
230 102 m 0 230 153 l 0 282 153 l 0 282 102 l 0 230 102 l 0
EndSplineSet
EndChar

StartChar: less
Encoding: 60 60 29
Width: 460
VWidth: 0
Flags: W
LayerCount: 2
Fore
SplineSet
0 333 m 0 0 384 l 0 51 384 l 0 51 333 l 0 0 333 l 0
76 410 m 0 76 461 l 0 128 461 l 0 128 410 l 0 76 410 l 0
76 256 m 0 76 307 l 0 128 307 l 0 128 256 l 0 76 256 l 0
153 487 m 0 153 538 l 0 205 538 l 0 205 487 l 0 153 487 l 0
153 179 m 0 153 230 l 0 205 230 l 0 205 179 l 0 153 179 l 0
230 564 m 0 230 615 l 0 282 615 l 0 282 564 l 0 230 564 l 0
230 102 m 0 230 153 l 0 282 153 l 0 282 102 l 0 230 102 l 0
307 641 m 0 307 692 l 0 358 692 l 0 358 641 l 0 307 641 l 0
307 25 m 0 307 76 l 0 358 76 l 0 358 25 l 0 307 25 l 0
EndSplineSet
EndChar

StartChar: equal
Encoding: 61 61 30
Width: 460
VWidth: 0
Flags: W
LayerCount: 2
Fore
SplineSet
0 410 m 0 0 461 l 0 51 461 l 0 51 410 l 0 0 410 l 0
0 179 m 0 0 230 l 0 51 230 l 0 51 179 l 0 0 179 l 0
76 410 m 0 76 461 l 0 128 461 l 0 128 410 l 0 76 410 l 0
76 179 m 0 76 230 l 0 128 230 l 0 128 179 l 0 76 179 l 0
153 410 m 0 153 461 l 0 205 461 l 0 205 410 l 0 153 410 l 0
153 179 m 0 153 230 l 0 205 230 l 0 205 179 l 0 153 179 l 0
230 410 m 0 230 461 l 0 282 461 l 0 282 410 l 0 230 410 l 0
230 179 m 0 230 230 l 0 282 230 l 0 282 179 l 0 230 179 l 0
307 410 m 0 307 461 l 0 358 461 l 0 358 410 l 0 307 410 l 0
307 179 m 0 307 230 l 0 358 230 l 0 358 179 l 0 307 179 l 0
EndSplineSet
EndChar

StartChar: greater
Encoding: 62 62 31
Width: 460
VWidth: 0
Flags: W
LayerCount: 2
Fore
SplineSet
0 641 m 0 0 692 l 0 51 692 l 0 51 641 l 0 0 641 l 0
0 25 m 0 0 76 l 0 51 76 l 0 51 25 l 0 0 25 l 0
76 564 m 0 76 615 l 0 128 615 l 0 128 564 l 0 76 564 l 0
76 102 m 0 76 153 l 0 128 153 l 0 128 102 l 0 76 102 l 0
153 487 m 0 153 538 l 0 205 538 l 0 205 487 l 0 153 487 l 0
153 179 m 0 153 230 l 0 205 230 l 0 205 179 l 0 153 179 l 0
230 410 m 0 230 461 l 0 282 461 l 0 282 410 l 0 230 410 l 0
230 256 m 0 230 307 l 0 282 307 l 0 282 256 l 0 230 256 l 0
307 333 m 0 307 384 l 0 358 384 l 0 358 333 l 0 307 333 l 0
EndSplineSet
EndChar

StartChar: question
Encoding: 63 63 32
Width: 460
VWidth: 0
Flags: W
LayerCount: 2
Fore
SplineSet
0 564 m 0 0 615 l 0 51 615 l 0 51 564 l 0 0 564 l 0
0 487 m 0 0 538 l 0 51 538 l 0 51 487 l 0 0 487 l 0
76 641 m 0 76 692 l 0 128 692 l 0 128 641 l 0 76 641 l 0
153 641 m 0 153 692 l 0 205 692 l 0 205 641 l 0 153 641 l 0
153 256 m 0 153 307 l 0 205 307 l 0 205 256 l 0 153 256 l 0
153 179 m 0 153 230 l 0 205 230 l 0 205 179 l 0 153 179 l 0
153 25 m 0 153 76 l 0 205 76 l 0 205 25 l 0 153 25 l 0
230 641 m 0 230 692 l 0 282 692 l 0 282 641 l 0 230 641 l 0
230 333 m 0 230 384 l 0 282 384 l 0 282 333 l 0 230 333 l 0
307 564 m 0 307 615 l 0 358 615 l 0 358 564 l 0 307 564 l 0
307 487 m 0 307 538 l 0 358 538 l 0 358 487 l 0 307 487 l 0
307 410 m 0 307 461 l 0 358 461 l 0 358 410 l 0 307 410 l 0
EndSplineSet
EndChar

StartChar: at
Encoding: 64 64 33
Width: 460
VWidth: 0
Flags: W
LayerCount: 2
Fore
SplineSet
0 564 m 0 0 615 l 0 51 615 l 0 51 564 l 0 0 564 l 0
0 487 m 0 0 538 l 0 51 538 l 0 51 487 l 0 0 487 l 0
0 410 m 0 0 461 l 0 51 461 l 0 51 410 l 0 0 410 l 0
0 333 m 0 0 384 l 0 51 384 l 0 51 333 l 0 0 333 l 0
0 256 m 0 0 307 l 0 51 307 l 0 51 256 l 0 0 256 l 0
0 179 m 0 0 230 l 0 51 230 l 0 51 179 l 0 0 179 l 0
0 102 m 0 0 153 l 0 51 153 l 0 51 102 l 0 0 102 l 0
76 641 m 0 76 692 l 0 128 692 l 0 128 641 l 0 76 641 l 0
76 25 m 0 76 76 l 0 128 76 l 0 128 25 l 0 76 25 l 0
153 641 m 0 153 692 l 0 205 692 l 0 205 641 l 0 153 641 l 0
153 333 m 0 153 384 l 0 205 384 l 0 205 333 l 0 153 333 l 0
153 256 m 0 153 307 l 0 205 307 l 0 205 256 l 0 153 256 l 0
153 179 m 0 153 230 l 0 205 230 l 0 205 179 l 0 153 179 l 0
153 25 m 0 153 76 l 0 205 76 l 0 205 25 l 0 153 25 l 0
230 641 m 0 230 692 l 0 282 692 l 0 282 641 l 0 230 641 l 0
230 410 m 0 230 461 l 0 282 461 l 0 282 410 l 0 230 410 l 0
230 179 m 0 230 230 l 0 282 230 l 0 282 179 l 0 230 179 l 0
230 25 m 0 230 76 l 0 282 76 l 0 282 25 l 0 230 25 l 0
307 564 m 0 307 615 l 0 358 615 l 0 358 564 l 0 307 564 l 0
307 487 m 0 307 538 l 0 358 538 l 0 358 487 l 0 307 487 l 0
307 410 m 0 307 461 l 0 358 461 l 0 358 410 l 0 307 410 l 0
307 333 m 0 307 384 l 0 358 384 l 0 358 333 l 0 307 333 l 0
307 256 m 0 307 307 l 0 358 307 l 0 358 256 l 0 307 256 l 0
307 25 m 0 307 76 l 0 358 76 l 0 358 25 l 0 307 25 l 0
EndSplineSet
EndChar

StartChar: A
Encoding: 65 65 34
Width: 460
VWidth: 0
Flags: W
LayerCount: 2
Fore
SplineSet
0 487 m 0 0 538 l 0 51 538 l 0 51 487 l 0 0 487 l 0
0 410 m 0 0 461 l 0 51 461 l 0 51 410 l 0 0 410 l 0
0 333 m 0 0 384 l 0 51 384 l 0 51 333 l 0 0 333 l 0
0 256 m 0 0 307 l 0 51 307 l 0 51 256 l 0 0 256 l 0
0 179 m 0 0 230 l 0 51 230 l 0 51 179 l 0 0 179 l 0
0 102 m 0 0 153 l 0 51 153 l 0 51 102 l 0 0 102 l 0
0 25 m 0 0 76 l 0 51 76 l 0 51 25 l 0 0 25 l 0
76 564 m 0 76 615 l 0 128 615 l 0 128 564 l 0 76 564 l 0
76 256 m 0 76 307 l 0 128 307 l 0 128 256 l 0 76 256 l 0
153 641 m 0 153 692 l 0 205 692 l 0 205 641 l 0 153 641 l 0
153 256 m 0 153 307 l 0 205 307 l 0 205 256 l 0 153 256 l 0
230 564 m 0 230 615 l 0 282 615 l 0 282 564 l 0 230 564 l 0
230 256 m 0 230 307 l 0 282 307 l 0 282 256 l 0 230 256 l 0
307 487 m 0 307 538 l 0 358 538 l 0 358 487 l 0 307 487 l 0
307 410 m 0 307 461 l 0 358 461 l 0 358 410 l 0 307 410 l 0
307 333 m 0 307 384 l 0 358 384 l 0 358 333 l 0 307 333 l 0
307 256 m 0 307 307 l 0 358 307 l 0 358 256 l 0 307 256 l 0
307 179 m 0 307 230 l 0 358 230 l 0 358 179 l 0 307 179 l 0
307 102 m 0 307 153 l 0 358 153 l 0 358 102 l 0 307 102 l 0
307 25 m 0 307 76 l 0 358 76 l 0 358 25 l 0 307 25 l 0
EndSplineSet
EndChar

StartChar: B
Encoding: 66 66 35
Width: 460
VWidth: 0
Flags: W
LayerCount: 2
Fore
SplineSet
0 641 m 0 0 692 l 0 51 692 l 0 51 641 l 0 0 641 l 0
0 25 m 0 0 76 l 0 51 76 l 0 51 25 l 0 0 25 l 0
76 641 m 0 76 692 l 0 128 692 l 0 128 641 l 0 76 641 l 0
76 564 m 0 76 615 l 0 128 615 l 0 128 564 l 0 76 564 l 0
76 487 m 0 76 538 l 0 128 538 l 0 128 487 l 0 76 487 l 0
76 410 m 0 76 461 l 0 128 461 l 0 128 410 l 0 76 410 l 0
76 333 m 0 76 384 l 0 128 384 l 0 128 333 l 0 76 333 l 0
76 256 m 0 76 307 l 0 128 307 l 0 128 256 l 0 76 256 l 0
76 179 m 0 76 230 l 0 128 230 l 0 128 179 l 0 76 179 l 0
76 102 m 0 76 153 l 0 128 153 l 0 128 102 l 0 76 102 l 0
76 25 m 0 76 76 l 0 128 76 l 0 128 25 l 0 76 25 l 0
153 641 m 0 153 692 l 0 205 692 l 0 205 641 l 0 153 641 l 0
153 333 m 0 153 384 l 0 205 384 l 0 205 333 l 0 153 333 l 0
153 25 m 0 153 76 l 0 205 76 l 0 205 25 l 0 153 25 l 0
230 641 m 0 230 692 l 0 282 692 l 0 282 641 l 0 230 641 l 0
230 333 m 0 230 384 l 0 282 384 l 0 282 333 l 0 230 333 l 0
230 25 m 0 230 76 l 0 282 76 l 0 282 25 l 0 230 25 l 0
307 564 m 0 307 615 l 0 358 615 l 0 358 564 l 0 307 564 l 0
307 487 m 0 307 538 l 0 358 538 l 0 358 487 l 0 307 487 l 0
307 410 m 0 307 461 l 0 358 461 l 0 358 410 l 0 307 410 l 0
307 256 m 0 307 307 l 0 358 307 l 0 358 256 l 0 307 256 l 0
307 179 m 0 307 230 l 0 358 230 l 0 358 179 l 0 307 179 l 0
307 102 m 0 307 153 l 0 358 153 l 0 358 102 l 0 307 102 l 0
EndSplineSet
EndChar

StartChar: C
Encoding: 67 67 36
Width: 460
VWidth: 0
Flags: W
LayerCount: 2
Fore
SplineSet
0 564 m 0 0 615 l 0 51 615 l 0 51 564 l 0 0 564 l 0
0 487 m 0 0 538 l 0 51 538 l 0 51 487 l 0 0 487 l 0
0 410 m 0 0 461 l 0 51 461 l 0 51 410 l 0 0 410 l 0
0 333 m 0 0 384 l 0 51 384 l 0 51 333 l 0 0 333 l 0
0 256 m 0 0 307 l 0 51 307 l 0 51 256 l 0 0 256 l 0
0 179 m 0 0 230 l 0 51 230 l 0 51 179 l 0 0 179 l 0
0 102 m 0 0 153 l 0 51 153 l 0 51 102 l 0 0 102 l 0
76 641 m 0 76 692 l 0 128 692 l 0 128 641 l 0 76 641 l 0
76 25 m 0 76 76 l 0 128 76 l 0 128 25 l 0 76 25 l 0
153 641 m 0 153 692 l 0 205 692 l 0 205 641 l 0 153 641 l 0
153 25 m 0 153 76 l 0 205 76 l 0 205 25 l 0 153 25 l 0
230 641 m 0 230 692 l 0 282 692 l 0 282 641 l 0 230 641 l 0
230 25 m 0 230 76 l 0 282 76 l 0 282 25 l 0 230 25 l 0
307 564 m 0 307 615 l 0 358 615 l 0 358 564 l 0 307 564 l 0
307 102 m 0 307 153 l 0 358 153 l 0 358 102 l 0 307 102 l 0
EndSplineSet
EndChar

StartChar: D
Encoding: 68 68 37
Width: 460
VWidth: 0
Flags: W
LayerCount: 2
Fore
SplineSet
0 641 m 0 0 692 l 0 51 692 l 0 51 641 l 0 0 641 l 0
0 25 m 0 0 76 l 0 51 76 l 0 51 25 l 0 0 25 l 0
76 641 m 0 76 692 l 0 128 692 l 0 128 641 l 0 76 641 l 0
76 564 m 0 76 615 l 0 128 615 l 0 128 564 l 0 76 564 l 0
76 487 m 0 76 538 l 0 128 538 l 0 128 487 l 0 76 487 l 0
76 410 m 0 76 461 l 0 128 461 l 0 128 410 l 0 76 410 l 0
76 333 m 0 76 384 l 0 128 384 l 0 128 333 l 0 76 333 l 0
76 256 m 0 76 307 l 0 128 307 l 0 128 256 l 0 76 256 l 0
76 179 m 0 76 230 l 0 128 230 l 0 128 179 l 0 76 179 l 0
76 102 m 0 76 153 l 0 128 153 l 0 128 102 l 0 76 102 l 0
76 25 m 0 76 76 l 0 128 76 l 0 128 25 l 0 76 25 l 0
153 641 m 0 153 692 l 0 205 692 l 0 205 641 l 0 153 641 l 0
153 25 m 0 153 76 l 0 205 76 l 0 205 25 l 0 153 25 l 0
230 641 m 0 230 692 l 0 282 692 l 0 282 641 l 0 230 641 l 0
230 25 m 0 230 76 l 0 282 76 l 0 282 25 l 0 230 25 l 0
307 564 m 0 307 615 l 0 358 615 l 0 358 564 l 0 307 564 l 0
307 487 m 0 307 538 l 0 358 538 l 0 358 487 l 0 307 487 l 0
307 410 m 0 307 461 l 0 358 461 l 0 358 410 l 0 307 410 l 0
307 333 m 0 307 384 l 0 358 384 l 0 358 333 l 0 307 333 l 0
307 256 m 0 307 307 l 0 358 307 l 0 358 256 l 0 307 256 l 0
307 179 m 0 307 230 l 0 358 230 l 0 358 179 l 0 307 179 l 0
307 102 m 0 307 153 l 0 358 153 l 0 358 102 l 0 307 102 l 0
EndSplineSet
EndChar

StartChar: E
Encoding: 69 69 38
Width: 460
VWidth: 0
Flags: W
LayerCount: 2
Fore
SplineSet
0 641 m 0 0 692 l 0 51 692 l 0 51 641 l 0 0 641 l 0
0 564 m 0 0 615 l 0 51 615 l 0 51 564 l 0 0 564 l 0
0 487 m 0 0 538 l 0 51 538 l 0 51 487 l 0 0 487 l 0
0 410 m 0 0 461 l 0 51 461 l 0 51 410 l 0 0 410 l 0
0 333 m 0 0 384 l 0 51 384 l 0 51 333 l 0 0 333 l 0
0 256 m 0 0 307 l 0 51 307 l 0 51 256 l 0 0 256 l 0
0 179 m 0 0 230 l 0 51 230 l 0 51 179 l 0 0 179 l 0
0 102 m 0 0 153 l 0 51 153 l 0 51 102 l 0 0 102 l 0
0 25 m 0 0 76 l 0 51 76 l 0 51 25 l 0 0 25 l 0
76 641 m 0 76 692 l 0 128 692 l 0 128 641 l 0 76 641 l 0
76 333 m 0 76 384 l 0 128 384 l 0 128 333 l 0 76 333 l 0
76 25 m 0 76 76 l 0 128 76 l 0 128 25 l 0 76 25 l 0
153 641 m 0 153 692 l 0 205 692 l 0 205 641 l 0 153 641 l 0
153 333 m 0 153 384 l 0 205 384 l 0 205 333 l 0 153 333 l 0
153 25 m 0 153 76 l 0 205 76 l 0 205 25 l 0 153 25 l 0
230 641 m 0 230 692 l 0 282 692 l 0 282 641 l 0 230 641 l 0
230 333 m 0 230 384 l 0 282 384 l 0 282 333 l 0 230 333 l 0
230 25 m 0 230 76 l 0 282 76 l 0 282 25 l 0 230 25 l 0
307 641 m 0 307 692 l 0 358 692 l 0 358 641 l 0 307 641 l 0
307 25 m 0 307 76 l 0 358 76 l 0 358 25 l 0 307 25 l 0
EndSplineSet
EndChar

StartChar: F
Encoding: 70 70 39
Width: 460
VWidth: 0
Flags: W
LayerCount: 2
Fore
SplineSet
0 641 m 0 0 692 l 0 51 692 l 0 51 641 l 0 0 641 l 0
0 564 m 0 0 615 l 0 51 615 l 0 51 564 l 0 0 564 l 0
0 487 m 0 0 538 l 0 51 538 l 0 51 487 l 0 0 487 l 0
0 410 m 0 0 461 l 0 51 461 l 0 51 410 l 0 0 410 l 0
0 333 m 0 0 384 l 0 51 384 l 0 51 333 l 0 0 333 l 0
0 256 m 0 0 307 l 0 51 307 l 0 51 256 l 0 0 256 l 0
0 179 m 0 0 230 l 0 51 230 l 0 51 179 l 0 0 179 l 0
0 102 m 0 0 153 l 0 51 153 l 0 51 102 l 0 0 102 l 0
0 25 m 0 0 76 l 0 51 76 l 0 51 25 l 0 0 25 l 0
76 641 m 0 76 692 l 0 128 692 l 0 128 641 l 0 76 641 l 0
76 333 m 0 76 384 l 0 128 384 l 0 128 333 l 0 76 333 l 0
153 641 m 0 153 692 l 0 205 692 l 0 205 641 l 0 153 641 l 0
153 333 m 0 153 384 l 0 205 384 l 0 205 333 l 0 153 333 l 0
230 641 m 0 230 692 l 0 282 692 l 0 282 641 l 0 230 641 l 0
230 333 m 0 230 384 l 0 282 384 l 0 282 333 l 0 230 333 l 0
307 641 m 0 307 692 l 0 358 692 l 0 358 641 l 0 307 641 l 0
EndSplineSet
EndChar

StartChar: G
Encoding: 71 71 40
Width: 460
VWidth: 0
Flags: W
LayerCount: 2
Fore
SplineSet
0 564 m 0 0 615 l 0 51 615 l 0 51 564 l 0 0 564 l 0
0 487 m 0 0 538 l 0 51 538 l 0 51 487 l 0 0 487 l 0
0 410 m 0 0 461 l 0 51 461 l 0 51 410 l 0 0 410 l 0
0 333 m 0 0 384 l 0 51 384 l 0 51 333 l 0 0 333 l 0
0 256 m 0 0 307 l 0 51 307 l 0 51 256 l 0 0 256 l 0
0 179 m 0 0 230 l 0 51 230 l 0 51 179 l 0 0 179 l 0
0 102 m 0 0 153 l 0 51 153 l 0 51 102 l 0 0 102 l 0
76 641 m 0 76 692 l 0 128 692 l 0 128 641 l 0 76 641 l 0
76 25 m 0 76 76 l 0 128 76 l 0 128 25 l 0 76 25 l 0
153 641 m 0 153 692 l 0 205 692 l 0 205 641 l 0 153 641 l 0
153 25 m 0 153 76 l 0 205 76 l 0 205 25 l 0 153 25 l 0
230 641 m 0 230 692 l 0 282 692 l 0 282 641 l 0 230 641 l 0
230 256 m 0 230 307 l 0 282 307 l 0 282 256 l 0 230 256 l 0
230 25 m 0 230 76 l 0 282 76 l 0 282 25 l 0 230 25 l 0
307 564 m 0 307 615 l 0 358 615 l 0 358 564 l 0 307 564 l 0
307 256 m 0 307 307 l 0 358 307 l 0 358 256 l 0 307 256 l 0
307 179 m 0 307 230 l 0 358 230 l 0 358 179 l 0 307 179 l 0
307 102 m 0 307 153 l 0 358 153 l 0 358 102 l 0 307 102 l 0
EndSplineSet
EndChar

StartChar: H
Encoding: 72 72 41
Width: 460
VWidth: 0
Flags: W
LayerCount: 2
Fore
SplineSet
0 641 m 0 0 692 l 0 51 692 l 0 51 641 l 0 0 641 l 0
0 564 m 0 0 615 l 0 51 615 l 0 51 564 l 0 0 564 l 0
0 487 m 0 0 538 l 0 51 538 l 0 51 487 l 0 0 487 l 0
0 410 m 0 0 461 l 0 51 461 l 0 51 410 l 0 0 410 l 0
0 333 m 0 0 384 l 0 51 384 l 0 51 333 l 0 0 333 l 0
0 256 m 0 0 307 l 0 51 307 l 0 51 256 l 0 0 256 l 0
0 179 m 0 0 230 l 0 51 230 l 0 51 179 l 0 0 179 l 0
0 102 m 0 0 153 l 0 51 153 l 0 51 102 l 0 0 102 l 0
0 25 m 0 0 76 l 0 51 76 l 0 51 25 l 0 0 25 l 0
76 333 m 0 76 384 l 0 128 384 l 0 128 333 l 0 76 333 l 0
153 333 m 0 153 384 l 0 205 384 l 0 205 333 l 0 153 333 l 0
230 333 m 0 230 384 l 0 282 384 l 0 282 333 l 0 230 333 l 0
307 641 m 0 307 692 l 0 358 692 l 0 358 641 l 0 307 641 l 0
307 564 m 0 307 615 l 0 358 615 l 0 358 564 l 0 307 564 l 0
307 487 m 0 307 538 l 0 358 538 l 0 358 487 l 0 307 487 l 0
307 410 m 0 307 461 l 0 358 461 l 0 358 410 l 0 307 410 l 0
307 333 m 0 307 384 l 0 358 384 l 0 358 333 l 0 307 333 l 0
307 256 m 0 307 307 l 0 358 307 l 0 358 256 l 0 307 256 l 0
307 179 m 0 307 230 l 0 358 230 l 0 358 179 l 0 307 179 l 0
307 102 m 0 307 153 l 0 358 153 l 0 358 102 l 0 307 102 l 0
307 25 m 0 307 76 l 0 358 76 l 0 358 25 l 0 307 25 l 0
EndSplineSet
EndChar

StartChar: I
Encoding: 73 73 42
Width: 460
VWidth: 0
Flags: W
LayerCount: 2
Fore
SplineSet
76 641 m 0 76 692 l 0 128 692 l 0 128 641 l 0 76 641 l 0
76 25 m 0 76 76 l 0 128 76 l 0 128 25 l 0 76 25 l 0
153 641 m 0 153 692 l 0 205 692 l 0 205 641 l 0 153 641 l 0
153 564 m 0 153 615 l 0 205 615 l 0 205 564 l 0 153 564 l 0
153 487 m 0 153 538 l 0 205 538 l 0 205 487 l 0 153 487 l 0
153 410 m 0 153 461 l 0 205 461 l 0 205 410 l 0 153 410 l 0
153 333 m 0 153 384 l 0 205 384 l 0 205 333 l 0 153 333 l 0
153 256 m 0 153 307 l 0 205 307 l 0 205 256 l 0 153 256 l 0
153 179 m 0 153 230 l 0 205 230 l 0 205 179 l 0 153 179 l 0
153 102 m 0 153 153 l 0 205 153 l 0 205 102 l 0 153 102 l 0
153 25 m 0 153 76 l 0 205 76 l 0 205 25 l 0 153 25 l 0
230 641 m 0 230 692 l 0 282 692 l 0 282 641 l 0 230 641 l 0
230 25 m 0 230 76 l 0 282 76 l 0 282 25 l 0 230 25 l 0
EndSplineSet
EndChar

StartChar: J
Encoding: 74 74 43
Width: 460
VWidth: 0
Flags: W
LayerCount: 2
Fore
SplineSet
0 102 m 0 0 153 l 0 51 153 l 0 51 102 l 0 0 102 l 0
76 25 m 0 76 76 l 0 128 76 l 0 128 25 l 0 76 25 l 0
153 641 m 0 153 692 l 0 205 692 l 0 205 641 l 0 153 641 l 0
153 25 m 0 153 76 l 0 205 76 l 0 205 25 l 0 153 25 l 0
230 641 m 0 230 692 l 0 282 692 l 0 282 641 l 0 230 641 l 0
230 564 m 0 230 615 l 0 282 615 l 0 282 564 l 0 230 564 l 0
230 487 m 0 230 538 l 0 282 538 l 0 282 487 l 0 230 487 l 0
230 410 m 0 230 461 l 0 282 461 l 0 282 410 l 0 230 410 l 0
230 333 m 0 230 384 l 0 282 384 l 0 282 333 l 0 230 333 l 0
230 256 m 0 230 307 l 0 282 307 l 0 282 256 l 0 230 256 l 0
230 179 m 0 230 230 l 0 282 230 l 0 282 179 l 0 230 179 l 0
230 102 m 0 230 153 l 0 282 153 l 0 282 102 l 0 230 102 l 0
307 641 m 0 307 692 l 0 358 692 l 0 358 641 l 0 307 641 l 0
EndSplineSet
EndChar

StartChar: K
Encoding: 75 75 44
Width: 460
VWidth: 0
Flags: W
LayerCount: 2
Fore
SplineSet
0 641 m 0 0 692 l 0 51 692 l 0 51 641 l 0 0 641 l 0
0 564 m 0 0 615 l 0 51 615 l 0 51 564 l 0 0 564 l 0
0 487 m 0 0 538 l 0 51 538 l 0 51 487 l 0 0 487 l 0
0 410 m 0 0 461 l 0 51 461 l 0 51 410 l 0 0 410 l 0
0 333 m 0 0 384 l 0 51 384 l 0 51 333 l 0 0 333 l 0
0 256 m 0 0 307 l 0 51 307 l 0 51 256 l 0 0 256 l 0
0 179 m 0 0 230 l 0 51 230 l 0 51 179 l 0 0 179 l 0
0 102 m 0 0 153 l 0 51 153 l 0 51 102 l 0 0 102 l 0
0 25 m 0 0 76 l 0 51 76 l 0 51 25 l 0 0 25 l 0
76 333 m 0 76 384 l 0 128 384 l 0 128 333 l 0 76 333 l 0
153 410 m 0 153 461 l 0 205 461 l 0 205 410 l 0 153 410 l 0
153 256 m 0 153 307 l 0 205 307 l 0 205 256 l 0 153 256 l 0
230 487 m 0 230 538 l 0 282 538 l 0 282 487 l 0 230 487 l 0
230 179 m 0 230 230 l 0 282 230 l 0 282 179 l 0 230 179 l 0
307 641 m 0 307 692 l 0 358 692 l 0 358 641 l 0 307 641 l 0
307 564 m 0 307 615 l 0 358 615 l 0 358 564 l 0 307 564 l 0
307 102 m 0 307 153 l 0 358 153 l 0 358 102 l 0 307 102 l 0
307 25 m 0 307 76 l 0 358 76 l 0 358 25 l 0 307 25 l 0
EndSplineSet
EndChar

StartChar: L
Encoding: 76 76 45
Width: 460
VWidth: 0
Flags: W
LayerCount: 2
Fore
SplineSet
0 641 m 0 0 692 l 0 51 692 l 0 51 641 l 0 0 641 l 0
0 564 m 0 0 615 l 0 51 615 l 0 51 564 l 0 0 564 l 0
0 487 m 0 0 538 l 0 51 538 l 0 51 487 l 0 0 487 l 0
0 410 m 0 0 461 l 0 51 461 l 0 51 410 l 0 0 410 l 0
0 333 m 0 0 384 l 0 51 384 l 0 51 333 l 0 0 333 l 0
0 256 m 0 0 307 l 0 51 307 l 0 51 256 l 0 0 256 l 0
0 179 m 0 0 230 l 0 51 230 l 0 51 179 l 0 0 179 l 0
0 102 m 0 0 153 l 0 51 153 l 0 51 102 l 0 0 102 l 0
0 25 m 0 0 76 l 0 51 76 l 0 51 25 l 0 0 25 l 0
76 25 m 0 76 76 l 0 128 76 l 0 128 25 l 0 76 25 l 0
153 25 m 0 153 76 l 0 205 76 l 0 205 25 l 0 153 25 l 0
230 25 m 0 230 76 l 0 282 76 l 0 282 25 l 0 230 25 l 0
307 25 m 0 307 76 l 0 358 76 l 0 358 25 l 0 307 25 l 0
EndSplineSet
EndChar

StartChar: M
Encoding: 77 77 46
Width: 460
VWidth: 0
Flags: W
LayerCount: 2
Fore
SplineSet
0 641 m 0 0 692 l 0 51 692 l 0 51 641 l 0 0 641 l 0
0 564 m 0 0 615 l 0 51 615 l 0 51 564 l 0 0 564 l 0
0 487 m 0 0 538 l 0 51 538 l 0 51 487 l 0 0 487 l 0
0 410 m 0 0 461 l 0 51 461 l 0 51 410 l 0 0 410 l 0
0 333 m 0 0 384 l 0 51 384 l 0 51 333 l 0 0 333 l 0
0 256 m 0 0 307 l 0 51 307 l 0 51 256 l 0 0 256 l 0
0 179 m 0 0 230 l 0 51 230 l 0 51 179 l 0 0 179 l 0
0 102 m 0 0 153 l 0 51 153 l 0 51 102 l 0 0 102 l 0
0 25 m 0 0 76 l 0 51 76 l 0 51 25 l 0 0 25 l 0
76 487 m 0 76 538 l 0 128 538 l 0 128 487 l 0 76 487 l 0
153 410 m 0 153 461 l 0 205 461 l 0 205 410 l 0 153 410 l 0
153 333 m 0 153 384 l 0 205 384 l 0 205 333 l 0 153 333 l 0
230 487 m 0 230 538 l 0 282 538 l 0 282 487 l 0 230 487 l 0
307 641 m 0 307 692 l 0 358 692 l 0 358 641 l 0 307 641 l 0
307 564 m 0 307 615 l 0 358 615 l 0 358 564 l 0 307 564 l 0
307 487 m 0 307 538 l 0 358 538 l 0 358 487 l 0 307 487 l 0
307 410 m 0 307 461 l 0 358 461 l 0 358 410 l 0 307 410 l 0
307 333 m 0 307 384 l 0 358 384 l 0 358 333 l 0 307 333 l 0
307 256 m 0 307 307 l 0 358 307 l 0 358 256 l 0 307 256 l 0
307 179 m 0 307 230 l 0 358 230 l 0 358 179 l 0 307 179 l 0
307 102 m 0 307 153 l 0 358 153 l 0 358 102 l 0 307 102 l 0
307 25 m 0 307 76 l 0 358 76 l 0 358 25 l 0 307 25 l 0
EndSplineSet
EndChar

StartChar: N
Encoding: 78 78 47
Width: 460
VWidth: 0
Flags: W
LayerCount: 2
Fore
SplineSet
0 641 m 0 0 692 l 0 51 692 l 0 51 641 l 0 0 641 l 0
0 564 m 0 0 615 l 0 51 615 l 0 51 564 l 0 0 564 l 0
0 487 m 0 0 538 l 0 51 538 l 0 51 487 l 0 0 487 l 0
0 410 m 0 0 461 l 0 51 461 l 0 51 410 l 0 0 410 l 0
0 333 m 0 0 384 l 0 51 384 l 0 51 333 l 0 0 333 l 0
0 256 m 0 0 307 l 0 51 307 l 0 51 256 l 0 0 256 l 0
0 179 m 0 0 230 l 0 51 230 l 0 51 179 l 0 0 179 l 0
0 102 m 0 0 153 l 0 51 153 l 0 51 102 l 0 0 102 l 0
0 25 m 0 0 76 l 0 51 76 l 0 51 25 l 0 0 25 l 0
76 564 m 0 76 615 l 0 128 615 l 0 128 564 l 0 76 564 l 0
76 487 m 0 76 538 l 0 128 538 l 0 128 487 l 0 76 487 l 0
153 410 m 0 153 461 l 0 205 461 l 0 205 410 l 0 153 410 l 0
153 333 m 0 153 384 l 0 205 384 l 0 205 333 l 0 153 333 l 0
230 256 m 0 230 307 l 0 282 307 l 0 282 256 l 0 230 256 l 0
230 179 m 0 230 230 l 0 282 230 l 0 282 179 l 0 230 179 l 0
307 641 m 0 307 692 l 0 358 692 l 0 358 641 l 0 307 641 l 0
307 564 m 0 307 615 l 0 358 615 l 0 358 564 l 0 307 564 l 0
307 487 m 0 307 538 l 0 358 538 l 0 358 487 l 0 307 487 l 0
307 410 m 0 307 461 l 0 358 461 l 0 358 410 l 0 307 410 l 0
307 333 m 0 307 384 l 0 358 384 l 0 358 333 l 0 307 333 l 0
307 256 m 0 307 307 l 0 358 307 l 0 358 256 l 0 307 256 l 0
307 179 m 0 307 230 l 0 358 230 l 0 358 179 l 0 307 179 l 0
307 102 m 0 307 153 l 0 358 153 l 0 358 102 l 0 307 102 l 0
307 25 m 0 307 76 l 0 358 76 l 0 358 25 l 0 307 25 l 0
EndSplineSet
EndChar

StartChar: O
Encoding: 79 79 48
Width: 460
VWidth: 0
Flags: W
LayerCount: 2
Fore
SplineSet
0 564 m 0 0 615 l 0 51 615 l 0 51 564 l 0 0 564 l 0
0 487 m 0 0 538 l 0 51 538 l 0 51 487 l 0 0 487 l 0
0 410 m 0 0 461 l 0 51 461 l 0 51 410 l 0 0 410 l 0
0 333 m 0 0 384 l 0 51 384 l 0 51 333 l 0 0 333 l 0
0 256 m 0 0 307 l 0 51 307 l 0 51 256 l 0 0 256 l 0
0 179 m 0 0 230 l 0 51 230 l 0 51 179 l 0 0 179 l 0
0 102 m 0 0 153 l 0 51 153 l 0 51 102 l 0 0 102 l 0
76 641 m 0 76 692 l 0 128 692 l 0 128 641 l 0 76 641 l 0
76 25 m 0 76 76 l 0 128 76 l 0 128 25 l 0 76 25 l 0
153 641 m 0 153 692 l 0 205 692 l 0 205 641 l 0 153 641 l 0
153 25 m 0 153 76 l 0 205 76 l 0 205 25 l 0 153 25 l 0
230 641 m 0 230 692 l 0 282 692 l 0 282 641 l 0 230 641 l 0
230 25 m 0 230 76 l 0 282 76 l 0 282 25 l 0 230 25 l 0
307 564 m 0 307 615 l 0 358 615 l 0 358 564 l 0 307 564 l 0
307 487 m 0 307 538 l 0 358 538 l 0 358 487 l 0 307 487 l 0
307 410 m 0 307 461 l 0 358 461 l 0 358 410 l 0 307 410 l 0
307 333 m 0 307 384 l 0 358 384 l 0 358 333 l 0 307 333 l 0
307 256 m 0 307 307 l 0 358 307 l 0 358 256 l 0 307 256 l 0
307 179 m 0 307 230 l 0 358 230 l 0 358 179 l 0 307 179 l 0
307 102 m 0 307 153 l 0 358 153 l 0 358 102 l 0 307 102 l 0
EndSplineSet
EndChar

StartChar: P
Encoding: 80 80 49
Width: 460
VWidth: 0
Flags: W
LayerCount: 2
Fore
SplineSet
0 641 m 0 0 692 l 0 51 692 l 0 51 641 l 0 0 641 l 0
0 564 m 0 0 615 l 0 51 615 l 0 51 564 l 0 0 564 l 0
0 487 m 0 0 538 l 0 51 538 l 0 51 487 l 0 0 487 l 0
0 410 m 0 0 461 l 0 51 461 l 0 51 410 l 0 0 410 l 0
0 333 m 0 0 384 l 0 51 384 l 0 51 333 l 0 0 333 l 0
0 256 m 0 0 307 l 0 51 307 l 0 51 256 l 0 0 256 l 0
0 179 m 0 0 230 l 0 51 230 l 0 51 179 l 0 0 179 l 0
0 102 m 0 0 153 l 0 51 153 l 0 51 102 l 0 0 102 l 0
0 25 m 0 0 76 l 0 51 76 l 0 51 25 l 0 0 25 l 0
76 641 m 0 76 692 l 0 128 692 l 0 128 641 l 0 76 641 l 0
76 333 m 0 76 384 l 0 128 384 l 0 128 333 l 0 76 333 l 0
153 641 m 0 153 692 l 0 205 692 l 0 205 641 l 0 153 641 l 0
153 333 m 0 153 384 l 0 205 384 l 0 205 333 l 0 153 333 l 0
230 641 m 0 230 692 l 0 282 692 l 0 282 641 l 0 230 641 l 0
230 333 m 0 230 384 l 0 282 384 l 0 282 333 l 0 230 333 l 0
307 564 m 0 307 615 l 0 358 615 l 0 358 564 l 0 307 564 l 0
307 487 m 0 307 538 l 0 358 538 l 0 358 487 l 0 307 487 l 0
307 410 m 0 307 461 l 0 358 461 l 0 358 410 l 0 307 410 l 0
EndSplineSet
EndChar

StartChar: Q
Encoding: 81 81 50
Width: 460
VWidth: 0
Flags: W
LayerCount: 2
Fore
SplineSet
0 564 m 0 0 615 l 0 51 615 l 0 51 564 l 0 0 564 l 0
0 487 m 0 0 538 l 0 51 538 l 0 51 487 l 0 0 487 l 0
0 410 m 0 0 461 l 0 51 461 l 0 51 410 l 0 0 410 l 0
0 333 m 0 0 384 l 0 51 384 l 0 51 333 l 0 0 333 l 0
0 256 m 0 0 307 l 0 51 307 l 0 51 256 l 0 0 256 l 0
0 179 m 0 0 230 l 0 51 230 l 0 51 179 l 0 0 179 l 0
0 102 m 0 0 153 l 0 51 153 l 0 51 102 l 0 0 102 l 0
76 641 m 0 76 692 l 0 128 692 l 0 128 641 l 0 76 641 l 0
76 25 m 0 76 76 l 0 128 76 l 0 128 25 l 0 76 25 l 0
153 641 m 0 153 692 l 0 205 692 l 0 205 641 l 0 153 641 l 0
153 102 m 0 153 153 l 0 205 153 l 0 205 102 l 0 153 102 l 0
153 25 m 0 153 76 l 0 205 76 l 0 205 25 l 0 153 25 l 0
230 641 m 0 230 692 l 0 282 692 l 0 282 641 l 0 230 641 l 0
230 25 m 0 230 76 l 0 282 76 l 0 282 25 l 0 230 25 l 0
307 564 m 0 307 615 l 0 358 615 l 0 358 564 l 0 307 564 l 0
307 487 m 0 307 538 l 0 358 538 l 0 358 487 l 0 307 487 l 0
307 410 m 0 307 461 l 0 358 461 l 0 358 410 l 0 307 410 l 0
307 333 m 0 307 384 l 0 358 384 l 0 358 333 l 0 307 333 l 0
307 256 m 0 307 307 l 0 358 307 l 0 358 256 l 0 307 256 l 0
307 179 m 0 307 230 l 0 358 230 l 0 358 179 l 0 307 179 l 0
307 102 m 0 307 153 l 0 358 153 l 0 358 102 l 0 307 102 l 0
307 -51 m 0 307 0 l 0 358 0 l 0 358 -51 l 0 307 -51 l 0
EndSplineSet
EndChar

StartChar: R
Encoding: 82 82 51
Width: 460
VWidth: 0
Flags: W
LayerCount: 2
Fore
SplineSet
0 641 m 0 0 692 l 0 51 692 l 0 51 641 l 0 0 641 l 0
0 564 m 0 0 615 l 0 51 615 l 0 51 564 l 0 0 564 l 0
0 487 m 0 0 538 l 0 51 538 l 0 51 487 l 0 0 487 l 0
0 410 m 0 0 461 l 0 51 461 l 0 51 410 l 0 0 410 l 0
0 333 m 0 0 384 l 0 51 384 l 0 51 333 l 0 0 333 l 0
0 256 m 0 0 307 l 0 51 307 l 0 51 256 l 0 0 256 l 0
0 179 m 0 0 230 l 0 51 230 l 0 51 179 l 0 0 179 l 0
0 102 m 0 0 153 l 0 51 153 l 0 51 102 l 0 0 102 l 0
0 25 m 0 0 76 l 0 51 76 l 0 51 25 l 0 0 25 l 0
76 641 m 0 76 692 l 0 128 692 l 0 128 641 l 0 76 641 l 0
76 333 m 0 76 384 l 0 128 384 l 0 128 333 l 0 76 333 l 0
153 641 m 0 153 692 l 0 205 692 l 0 205 641 l 0 153 641 l 0
153 333 m 0 153 384 l 0 205 384 l 0 205 333 l 0 153 333 l 0
153 256 m 0 153 307 l 0 205 307 l 0 205 256 l 0 153 256 l 0
230 641 m 0 230 692 l 0 282 692 l 0 282 641 l 0 230 641 l 0
230 333 m 0 230 384 l 0 282 384 l 0 282 333 l 0 230 333 l 0
230 179 m 0 230 230 l 0 282 230 l 0 282 179 l 0 230 179 l 0
307 564 m 0 307 615 l 0 358 615 l 0 358 564 l 0 307 564 l 0
307 487 m 0 307 538 l 0 358 538 l 0 358 487 l 0 307 487 l 0
307 410 m 0 307 461 l 0 358 461 l 0 358 410 l 0 307 410 l 0
307 102 m 0 307 153 l 0 358 153 l 0 358 102 l 0 307 102 l 0
307 25 m 0 307 76 l 0 358 76 l 0 358 25 l 0 307 25 l 0
EndSplineSet
EndChar

StartChar: S
Encoding: 83 83 52
Width: 460
VWidth: 0
Flags: W
LayerCount: 2
Fore
SplineSet
0 564 m 0 0 615 l 0 51 615 l 0 51 564 l 0 0 564 l 0
0 487 m 0 0 538 l 0 51 538 l 0 51 487 l 0 0 487 l 0
0 410 m 0 0 461 l 0 51 461 l 0 51 410 l 0 0 410 l 0
0 102 m 0 0 153 l 0 51 153 l 0 51 102 l 0 0 102 l 0
76 641 m 0 76 692 l 0 128 692 l 0 128 641 l 0 76 641 l 0
76 333 m 0 76 384 l 0 128 384 l 0 128 333 l 0 76 333 l 0
76 25 m 0 76 76 l 0 128 76 l 0 128 25 l 0 76 25 l 0
153 641 m 0 153 692 l 0 205 692 l 0 205 641 l 0 153 641 l 0
153 333 m 0 153 384 l 0 205 384 l 0 205 333 l 0 153 333 l 0
153 25 m 0 153 76 l 0 205 76 l 0 205 25 l 0 153 25 l 0
230 641 m 0 230 692 l 0 282 692 l 0 282 641 l 0 230 641 l 0
230 333 m 0 230 384 l 0 282 384 l 0 282 333 l 0 230 333 l 0
230 25 m 0 230 76 l 0 282 76 l 0 282 25 l 0 230 25 l 0
307 564 m 0 307 615 l 0 358 615 l 0 358 564 l 0 307 564 l 0
307 256 m 0 307 307 l 0 358 307 l 0 358 256 l 0 307 256 l 0
307 179 m 0 307 230 l 0 358 230 l 0 358 179 l 0 307 179 l 0
307 102 m 0 307 153 l 0 358 153 l 0 358 102 l 0 307 102 l 0
EndSplineSet
EndChar

StartChar: T
Encoding: 84 84 53
Width: 460
VWidth: 0
Flags: W
LayerCount: 2
Fore
SplineSet
0 641 m 0 0 692 l 0 51 692 l 0 51 641 l 0 0 641 l 0
76 641 m 0 76 692 l 0 128 692 l 0 128 641 l 0 76 641 l 0
153 641 m 0 153 692 l 0 205 692 l 0 205 641 l 0 153 641 l 0
153 564 m 0 153 615 l 0 205 615 l 0 205 564 l 0 153 564 l 0
153 487 m 0 153 538 l 0 205 538 l 0 205 487 l 0 153 487 l 0
153 410 m 0 153 461 l 0 205 461 l 0 205 410 l 0 153 410 l 0
153 333 m 0 153 384 l 0 205 384 l 0 205 333 l 0 153 333 l 0
153 256 m 0 153 307 l 0 205 307 l 0 205 256 l 0 153 256 l 0
153 179 m 0 153 230 l 0 205 230 l 0 205 179 l 0 153 179 l 0
153 102 m 0 153 153 l 0 205 153 l 0 205 102 l 0 153 102 l 0
153 25 m 0 153 76 l 0 205 76 l 0 205 25 l 0 153 25 l 0
230 641 m 0 230 692 l 0 282 692 l 0 282 641 l 0 230 641 l 0
307 641 m 0 307 692 l 0 358 692 l 0 358 641 l 0 307 641 l 0
EndSplineSet
EndChar

StartChar: U
Encoding: 85 85 54
Width: 460
VWidth: 0
Flags: W
LayerCount: 2
Fore
SplineSet
0 641 m 0 0 692 l 0 51 692 l 0 51 641 l 0 0 641 l 0
0 564 m 0 0 615 l 0 51 615 l 0 51 564 l 0 0 564 l 0
0 487 m 0 0 538 l 0 51 538 l 0 51 487 l 0 0 487 l 0
0 410 m 0 0 461 l 0 51 461 l 0 51 410 l 0 0 410 l 0
0 333 m 0 0 384 l 0 51 384 l 0 51 333 l 0 0 333 l 0
0 256 m 0 0 307 l 0 51 307 l 0 51 256 l 0 0 256 l 0
0 179 m 0 0 230 l 0 51 230 l 0 51 179 l 0 0 179 l 0
0 102 m 0 0 153 l 0 51 153 l 0 51 102 l 0 0 102 l 0
76 25 m 0 76 76 l 0 128 76 l 0 128 25 l 0 76 25 l 0
153 25 m 0 153 76 l 0 205 76 l 0 205 25 l 0 153 25 l 0
230 25 m 0 230 76 l 0 282 76 l 0 282 25 l 0 230 25 l 0
307 641 m 0 307 692 l 0 358 692 l 0 358 641 l 0 307 641 l 0
307 564 m 0 307 615 l 0 358 615 l 0 358 564 l 0 307 564 l 0
307 487 m 0 307 538 l 0 358 538 l 0 358 487 l 0 307 487 l 0
307 410 m 0 307 461 l 0 358 461 l 0 358 410 l 0 307 410 l 0
307 333 m 0 307 384 l 0 358 384 l 0 358 333 l 0 307 333 l 0
307 256 m 0 307 307 l 0 358 307 l 0 358 256 l 0 307 256 l 0
307 179 m 0 307 230 l 0 358 230 l 0 358 179 l 0 307 179 l 0
307 102 m 0 307 153 l 0 358 153 l 0 358 102 l 0 307 102 l 0
EndSplineSet
EndChar

StartChar: V
Encoding: 86 86 55
Width: 460
VWidth: 0
Flags: W
LayerCount: 2
Fore
SplineSet
0 641 m 0 0 692 l 0 51 692 l 0 51 641 l 0 0 641 l 0
0 564 m 0 0 615 l 0 51 615 l 0 51 564 l 0 0 564 l 0
0 487 m 0 0 538 l 0 51 538 l 0 51 487 l 0 0 487 l 0
0 410 m 0 0 461 l 0 51 461 l 0 51 410 l 0 0 410 l 0
76 333 m 0 76 384 l 0 128 384 l 0 128 333 l 0 76 333 l 0
76 256 m 0 76 307 l 0 128 307 l 0 128 256 l 0 76 256 l 0
76 179 m 0 76 230 l 0 128 230 l 0 128 179 l 0 76 179 l 0
153 102 m 0 153 153 l 0 205 153 l 0 205 102 l 0 153 102 l 0
153 25 m 0 153 76 l 0 205 76 l 0 205 25 l 0 153 25 l 0
230 333 m 0 230 384 l 0 282 384 l 0 282 333 l 0 230 333 l 0
230 256 m 0 230 307 l 0 282 307 l 0 282 256 l 0 230 256 l 0
230 179 m 0 230 230 l 0 282 230 l 0 282 179 l 0 230 179 l 0
307 641 m 0 307 692 l 0 358 692 l 0 358 641 l 0 307 641 l 0
307 564 m 0 307 615 l 0 358 615 l 0 358 564 l 0 307 564 l 0
307 487 m 0 307 538 l 0 358 538 l 0 358 487 l 0 307 487 l 0
307 410 m 0 307 461 l 0 358 461 l 0 358 410 l 0 307 410 l 0
EndSplineSet
EndChar

StartChar: W
Encoding: 87 87 56
Width: 460
VWidth: 0
Flags: W
LayerCount: 2
Fore
SplineSet
0 641 m 0 0 692 l 0 51 692 l 0 51 641 l 0 0 641 l 0
0 564 m 0 0 615 l 0 51 615 l 0 51 564 l 0 0 564 l 0
0 487 m 0 0 538 l 0 51 538 l 0 51 487 l 0 0 487 l 0
0 410 m 0 0 461 l 0 51 461 l 0 51 410 l 0 0 410 l 0
0 333 m 0 0 384 l 0 51 384 l 0 51 333 l 0 0 333 l 0
0 256 m 0 0 307 l 0 51 307 l 0 51 256 l 0 0 256 l 0
0 179 m 0 0 230 l 0 51 230 l 0 51 179 l 0 0 179 l 0
0 102 m 0 0 153 l 0 51 153 l 0 51 102 l 0 0 102 l 0
76 25 m 0 76 76 l 0 128 76 l 0 128 25 l 0 76 25 l 0
153 333 m 0 153 384 l 0 205 384 l 0 205 333 l 0 153 333 l 0
153 256 m 0 153 307 l 0 205 307 l 0 205 256 l 0 153 256 l 0
153 179 m 0 153 230 l 0 205 230 l 0 205 179 l 0 153 179 l 0
153 102 m 0 153 153 l 0 205 153 l 0 205 102 l 0 153 102 l 0
230 25 m 0 230 76 l 0 282 76 l 0 282 25 l 0 230 25 l 0
307 641 m 0 307 692 l 0 358 692 l 0 358 641 l 0 307 641 l 0
307 564 m 0 307 615 l 0 358 615 l 0 358 564 l 0 307 564 l 0
307 487 m 0 307 538 l 0 358 538 l 0 358 487 l 0 307 487 l 0
307 410 m 0 307 461 l 0 358 461 l 0 358 410 l 0 307 410 l 0
307 333 m 0 307 384 l 0 358 384 l 0 358 333 l 0 307 333 l 0
307 256 m 0 307 307 l 0 358 307 l 0 358 256 l 0 307 256 l 0
307 179 m 0 307 230 l 0 358 230 l 0 358 179 l 0 307 179 l 0
307 102 m 0 307 153 l 0 358 153 l 0 358 102 l 0 307 102 l 0
EndSplineSet
EndChar

StartChar: X
Encoding: 88 88 57
Width: 460
VWidth: 0
Flags: W
LayerCount: 2
Fore
SplineSet
0 641 m 0 0 692 l 0 51 692 l 0 51 641 l 0 0 641 l 0
0 564 m 0 0 615 l 0 51 615 l 0 51 564 l 0 0 564 l 0
0 102 m 0 0 153 l 0 51 153 l 0 51 102 l 0 0 102 l 0
0 25 m 0 0 76 l 0 51 76 l 0 51 25 l 0 0 25 l 0
76 487 m 0 76 538 l 0 128 538 l 0 128 487 l 0 76 487 l 0
76 410 m 0 76 461 l 0 128 461 l 0 128 410 l 0 76 410 l 0
76 256 m 0 76 307 l 0 128 307 l 0 128 256 l 0 76 256 l 0
76 179 m 0 76 230 l 0 128 230 l 0 128 179 l 0 76 179 l 0
153 333 m 0 153 384 l 0 205 384 l 0 205 333 l 0 153 333 l 0
230 487 m 0 230 538 l 0 282 538 l 0 282 487 l 0 230 487 l 0
230 410 m 0 230 461 l 0 282 461 l 0 282 410 l 0 230 410 l 0
230 256 m 0 230 307 l 0 282 307 l 0 282 256 l 0 230 256 l 0
230 179 m 0 230 230 l 0 282 230 l 0 282 179 l 0 230 179 l 0
307 641 m 0 307 692 l 0 358 692 l 0 358 641 l 0 307 641 l 0
307 564 m 0 307 615 l 0 358 615 l 0 358 564 l 0 307 564 l 0
307 102 m 0 307 153 l 0 358 153 l 0 358 102 l 0 307 102 l 0
307 25 m 0 307 76 l 0 358 76 l 0 358 25 l 0 307 25 l 0
EndSplineSet
EndChar

StartChar: Y
Encoding: 89 89 58
Width: 460
VWidth: 0
Flags: W
LayerCount: 2
Fore
SplineSet
0 641 m 0 0 692 l 0 51 692 l 0 51 641 l 0 0 641 l 0
0 564 m 0 0 615 l 0 51 615 l 0 51 564 l 0 0 564 l 0
76 487 m 0 76 538 l 0 128 538 l 0 128 487 l 0 76 487 l 0
76 410 m 0 76 461 l 0 128 461 l 0 128 410 l 0 76 410 l 0
153 333 m 0 153 384 l 0 205 384 l 0 205 333 l 0 153 333 l 0
153 256 m 0 153 307 l 0 205 307 l 0 205 256 l 0 153 256 l 0
153 179 m 0 153 230 l 0 205 230 l 0 205 179 l 0 153 179 l 0
153 102 m 0 153 153 l 0 205 153 l 0 205 102 l 0 153 102 l 0
153 25 m 0 153 76 l 0 205 76 l 0 205 25 l 0 153 25 l 0
230 487 m 0 230 538 l 0 282 538 l 0 282 487 l 0 230 487 l 0
230 410 m 0 230 461 l 0 282 461 l 0 282 410 l 0 230 410 l 0
307 641 m 0 307 692 l 0 358 692 l 0 358 641 l 0 307 641 l 0
307 564 m 0 307 615 l 0 358 615 l 0 358 564 l 0 307 564 l 0
EndSplineSet
EndChar

StartChar: Z
Encoding: 90 90 59
Width: 460
VWidth: 0
Flags: W
LayerCount: 2
Fore
SplineSet
0 641 m 0 0 692 l 0 51 692 l 0 51 641 l 0 0 641 l 0
0 102 m 0 0 153 l 0 51 153 l 0 51 102 l 0 0 102 l 0
0 25 m 0 0 76 l 0 51 76 l 0 51 25 l 0 0 25 l 0
76 641 m 0 76 692 l 0 128 692 l 0 128 641 l 0 76 641 l 0
76 256 m 0 76 307 l 0 128 307 l 0 128 256 l 0 76 256 l 0
76 179 m 0 76 230 l 0 128 230 l 0 128 179 l 0 76 179 l 0
76 25 m 0 76 76 l 0 128 76 l 0 128 25 l 0 76 25 l 0
153 641 m 0 153 692 l 0 205 692 l 0 205 641 l 0 153 641 l 0
153 333 m 0 153 384 l 0 205 384 l 0 205 333 l 0 153 333 l 0
153 25 m 0 153 76 l 0 205 76 l 0 205 25 l 0 153 25 l 0
230 641 m 0 230 692 l 0 282 692 l 0 282 641 l 0 230 641 l 0
230 487 m 0 230 538 l 0 282 538 l 0 282 487 l 0 230 487 l 0
230 410 m 0 230 461 l 0 282 461 l 0 282 410 l 0 230 410 l 0
230 25 m 0 230 76 l 0 282 76 l 0 282 25 l 0 230 25 l 0
307 641 m 0 307 692 l 0 358 692 l 0 358 641 l 0 307 641 l 0
307 564 m 0 307 615 l 0 358 615 l 0 358 564 l 0 307 564 l 0
307 25 m 0 307 76 l 0 358 76 l 0 358 25 l 0 307 25 l 0
EndSplineSet
EndChar

StartChar: bracketleft
Encoding: 91 91 60
Width: 460
VWidth: 0
Flags: W
LayerCount: 2
Fore
SplineSet
76 717 m 0 76 769 l 0 128 769 l 0 128 717 l 0 76 717 l 0
76 641 m 0 76 692 l 0 128 692 l 0 128 641 l 0 76 641 l 0
76 564 m 0 76 615 l 0 128 615 l 0 128 564 l 0 76 564 l 0
76 487 m 0 76 538 l 0 128 538 l 0 128 487 l 0 76 487 l 0
76 410 m 0 76 461 l 0 128 461 l 0 128 410 l 0 76 410 l 0
76 333 m 0 76 384 l 0 128 384 l 0 128 333 l 0 76 333 l 0
76 256 m 0 76 307 l 0 128 307 l 0 128 256 l 0 76 256 l 0
76 179 m 0 76 230 l 0 128 230 l 0 128 179 l 0 76 179 l 0
76 102 m 0 76 153 l 0 128 153 l 0 128 102 l 0 76 102 l 0
76 25 m 0 76 76 l 0 128 76 l 0 128 25 l 0 76 25 l 0
76 -51 m 0 76 0 l 0 128 0 l 0 128 -51 l 0 76 -51 l 0
153 717 m 0 153 769 l 0 205 769 l 0 205 717 l 0 153 717 l 0
153 -51 m 0 153 0 l 0 205 0 l 0 205 -51 l 0 153 -51 l 0
230 717 m 0 230 769 l 0 282 769 l 0 282 717 l 0 230 717 l 0
230 -51 m 0 230 0 l 0 282 0 l 0 282 -51 l 0 230 -51 l 0
EndSplineSet
EndChar

StartChar: backslash
Encoding: 92 92 61
Width: 460
VWidth: 0
Flags: W
LayerCount: 2
Fore
SplineSet
0 641 m 0 0 692 l 0 51 692 l 0 51 641 l 0 0 641 l 0
0 564 m 0 0 615 l 0 51 615 l 0 51 564 l 0 0 564 l 0
76 487 m 0 76 538 l 0 128 538 l 0 128 487 l 0 76 487 l 0
76 410 m 0 76 461 l 0 128 461 l 0 128 410 l 0 76 410 l 0
153 333 m 0 153 384 l 0 205 384 l 0 205 333 l 0 153 333 l 0
230 256 m 0 230 307 l 0 282 307 l 0 282 256 l 0 230 256 l 0
230 179 m 0 230 230 l 0 282 230 l 0 282 179 l 0 230 179 l 0
307 102 m 0 307 153 l 0 358 153 l 0 358 102 l 0 307 102 l 0
307 25 m 0 307 76 l 0 358 76 l 0 358 25 l 0 307 25 l 0
EndSplineSet
EndChar

StartChar: bracketright
Encoding: 93 93 62
Width: 460
VWidth: 0
Flags: W
LayerCount: 2
Fore
SplineSet
76 717 m 0 76 769 l 0 128 769 l 0 128 717 l 0 76 717 l 0
76 -51 m 0 76 0 l 0 128 0 l 0 128 -51 l 0 76 -51 l 0
153 717 m 0 153 769 l 0 205 769 l 0 205 717 l 0 153 717 l 0
153 -51 m 0 153 0 l 0 205 0 l 0 205 -51 l 0 153 -51 l 0
230 717 m 0 230 769 l 0 282 769 l 0 282 717 l 0 230 717 l 0
230 641 m 0 230 692 l 0 282 692 l 0 282 641 l 0 230 641 l 0
230 564 m 0 230 615 l 0 282 615 l 0 282 564 l 0 230 564 l 0
230 487 m 0 230 538 l 0 282 538 l 0 282 487 l 0 230 487 l 0
230 410 m 0 230 461 l 0 282 461 l 0 282 410 l 0 230 410 l 0
230 333 m 0 230 384 l 0 282 384 l 0 282 333 l 0 230 333 l 0
230 256 m 0 230 307 l 0 282 307 l 0 282 256 l 0 230 256 l 0
230 179 m 0 230 230 l 0 282 230 l 0 282 179 l 0 230 179 l 0
230 102 m 0 230 153 l 0 282 153 l 0 282 102 l 0 230 102 l 0
230 25 m 0 230 76 l 0 282 76 l 0 282 25 l 0 230 25 l 0
230 -51 m 0 230 0 l 0 282 0 l 0 282 -51 l 0 230 -51 l 0
EndSplineSet
EndChar

StartChar: asciicircum
Encoding: 94 94 63
Width: 460
VWidth: 0
Flags: W
LayerCount: 2
Fore
SplineSet
0 487 m 0 0 538 l 0 51 538 l 0 51 487 l 0 0 487 l 0
76 564 m 0 76 615 l 0 128 615 l 0 128 564 l 0 76 564 l 0
153 641 m 0 153 692 l 0 205 692 l 0 205 641 l 0 153 641 l 0
230 564 m 0 230 615 l 0 282 615 l 0 282 564 l 0 230 564 l 0
307 487 m 0 307 538 l 0 358 538 l 0 358 487 l 0 307 487 l 0
EndSplineSet
EndChar

StartChar: underscore
Encoding: 95 95 64
Width: 460
VWidth: 0
Flags: W
LayerCount: 2
Fore
SplineSet
0 -51 m 0 0 0 l 0 51 0 l 0 51 -51 l 0 0 -51 l 0
76 -51 m 0 76 0 l 0 128 0 l 0 128 -51 l 0 76 -51 l 0
153 -51 m 0 153 0 l 0 205 0 l 0 205 -51 l 0 153 -51 l 0
230 -51 m 0 230 0 l 0 282 0 l 0 282 -51 l 0 230 -51 l 0
307 -51 m 0 307 0 l 0 358 0 l 0 358 -51 l 0 307 -51 l 0
EndSplineSet
EndChar

StartChar: grave
Encoding: 96 96 65
Width: 460
VWidth: 0
Flags: W
LayerCount: 2
Fore
SplineSet
153 717 m 0 153 769 l 0 205 769 l 0 205 717 l 0 153 717 l 0
230 641 m 0 230 692 l 0 282 692 l 0 282 641 l 0 230 641 l 0
EndSplineSet
EndChar

StartChar: a
Encoding: 97 97 66
Width: 460
VWidth: 0
Flags: W
LayerCount: 2
Fore
SplineSet
0 179 m 0 0 230 l 0 51 230 l 0 51 179 l 0 0 179 l 0
0 102 m 0 0 153 l 0 51 153 l 0 51 102 l 0 0 102 l 0
76 410 m 0 76 461 l 0 128 461 l 0 128 410 l 0 76 410 l 0
76 256 m 0 76 307 l 0 128 307 l 0 128 256 l 0 76 256 l 0
76 25 m 0 76 76 l 0 128 76 l 0 128 25 l 0 76 25 l 0
153 410 m 0 153 461 l 0 205 461 l 0 205 410 l 0 153 410 l 0
153 256 m 0 153 307 l 0 205 307 l 0 205 256 l 0 153 256 l 0
153 25 m 0 153 76 l 0 205 76 l 0 205 25 l 0 153 25 l 0
230 410 m 0 230 461 l 0 282 461 l 0 282 410 l 0 230 410 l 0
230 256 m 0 230 307 l 0 282 307 l 0 282 256 l 0 230 256 l 0
230 102 m 0 230 153 l 0 282 153 l 0 282 102 l 0 230 102 l 0
307 333 m 0 307 384 l 0 358 384 l 0 358 333 l 0 307 333 l 0
307 256 m 0 307 307 l 0 358 307 l 0 358 256 l 0 307 256 l 0
307 179 m 0 307 230 l 0 358 230 l 0 358 179 l 0 307 179 l 0
307 102 m 0 307 153 l 0 358 153 l 0 358 102 l 0 307 102 l 0
307 25 m 0 307 76 l 0 358 76 l 0 358 25 l 0 307 25 l 0
EndSplineSet
EndChar

StartChar: b
Encoding: 98 98 67
Width: 460
VWidth: 0
Flags: W
LayerCount: 2
Fore
SplineSet
0 641 m 0 0 692 l 0 51 692 l 0 51 641 l 0 0 641 l 0
0 564 m 0 0 615 l 0 51 615 l 0 51 564 l 0 0 564 l 0
0 487 m 0 0 538 l 0 51 538 l 0 51 487 l 0 0 487 l 0
0 410 m 0 0 461 l 0 51 461 l 0 51 410 l 0 0 410 l 0
0 333 m 0 0 384 l 0 51 384 l 0 51 333 l 0 0 333 l 0
0 256 m 0 0 307 l 0 51 307 l 0 51 256 l 0 0 256 l 0
0 179 m 0 0 230 l 0 51 230 l 0 51 179 l 0 0 179 l 0
0 102 m 0 0 153 l 0 51 153 l 0 51 102 l 0 0 102 l 0
0 25 m 0 0 76 l 0 51 76 l 0 51 25 l 0 0 25 l 0
76 410 m 0 76 461 l 0 128 461 l 0 128 410 l 0 76 410 l 0
76 25 m 0 76 76 l 0 128 76 l 0 128 25 l 0 76 25 l 0
153 410 m 0 153 461 l 0 205 461 l 0 205 410 l 0 153 410 l 0
153 25 m 0 153 76 l 0 205 76 l 0 205 25 l 0 153 25 l 0
230 410 m 0 230 461 l 0 282 461 l 0 282 410 l 0 230 410 l 0
230 25 m 0 230 76 l 0 282 76 l 0 282 25 l 0 230 25 l 0
307 333 m 0 307 384 l 0 358 384 l 0 358 333 l 0 307 333 l 0
307 256 m 0 307 307 l 0 358 307 l 0 358 256 l 0 307 256 l 0
307 179 m 0 307 230 l 0 358 230 l 0 358 179 l 0 307 179 l 0
307 102 m 0 307 153 l 0 358 153 l 0 358 102 l 0 307 102 l 0
EndSplineSet
EndChar

StartChar: c
Encoding: 99 99 68
Width: 460
VWidth: 0
Flags: W
LayerCount: 2
Fore
SplineSet
0 333 m 0 0 384 l 0 51 384 l 0 51 333 l 0 0 333 l 0
0 256 m 0 0 307 l 0 51 307 l 0 51 256 l 0 0 256 l 0
0 179 m 0 0 230 l 0 51 230 l 0 51 179 l 0 0 179 l 0
0 102 m 0 0 153 l 0 51 153 l 0 51 102 l 0 0 102 l 0
76 410 m 0 76 461 l 0 128 461 l 0 128 410 l 0 76 410 l 0
76 25 m 0 76 76 l 0 128 76 l 0 128 25 l 0 76 25 l 0
153 410 m 0 153 461 l 0 205 461 l 0 205 410 l 0 153 410 l 0
153 25 m 0 153 76 l 0 205 76 l 0 205 25 l 0 153 25 l 0
230 410 m 0 230 461 l 0 282 461 l 0 282 410 l 0 230 410 l 0
230 25 m 0 230 76 l 0 282 76 l 0 282 25 l 0 230 25 l 0
307 333 m 0 307 384 l 0 358 384 l 0 358 333 l 0 307 333 l 0
307 102 m 0 307 153 l 0 358 153 l 0 358 102 l 0 307 102 l 0
EndSplineSet
EndChar

StartChar: d
Encoding: 100 100 69
Width: 460
VWidth: 0
Flags: W
LayerCount: 2
Fore
SplineSet
0 333 m 0 0 384 l 0 51 384 l 0 51 333 l 0 0 333 l 0
0 256 m 0 0 307 l 0 51 307 l 0 51 256 l 0 0 256 l 0
0 179 m 0 0 230 l 0 51 230 l 0 51 179 l 0 0 179 l 0
0 102 m 0 0 153 l 0 51 153 l 0 51 102 l 0 0 102 l 0
76 410 m 0 76 461 l 0 128 461 l 0 128 410 l 0 76 410 l 0
76 25 m 0 76 76 l 0 128 76 l 0 128 25 l 0 76 25 l 0
153 410 m 0 153 461 l 0 205 461 l 0 205 410 l 0 153 410 l 0
153 25 m 0 153 76 l 0 205 76 l 0 205 25 l 0 153 25 l 0
230 410 m 0 230 461 l 0 282 461 l 0 282 410 l 0 230 410 l 0
230 25 m 0 230 76 l 0 282 76 l 0 282 25 l 0 230 25 l 0
307 641 m 0 307 692 l 0 358 692 l 0 358 641 l 0 307 641 l 0
307 564 m 0 307 615 l 0 358 615 l 0 358 564 l 0 307 564 l 0
307 487 m 0 307 538 l 0 358 538 l 0 358 487 l 0 307 487 l 0
307 410 m 0 307 461 l 0 358 461 l 0 358 410 l 0 307 410 l 0
307 333 m 0 307 384 l 0 358 384 l 0 358 333 l 0 307 333 l 0
307 256 m 0 307 307 l 0 358 307 l 0 358 256 l 0 307 256 l 0
307 179 m 0 307 230 l 0 358 230 l 0 358 179 l 0 307 179 l 0
307 102 m 0 307 153 l 0 358 153 l 0 358 102 l 0 307 102 l 0
307 25 m 0 307 76 l 0 358 76 l 0 358 25 l 0 307 25 l 0
EndSplineSet
EndChar

StartChar: e
Encoding: 101 101 70
Width: 460
VWidth: 0
Flags: W
LayerCount: 2
Fore
SplineSet
0 333 m 0 0 384 l 0 51 384 l 0 51 333 l 0 0 333 l 0
0 256 m 0 0 307 l 0 51 307 l 0 51 256 l 0 0 256 l 0
0 179 m 0 0 230 l 0 51 230 l 0 51 179 l 0 0 179 l 0
0 102 m 0 0 153 l 0 51 153 l 0 51 102 l 0 0 102 l 0
76 410 m 0 76 461 l 0 128 461 l 0 128 410 l 0 76 410 l 0
76 256 m 0 76 307 l 0 128 307 l 0 128 256 l 0 76 256 l 0
76 25 m 0 76 76 l 0 128 76 l 0 128 25 l 0 76 25 l 0
153 410 m 0 153 461 l 0 205 461 l 0 205 410 l 0 153 410 l 0
153 256 m 0 153 307 l 0 205 307 l 0 205 256 l 0 153 256 l 0
153 25 m 0 153 76 l 0 205 76 l 0 205 25 l 0 153 25 l 0
230 410 m 0 230 461 l 0 282 461 l 0 282 410 l 0 230 410 l 0
230 256 m 0 230 307 l 0 282 307 l 0 282 256 l 0 230 256 l 0
230 25 m 0 230 76 l 0 282 76 l 0 282 25 l 0 230 25 l 0
307 333 m 0 307 384 l 0 358 384 l 0 358 333 l 0 307 333 l 0
307 256 m 0 307 307 l 0 358 307 l 0 358 256 l 0 307 256 l 0
307 102 m 0 307 153 l 0 358 153 l 0 358 102 l 0 307 102 l 0
EndSplineSet
EndChar

StartChar: f
Encoding: 102 102 71
Width: 460
VWidth: 0
Flags: W
LayerCount: 2
Fore
SplineSet
0 333 m 0 0 384 l 0 51 384 l 0 51 333 l 0 0 333 l 0
76 564 m 0 76 615 l 0 128 615 l 0 128 564 l 0 76 564 l 0
76 487 m 0 76 538 l 0 128 538 l 0 128 487 l 0 76 487 l 0
76 410 m 0 76 461 l 0 128 461 l 0 128 410 l 0 76 410 l 0
76 333 m 0 76 384 l 0 128 384 l 0 128 333 l 0 76 333 l 0
76 256 m 0 76 307 l 0 128 307 l 0 128 256 l 0 76 256 l 0
76 179 m 0 76 230 l 0 128 230 l 0 128 179 l 0 76 179 l 0
76 102 m 0 76 153 l 0 128 153 l 0 128 102 l 0 76 102 l 0
76 25 m 0 76 76 l 0 128 76 l 0 128 25 l 0 76 25 l 0
153 641 m 0 153 692 l 0 205 692 l 0 205 641 l 0 153 641 l 0
153 333 m 0 153 384 l 0 205 384 l 0 205 333 l 0 153 333 l 0
230 641 m 0 230 692 l 0 282 692 l 0 282 641 l 0 230 641 l 0
230 333 m 0 230 384 l 0 282 384 l 0 282 333 l 0 230 333 l 0
307 564 m 0 307 615 l 0 358 615 l 0 358 564 l 0 307 564 l 0
EndSplineSet
EndChar

StartChar: g
Encoding: 103 103 72
Width: 460
VWidth: 0
Flags: W
LayerCount: 2
Fore
SplineSet
0 333 m 0 0 384 l 0 51 384 l 0 51 333 l 0 0 333 l 0
0 256 m 0 0 307 l 0 51 307 l 0 51 256 l 0 0 256 l 0
0 179 m 0 0 230 l 0 51 230 l 0 51 179 l 0 0 179 l 0
0 -51 m 0 0 0 l 0 51 0 l 0 51 -51 l 0 0 -51 l 0
76 410 m 0 76 461 l 0 128 461 l 0 128 410 l 0 76 410 l 0
76 102 m 0 76 153 l 0 128 153 l 0 128 102 l 0 76 102 l 0
76 -128 m 0 76 -76 l 0 128 -76 l 0 128 -128 l 0 76 -128 l 0
153 410 m 0 153 461 l 0 205 461 l 0 205 410 l 0 153 410 l 0
153 102 m 0 153 153 l 0 205 153 l 0 205 102 l 0 153 102 l 0
153 -128 m 0 153 -76 l 0 205 -76 l 0 205 -128 l 0 153 -128 l 0
230 410 m 0 230 461 l 0 282 461 l 0 282 410 l 0 230 410 l 0
230 102 m 0 230 153 l 0 282 153 l 0 282 102 l 0 230 102 l 0
230 -128 m 0 230 -76 l 0 282 -76 l 0 282 -128 l 0 230 -128 l 0
307 333 m 0 307 384 l 0 358 384 l 0 358 333 l 0 307 333 l 0
307 256 m 0 307 307 l 0 358 307 l 0 358 256 l 0 307 256 l 0
307 179 m 0 307 230 l 0 358 230 l 0 358 179 l 0 307 179 l 0
307 102 m 0 307 153 l 0 358 153 l 0 358 102 l 0 307 102 l 0
307 25 m 0 307 76 l 0 358 76 l 0 358 25 l 0 307 25 l 0
307 -51 m 0 307 0 l 0 358 0 l 0 358 -51 l 0 307 -51 l 0
EndSplineSet
EndChar

StartChar: h
Encoding: 104 104 73
Width: 460
VWidth: 0
Flags: W
LayerCount: 2
Fore
SplineSet
0 641 m 0 0 692 l 0 51 692 l 0 51 641 l 0 0 641 l 0
0 564 m 0 0 615 l 0 51 615 l 0 51 564 l 0 0 564 l 0
0 487 m 0 0 538 l 0 51 538 l 0 51 487 l 0 0 487 l 0
0 410 m 0 0 461 l 0 51 461 l 0 51 410 l 0 0 410 l 0
0 333 m 0 0 384 l 0 51 384 l 0 51 333 l 0 0 333 l 0
0 256 m 0 0 307 l 0 51 307 l 0 51 256 l 0 0 256 l 0
0 179 m 0 0 230 l 0 51 230 l 0 51 179 l 0 0 179 l 0
0 102 m 0 0 153 l 0 51 153 l 0 51 102 l 0 0 102 l 0
0 25 m 0 0 76 l 0 51 76 l 0 51 25 l 0 0 25 l 0
76 333 m 0 76 384 l 0 128 384 l 0 128 333 l 0 76 333 l 0
153 410 m 0 153 461 l 0 205 461 l 0 205 410 l 0 153 410 l 0
230 410 m 0 230 461 l 0 282 461 l 0 282 410 l 0 230 410 l 0
307 333 m 0 307 384 l 0 358 384 l 0 358 333 l 0 307 333 l 0
307 256 m 0 307 307 l 0 358 307 l 0 358 256 l 0 307 256 l 0
307 179 m 0 307 230 l 0 358 230 l 0 358 179 l 0 307 179 l 0
307 102 m 0 307 153 l 0 358 153 l 0 358 102 l 0 307 102 l 0
307 25 m 0 307 76 l 0 358 76 l 0 358 25 l 0 307 25 l 0
EndSplineSet
EndChar

StartChar: i
Encoding: 105 105 74
Width: 460
VWidth: 0
Flags: W
LayerCount: 2
Fore
SplineSet
76 410 m 0 76 461 l 0 128 461 l 0 128 410 l 0 76 410 l 0
76 25 m 0 76 76 l 0 128 76 l 0 128 25 l 0 76 25 l 0
153 564 m 0 153 615 l 0 205 615 l 0 205 564 l 0 153 564 l 0
153 410 m 0 153 461 l 0 205 461 l 0 205 410 l 0 153 410 l 0
153 333 m 0 153 384 l 0 205 384 l 0 205 333 l 0 153 333 l 0
153 256 m 0 153 307 l 0 205 307 l 0 205 256 l 0 153 256 l 0
153 179 m 0 153 230 l 0 205 230 l 0 205 179 l 0 153 179 l 0
153 102 m 0 153 153 l 0 205 153 l 0 205 102 l 0 153 102 l 0
153 25 m 0 153 76 l 0 205 76 l 0 205 25 l 0 153 25 l 0
230 25 m 0 230 76 l 0 282 76 l 0 282 25 l 0 230 25 l 0
EndSplineSet
EndChar

StartChar: j
Encoding: 106 106 75
Width: 460
VWidth: 0
Flags: W
LayerCount: 2
Fore
SplineSet
0 25 m 0 0 76 l 0 51 76 l 0 51 25 l 0 0 25 l 0
0 -51 m 0 0 0 l 0 51 0 l 0 51 -51 l 0 0 -51 l 0
76 -128 m 0 76 -76 l 0 128 -76 l 0 128 -128 l 0 76 -128 l 0
153 410 m 0 153 461 l 0 205 461 l 0 205 410 l 0 153 410 l 0
153 -128 m 0 153 -76 l 0 205 -76 l 0 205 -128 l 0 153 -128 l 0
230 564 m 0 230 615 l 0 282 615 l 0 282 564 l 0 230 564 l 0
230 410 m 0 230 461 l 0 282 461 l 0 282 410 l 0 230 410 l 0
230 333 m 0 230 384 l 0 282 384 l 0 282 333 l 0 230 333 l 0
230 256 m 0 230 307 l 0 282 307 l 0 282 256 l 0 230 256 l 0
230 179 m 0 230 230 l 0 282 230 l 0 282 179 l 0 230 179 l 0
230 102 m 0 230 153 l 0 282 153 l 0 282 102 l 0 230 102 l 0
230 25 m 0 230 76 l 0 282 76 l 0 282 25 l 0 230 25 l 0
230 -51 m 0 230 0 l 0 282 0 l 0 282 -51 l 0 230 -51 l 0
EndSplineSet
EndChar

StartChar: k
Encoding: 107 107 76
Width: 460
VWidth: 0
Flags: W
LayerCount: 2
Fore
SplineSet
0 641 m 0 0 692 l 0 51 692 l 0 51 641 l 0 0 641 l 0
0 564 m 0 0 615 l 0 51 615 l 0 51 564 l 0 0 564 l 0
0 487 m 0 0 538 l 0 51 538 l 0 51 487 l 0 0 487 l 0
0 410 m 0 0 461 l 0 51 461 l 0 51 410 l 0 0 410 l 0
0 333 m 0 0 384 l 0 51 384 l 0 51 333 l 0 0 333 l 0
0 256 m 0 0 307 l 0 51 307 l 0 51 256 l 0 0 256 l 0
0 179 m 0 0 230 l 0 51 230 l 0 51 179 l 0 0 179 l 0
0 102 m 0 0 153 l 0 51 153 l 0 51 102 l 0 0 102 l 0
0 25 m 0 0 76 l 0 51 76 l 0 51 25 l 0 0 25 l 0
76 256 m 0 76 307 l 0 128 307 l 0 128 256 l 0 76 256 l 0
153 333 m 0 153 384 l 0 205 384 l 0 205 333 l 0 153 333 l 0
153 179 m 0 153 230 l 0 205 230 l 0 205 179 l 0 153 179 l 0
230 410 m 0 230 461 l 0 282 461 l 0 282 410 l 0 230 410 l 0
230 102 m 0 230 153 l 0 282 153 l 0 282 102 l 0 230 102 l 0
307 25 m 0 307 76 l 0 358 76 l 0 358 25 l 0 307 25 l 0
EndSplineSet
EndChar

StartChar: l
Encoding: 108 108 77
Width: 460
VWidth: 0
Flags: W
LayerCount: 2
Fore
SplineSet
76 641 m 0 76 692 l 0 128 692 l 0 128 641 l 0 76 641 l 0
76 25 m 0 76 76 l 0 128 76 l 0 128 25 l 0 76 25 l 0
153 641 m 0 153 692 l 0 205 692 l 0 205 641 l 0 153 641 l 0
153 564 m 0 153 615 l 0 205 615 l 0 205 564 l 0 153 564 l 0
153 487 m 0 153 538 l 0 205 538 l 0 205 487 l 0 153 487 l 0
153 410 m 0 153 461 l 0 205 461 l 0 205 410 l 0 153 410 l 0
153 333 m 0 153 384 l 0 205 384 l 0 205 333 l 0 153 333 l 0
153 256 m 0 153 307 l 0 205 307 l 0 205 256 l 0 153 256 l 0
153 179 m 0 153 230 l 0 205 230 l 0 205 179 l 0 153 179 l 0
153 102 m 0 153 153 l 0 205 153 l 0 205 102 l 0 153 102 l 0
153 25 m 0 153 76 l 0 205 76 l 0 205 25 l 0 153 25 l 0
230 25 m 0 230 76 l 0 282 76 l 0 282 25 l 0 230 25 l 0
EndSplineSet
EndChar

StartChar: m
Encoding: 109 109 78
Width: 460
VWidth: 0
Flags: W
LayerCount: 2
Fore
SplineSet
0 410 m 0 0 461 l 0 51 461 l 0 51 410 l 0 0 410 l 0
0 333 m 0 0 384 l 0 51 384 l 0 51 333 l 0 0 333 l 0
0 256 m 0 0 307 l 0 51 307 l 0 51 256 l 0 0 256 l 0
0 179 m 0 0 230 l 0 51 230 l 0 51 179 l 0 0 179 l 0
0 102 m 0 0 153 l 0 51 153 l 0 51 102 l 0 0 102 l 0
0 25 m 0 0 76 l 0 51 76 l 0 51 25 l 0 0 25 l 0
76 410 m 0 76 461 l 0 128 461 l 0 128 410 l 0 76 410 l 0
153 333 m 0 153 384 l 0 205 384 l 0 205 333 l 0 153 333 l 0
153 256 m 0 153 307 l 0 205 307 l 0 205 256 l 0 153 256 l 0
153 179 m 0 153 230 l 0 205 230 l 0 205 179 l 0 153 179 l 0
153 102 m 0 153 153 l 0 205 153 l 0 205 102 l 0 153 102 l 0
230 410 m 0 230 461 l 0 282 461 l 0 282 410 l 0 230 410 l 0
307 333 m 0 307 384 l 0 358 384 l 0 358 333 l 0 307 333 l 0
307 256 m 0 307 307 l 0 358 307 l 0 358 256 l 0 307 256 l 0
307 179 m 0 307 230 l 0 358 230 l 0 358 179 l 0 307 179 l 0
307 102 m 0 307 153 l 0 358 153 l 0 358 102 l 0 307 102 l 0
307 25 m 0 307 76 l 0 358 76 l 0 358 25 l 0 307 25 l 0
EndSplineSet
EndChar

StartChar: n
Encoding: 110 110 79
Width: 460
VWidth: 0
Flags: W
LayerCount: 2
Fore
SplineSet
0 410 m 0 0 461 l 0 51 461 l 0 51 410 l 0 0 410 l 0
0 333 m 0 0 384 l 0 51 384 l 0 51 333 l 0 0 333 l 0
0 256 m 0 0 307 l 0 51 307 l 0 51 256 l 0 0 256 l 0
0 179 m 0 0 230 l 0 51 230 l 0 51 179 l 0 0 179 l 0
0 102 m 0 0 153 l 0 51 153 l 0 51 102 l 0 0 102 l 0
0 25 m 0 0 76 l 0 51 76 l 0 51 25 l 0 0 25 l 0
76 333 m 0 76 384 l 0 128 384 l 0 128 333 l 0 76 333 l 0
153 410 m 0 153 461 l 0 205 461 l 0 205 410 l 0 153 410 l 0
230 410 m 0 230 461 l 0 282 461 l 0 282 410 l 0 230 410 l 0
307 333 m 0 307 384 l 0 358 384 l 0 358 333 l 0 307 333 l 0
307 256 m 0 307 307 l 0 358 307 l 0 358 256 l 0 307 256 l 0
307 179 m 0 307 230 l 0 358 230 l 0 358 179 l 0 307 179 l 0
307 102 m 0 307 153 l 0 358 153 l 0 358 102 l 0 307 102 l 0
307 25 m 0 307 76 l 0 358 76 l 0 358 25 l 0 307 25 l 0
EndSplineSet
EndChar

StartChar: o
Encoding: 111 111 80
Width: 460
VWidth: 0
Flags: W
LayerCount: 2
Fore
SplineSet
0 333 m 0 0 384 l 0 51 384 l 0 51 333 l 0 0 333 l 0
0 256 m 0 0 307 l 0 51 307 l 0 51 256 l 0 0 256 l 0
0 179 m 0 0 230 l 0 51 230 l 0 51 179 l 0 0 179 l 0
0 102 m 0 0 153 l 0 51 153 l 0 51 102 l 0 0 102 l 0
76 410 m 0 76 461 l 0 128 461 l 0 128 410 l 0 76 410 l 0
76 25 m 0 76 76 l 0 128 76 l 0 128 25 l 0 76 25 l 0
153 410 m 0 153 461 l 0 205 461 l 0 205 410 l 0 153 410 l 0
153 25 m 0 153 76 l 0 205 76 l 0 205 25 l 0 153 25 l 0
230 410 m 0 230 461 l 0 282 461 l 0 282 410 l 0 230 410 l 0
230 25 m 0 230 76 l 0 282 76 l 0 282 25 l 0 230 25 l 0
307 333 m 0 307 384 l 0 358 384 l 0 358 333 l 0 307 333 l 0
307 256 m 0 307 307 l 0 358 307 l 0 358 256 l 0 307 256 l 0
307 179 m 0 307 230 l 0 358 230 l 0 358 179 l 0 307 179 l 0
307 102 m 0 307 153 l 0 358 153 l 0 358 102 l 0 307 102 l 0
EndSplineSet
EndChar

StartChar: p
Encoding: 112 112 81
Width: 460
VWidth: 0
Flags: W
LayerCount: 2
Fore
SplineSet
0 410 m 0 0 461 l 0 51 461 l 0 51 410 l 0 0 410 l 0
0 333 m 0 0 384 l 0 51 384 l 0 51 333 l 0 0 333 l 0
0 256 m 0 0 307 l 0 51 307 l 0 51 256 l 0 0 256 l 0
0 179 m 0 0 230 l 0 51 230 l 0 51 179 l 0 0 179 l 0
0 102 m 0 0 153 l 0 51 153 l 0 51 102 l 0 0 102 l 0
0 25 m 0 0 76 l 0 51 76 l 0 51 25 l 0 0 25 l 0
0 -51 m 0 0 0 l 0 51 0 l 0 51 -51 l 0 0 -51 l 0
0 -128 m 0 0 -76 l 0 51 -76 l 0 51 -128 l 0 0 -128 l 0
76 410 m 0 76 461 l 0 128 461 l 0 128 410 l 0 76 410 l 0
76 102 m 0 76 153 l 0 128 153 l 0 128 102 l 0 76 102 l 0
153 410 m 0 153 461 l 0 205 461 l 0 205 410 l 0 153 410 l 0
153 102 m 0 153 153 l 0 205 153 l 0 205 102 l 0 153 102 l 0
230 410 m 0 230 461 l 0 282 461 l 0 282 410 l 0 230 410 l 0
230 102 m 0 230 153 l 0 282 153 l 0 282 102 l 0 230 102 l 0
307 333 m 0 307 384 l 0 358 384 l 0 358 333 l 0 307 333 l 0
307 256 m 0 307 307 l 0 358 307 l 0 358 256 l 0 307 256 l 0
307 179 m 0 307 230 l 0 358 230 l 0 358 179 l 0 307 179 l 0
EndSplineSet
EndChar

StartChar: q
Encoding: 113 113 82
Width: 460
VWidth: 0
Flags: W
LayerCount: 2
Fore
SplineSet
0 333 m 0 0 384 l 0 51 384 l 0 51 333 l 0 0 333 l 0
0 256 m 0 0 307 l 0 51 307 l 0 51 256 l 0 0 256 l 0
0 179 m 0 0 230 l 0 51 230 l 0 51 179 l 0 0 179 l 0
76 410 m 0 76 461 l 0 128 461 l 0 128 410 l 0 76 410 l 0
76 102 m 0 76 153 l 0 128 153 l 0 128 102 l 0 76 102 l 0
153 410 m 0 153 461 l 0 205 461 l 0 205 410 l 0 153 410 l 0
153 102 m 0 153 153 l 0 205 153 l 0 205 102 l 0 153 102 l 0
230 410 m 0 230 461 l 0 282 461 l 0 282 410 l 0 230 410 l 0
230 102 m 0 230 153 l 0 282 153 l 0 282 102 l 0 230 102 l 0
307 410 m 0 307 461 l 0 358 461 l 0 358 410 l 0 307 410 l 0
307 333 m 0 307 384 l 0 358 384 l 0 358 333 l 0 307 333 l 0
307 256 m 0 307 307 l 0 358 307 l 0 358 256 l 0 307 256 l 0
307 179 m 0 307 230 l 0 358 230 l 0 358 179 l 0 307 179 l 0
307 102 m 0 307 153 l 0 358 153 l 0 358 102 l 0 307 102 l 0
307 25 m 0 307 76 l 0 358 76 l 0 358 25 l 0 307 25 l 0
307 -51 m 0 307 0 l 0 358 0 l 0 358 -51 l 0 307 -51 l 0
307 -128 m 0 307 -76 l 0 358 -76 l 0 358 -128 l 0 307 -128 l 0
EndSplineSet
EndChar

StartChar: r
Encoding: 114 114 83
Width: 460
VWidth: 0
Flags: W
LayerCount: 2
Fore
SplineSet
0 410 m 0 0 461 l 0 51 461 l 0 51 410 l 0 0 410 l 0
0 333 m 0 0 384 l 0 51 384 l 0 51 333 l 0 0 333 l 0
0 256 m 0 0 307 l 0 51 307 l 0 51 256 l 0 0 256 l 0
0 179 m 0 0 230 l 0 51 230 l 0 51 179 l 0 0 179 l 0
0 102 m 0 0 153 l 0 51 153 l 0 51 102 l 0 0 102 l 0
0 25 m 0 0 76 l 0 51 76 l 0 51 25 l 0 0 25 l 0
76 333 m 0 76 384 l 0 128 384 l 0 128 333 l 0 76 333 l 0
153 410 m 0 153 461 l 0 205 461 l 0 205 410 l 0 153 410 l 0
230 410 m 0 230 461 l 0 282 461 l 0 282 410 l 0 230 410 l 0
307 333 m 0 307 384 l 0 358 384 l 0 358 333 l 0 307 333 l 0
EndSplineSet
EndChar

StartChar: s
Encoding: 115 115 84
Width: 460
VWidth: 0
Flags: W
LayerCount: 2
Fore
SplineSet
0 333 m 0 0 384 l 0 51 384 l 0 51 333 l 0 0 333 l 0
0 102 m 0 0 153 l 0 51 153 l 0 51 102 l 0 0 102 l 0
76 410 m 0 76 461 l 0 128 461 l 0 128 410 l 0 76 410 l 0
76 256 m 0 76 307 l 0 128 307 l 0 128 256 l 0 76 256 l 0
76 25 m 0 76 76 l 0 128 76 l 0 128 25 l 0 76 25 l 0
153 410 m 0 153 461 l 0 205 461 l 0 205 410 l 0 153 410 l 0
153 256 m 0 153 307 l 0 205 307 l 0 205 256 l 0 153 256 l 0
153 25 m 0 153 76 l 0 205 76 l 0 205 25 l 0 153 25 l 0
230 410 m 0 230 461 l 0 282 461 l 0 282 410 l 0 230 410 l 0
230 179 m 0 230 230 l 0 282 230 l 0 282 179 l 0 230 179 l 0
230 25 m 0 230 76 l 0 282 76 l 0 282 25 l 0 230 25 l 0
307 333 m 0 307 384 l 0 358 384 l 0 358 333 l 0 307 333 l 0
307 102 m 0 307 153 l 0 358 153 l 0 358 102 l 0 307 102 l 0
EndSplineSet
EndChar

StartChar: t
Encoding: 116 116 85
Width: 460
VWidth: 0
Flags: W
LayerCount: 2
Fore
SplineSet
0 410 m 0 0 461 l 0 51 461 l 0 51 410 l 0 0 410 l 0
76 564 m 0 76 615 l 0 128 615 l 0 128 564 l 0 76 564 l 0
76 487 m 0 76 538 l 0 128 538 l 0 128 487 l 0 76 487 l 0
76 410 m 0 76 461 l 0 128 461 l 0 128 410 l 0 76 410 l 0
76 333 m 0 76 384 l 0 128 384 l 0 128 333 l 0 76 333 l 0
76 256 m 0 76 307 l 0 128 307 l 0 128 256 l 0 76 256 l 0
76 179 m 0 76 230 l 0 128 230 l 0 128 179 l 0 76 179 l 0
76 102 m 0 76 153 l 0 128 153 l 0 128 102 l 0 76 102 l 0
153 410 m 0 153 461 l 0 205 461 l 0 205 410 l 0 153 410 l 0
153 25 m 0 153 76 l 0 205 76 l 0 205 25 l 0 153 25 l 0
230 410 m 0 230 461 l 0 282 461 l 0 282 410 l 0 230 410 l 0
230 25 m 0 230 76 l 0 282 76 l 0 282 25 l 0 230 25 l 0
307 102 m 0 307 153 l 0 358 153 l 0 358 102 l 0 307 102 l 0
EndSplineSet
EndChar

StartChar: u
Encoding: 117 117 86
Width: 460
VWidth: 0
Flags: W
LayerCount: 2
Fore
SplineSet
0 410 m 0 0 461 l 0 51 461 l 0 51 410 l 0 0 410 l 0
0 333 m 0 0 384 l 0 51 384 l 0 51 333 l 0 0 333 l 0
0 256 m 0 0 307 l 0 51 307 l 0 51 256 l 0 0 256 l 0
0 179 m 0 0 230 l 0 51 230 l 0 51 179 l 0 0 179 l 0
0 102 m 0 0 153 l 0 51 153 l 0 51 102 l 0 0 102 l 0
76 25 m 0 76 76 l 0 128 76 l 0 128 25 l 0 76 25 l 0
153 25 m 0 153 76 l 0 205 76 l 0 205 25 l 0 153 25 l 0
230 102 m 0 230 153 l 0 282 153 l 0 282 102 l 0 230 102 l 0
307 410 m 0 307 461 l 0 358 461 l 0 358 410 l 0 307 410 l 0
307 333 m 0 307 384 l 0 358 384 l 0 358 333 l 0 307 333 l 0
307 256 m 0 307 307 l 0 358 307 l 0 358 256 l 0 307 256 l 0
307 179 m 0 307 230 l 0 358 230 l 0 358 179 l 0 307 179 l 0
307 102 m 0 307 153 l 0 358 153 l 0 358 102 l 0 307 102 l 0
307 25 m 0 307 76 l 0 358 76 l 0 358 25 l 0 307 25 l 0
EndSplineSet
EndChar

StartChar: v
Encoding: 118 118 87
Width: 460
VWidth: 0
Flags: W
LayerCount: 2
Fore
SplineSet
0 410 m 0 0 461 l 0 51 461 l 0 51 410 l 0 0 410 l 0
0 333 m 0 0 384 l 0 51 384 l 0 51 333 l 0 0 333 l 0
0 256 m 0 0 307 l 0 51 307 l 0 51 256 l 0 0 256 l 0
76 179 m 0 76 230 l 0 128 230 l 0 128 179 l 0 76 179 l 0
76 102 m 0 76 153 l 0 128 153 l 0 128 102 l 0 76 102 l 0
153 25 m 0 153 76 l 0 205 76 l 0 205 25 l 0 153 25 l 0
230 179 m 0 230 230 l 0 282 230 l 0 282 179 l 0 230 179 l 0
230 102 m 0 230 153 l 0 282 153 l 0 282 102 l 0 230 102 l 0
307 410 m 0 307 461 l 0 358 461 l 0 358 410 l 0 307 410 l 0
307 333 m 0 307 384 l 0 358 384 l 0 358 333 l 0 307 333 l 0
307 256 m 0 307 307 l 0 358 307 l 0 358 256 l 0 307 256 l 0
EndSplineSet
EndChar

StartChar: w
Encoding: 119 119 88
Width: 460
VWidth: 0
Flags: W
LayerCount: 2
Fore
SplineSet
0 410 m 0 0 461 l 0 51 461 l 0 51 410 l 0 0 410 l 0
0 333 m 0 0 384 l 0 51 384 l 0 51 333 l 0 0 333 l 0
0 256 m 0 0 307 l 0 51 307 l 0 51 256 l 0 0 256 l 0
0 179 m 0 0 230 l 0 51 230 l 0 51 179 l 0 0 179 l 0
0 102 m 0 0 153 l 0 51 153 l 0 51 102 l 0 0 102 l 0
76 25 m 0 76 76 l 0 128 76 l 0 128 25 l 0 76 25 l 0
153 256 m 0 153 307 l 0 205 307 l 0 205 256 l 0 153 256 l 0
153 179 m 0 153 230 l 0 205 230 l 0 205 179 l 0 153 179 l 0
153 102 m 0 153 153 l 0 205 153 l 0 205 102 l 0 153 102 l 0
230 25 m 0 230 76 l 0 282 76 l 0 282 25 l 0 230 25 l 0
307 410 m 0 307 461 l 0 358 461 l 0 358 410 l 0 307 410 l 0
307 333 m 0 307 384 l 0 358 384 l 0 358 333 l 0 307 333 l 0
307 256 m 0 307 307 l 0 358 307 l 0 358 256 l 0 307 256 l 0
307 179 m 0 307 230 l 0 358 230 l 0 358 179 l 0 307 179 l 0
307 102 m 0 307 153 l 0 358 153 l 0 358 102 l 0 307 102 l 0
EndSplineSet
EndChar

StartChar: x
Encoding: 120 120 89
Width: 460
VWidth: 0
Flags: W
LayerCount: 2
Fore
SplineSet
0 410 m 0 0 461 l 0 51 461 l 0 51 410 l 0 0 410 l 0
0 25 m 0 0 76 l 0 51 76 l 0 51 25 l 0 0 25 l 0
76 333 m 0 76 384 l 0 128 384 l 0 128 333 l 0 76 333 l 0
76 102 m 0 76 153 l 0 128 153 l 0 128 102 l 0 76 102 l 0
153 256 m 0 153 307 l 0 205 307 l 0 205 256 l 0 153 256 l 0
153 179 m 0 153 230 l 0 205 230 l 0 205 179 l 0 153 179 l 0
230 333 m 0 230 384 l 0 282 384 l 0 282 333 l 0 230 333 l 0
230 102 m 0 230 153 l 0 282 153 l 0 282 102 l 0 230 102 l 0
307 410 m 0 307 461 l 0 358 461 l 0 358 410 l 0 307 410 l 0
307 25 m 0 307 76 l 0 358 76 l 0 358 25 l 0 307 25 l 0
EndSplineSet
EndChar

StartChar: y
Encoding: 121 121 90
Width: 460
VWidth: 0
Flags: W
LayerCount: 2
Fore
SplineSet
0 410 m 0 0 461 l 0 51 461 l 0 51 410 l 0 0 410 l 0
0 333 m 0 0 384 l 0 51 384 l 0 51 333 l 0 0 333 l 0
0 256 m 0 0 307 l 0 51 307 l 0 51 256 l 0 0 256 l 0
0 179 m 0 0 230 l 0 51 230 l 0 51 179 l 0 0 179 l 0
0 -51 m 0 0 0 l 0 51 0 l 0 51 -51 l 0 0 -51 l 0
76 102 m 0 76 153 l 0 128 153 l 0 128 102 l 0 76 102 l 0
76 -128 m 0 76 -76 l 0 128 -76 l 0 128 -128 l 0 76 -128 l 0
153 102 m 0 153 153 l 0 205 153 l 0 205 102 l 0 153 102 l 0
153 -128 m 0 153 -76 l 0 205 -76 l 0 205 -128 l 0 153 -128 l 0
230 179 m 0 230 230 l 0 282 230 l 0 282 179 l 0 230 179 l 0
230 -128 m 0 230 -76 l 0 282 -76 l 0 282 -128 l 0 230 -128 l 0
307 410 m 0 307 461 l 0 358 461 l 0 358 410 l 0 307 410 l 0
307 333 m 0 307 384 l 0 358 384 l 0 358 333 l 0 307 333 l 0
307 256 m 0 307 307 l 0 358 307 l 0 358 256 l 0 307 256 l 0
307 179 m 0 307 230 l 0 358 230 l 0 358 179 l 0 307 179 l 0
307 102 m 0 307 153 l 0 358 153 l 0 358 102 l 0 307 102 l 0
307 25 m 0 307 76 l 0 358 76 l 0 358 25 l 0 307 25 l 0
307 -51 m 0 307 0 l 0 358 0 l 0 358 -51 l 0 307 -51 l 0
EndSplineSet
EndChar

StartChar: z
Encoding: 122 122 91
Width: 460
VWidth: 0
Flags: W
LayerCount: 2
Fore
SplineSet
0 410 m 0 0 461 l 0 51 461 l 0 51 410 l 0 0 410 l 0
0 102 m 0 0 153 l 0 51 153 l 0 51 102 l 0 0 102 l 0
0 25 m 0 0 76 l 0 51 76 l 0 51 25 l 0 0 25 l 0
76 410 m 0 76 461 l 0 128 461 l 0 128 410 l 0 76 410 l 0
76 179 m 0 76 230 l 0 128 230 l 0 128 179 l 0 76 179 l 0
76 25 m 0 76 76 l 0 128 76 l 0 128 25 l 0 76 25 l 0
153 410 m 0 153 461 l 0 205 461 l 0 205 410 l 0 153 410 l 0
153 256 m 0 153 307 l 0 205 307 l 0 205 256 l 0 153 256 l 0
153 25 m 0 153 76 l 0 205 76 l 0 205 25 l 0 153 25 l 0
230 410 m 0 230 461 l 0 282 461 l 0 282 410 l 0 230 410 l 0
230 333 m 0 230 384 l 0 282 384 l 0 282 333 l 0 230 333 l 0
230 25 m 0 230 76 l 0 282 76 l 0 282 25 l 0 230 25 l 0
307 410 m 0 307 461 l 0 358 461 l 0 358 410 l 0 307 410 l 0
307 25 m 0 307 76 l 0 358 76 l 0 358 25 l 0 307 25 l 0
EndSplineSet
EndChar

StartChar: braceleft
Encoding: 123 123 92
Width: 460
VWidth: 0
Flags: W
LayerCount: 2
Fore
SplineSet
0 333 m 0 0 384 l 0 51 384 l 0 51 333 l 0 0 333 l 0
76 333 m 0 76 384 l 0 128 384 l 0 128 333 l 0 76 333 l 0
153 641 m 0 153 692 l 0 205 692 l 0 205 641 l 0 153 641 l 0
153 564 m 0 153 615 l 0 205 615 l 0 205 564 l 0 153 564 l 0
153 487 m 0 153 538 l 0 205 538 l 0 205 487 l 0 153 487 l 0
153 410 m 0 153 461 l 0 205 461 l 0 205 410 l 0 153 410 l 0
153 256 m 0 153 307 l 0 205 307 l 0 205 256 l 0 153 256 l 0
153 179 m 0 153 230 l 0 205 230 l 0 205 179 l 0 153 179 l 0
153 102 m 0 153 153 l 0 205 153 l 0 205 102 l 0 153 102 l 0
153 25 m 0 153 76 l 0 205 76 l 0 205 25 l 0 153 25 l 0
230 717 m 0 230 769 l 0 282 769 l 0 282 717 l 0 230 717 l 0
230 -51 m 0 230 0 l 0 282 0 l 0 282 -51 l 0 230 -51 l 0
307 717 m 0 307 769 l 0 358 769 l 0 358 717 l 0 307 717 l 0
307 -51 m 0 307 0 l 0 358 0 l 0 358 -51 l 0 307 -51 l 0
EndSplineSet
EndChar

StartChar: bar
Encoding: 124 124 93
Width: 460
VWidth: 0
Flags: W
LayerCount: 2
Fore
SplineSet
153 641 m 0 153 692 l 0 205 692 l 0 205 641 l 0 153 641 l 0
153 564 m 0 153 615 l 0 205 615 l 0 205 564 l 0 153 564 l 0
153 487 m 0 153 538 l 0 205 538 l 0 205 487 l 0 153 487 l 0
153 410 m 0 153 461 l 0 205 461 l 0 205 410 l 0 153 410 l 0
153 333 m 0 153 384 l 0 205 384 l 0 205 333 l 0 153 333 l 0
153 256 m 0 153 307 l 0 205 307 l 0 205 256 l 0 153 256 l 0
153 179 m 0 153 230 l 0 205 230 l 0 205 179 l 0 153 179 l 0
153 102 m 0 153 153 l 0 205 153 l 0 205 102 l 0 153 102 l 0
153 25 m 0 153 76 l 0 205 76 l 0 205 25 l 0 153 25 l 0
EndSplineSet
EndChar

StartChar: braceright
Encoding: 125 125 94
Width: 460
VWidth: 0
Flags: W
LayerCount: 2
Fore
SplineSet
0 717 m 0 0 769 l 0 51 769 l 0 51 717 l 0 0 717 l 0
0 -51 m 0 0 0 l 0 51 0 l 0 51 -51 l 0 0 -51 l 0
76 717 m 0 76 769 l 0 128 769 l 0 128 717 l 0 76 717 l 0
76 -51 m 0 76 0 l 0 128 0 l 0 128 -51 l 0 76 -51 l 0
153 641 m 0 153 692 l 0 205 692 l 0 205 641 l 0 153 641 l 0
153 564 m 0 153 615 l 0 205 615 l 0 205 564 l 0 153 564 l 0
153 487 m 0 153 538 l 0 205 538 l 0 205 487 l 0 153 487 l 0
153 410 m 0 153 461 l 0 205 461 l 0 205 410 l 0 153 410 l 0
153 256 m 0 153 307 l 0 205 307 l 0 205 256 l 0 153 256 l 0
153 179 m 0 153 230 l 0 205 230 l 0 205 179 l 0 153 179 l 0
153 102 m 0 153 153 l 0 205 153 l 0 205 102 l 0 153 102 l 0
153 25 m 0 153 76 l 0 205 76 l 0 205 25 l 0 153 25 l 0
230 333 m 0 230 384 l 0 282 384 l 0 282 333 l 0 230 333 l 0
307 333 m 0 307 384 l 0 358 384 l 0 358 333 l 0 307 333 l 0
EndSplineSet
EndChar

StartChar: asciitilde
Encoding: 126 126 95
Width: 460
VWidth: 0
Flags: W
LayerCount: 2
Fore
SplineSet
0 564 m 0 0 615 l 0 51 615 l 0 51 564 l 0 0 564 l 0
0 487 m 0 0 538 l 0 51 538 l 0 51 487 l 0 0 487 l 0
76 641 m 0 76 692 l 0 128 692 l 0 128 641 l 0 76 641 l 0
153 564 m 0 153 615 l 0 205 615 l 0 205 564 l 0 153 564 l 0
230 487 m 0 230 538 l 0 282 538 l 0 282 487 l 0 230 487 l 0
307 641 m 0 307 692 l 0 358 692 l 0 358 641 l 0 307 641 l 0
307 564 m 0 307 615 l 0 358 615 l 0 358 564 l 0 307 564 l 0
EndSplineSet
EndChar

StartChar: nobreakspace
Encoding: 160 160 96
Width: 460
VWidth: 0
Flags: W
LayerCount: 2
Fore
SplineSet
EndSplineSet
EndChar

StartChar: exclamdown
Encoding: 161 161 97
Width: 460
VWidth: 0
Flags: W
LayerCount: 2
Fore
SplineSet
153 641 m 0 153 692 l 0 205 692 l 0 205 641 l 0 153 641 l 0
153 487 m 0 153 538 l 0 205 538 l 0 205 487 l 0 153 487 l 0
153 410 m 0 153 461 l 0 205 461 l 0 205 410 l 0 153 410 l 0
153 333 m 0 153 384 l 0 205 384 l 0 205 333 l 0 153 333 l 0
153 256 m 0 153 307 l 0 205 307 l 0 205 256 l 0 153 256 l 0
153 179 m 0 153 230 l 0 205 230 l 0 205 179 l 0 153 179 l 0
153 102 m 0 153 153 l 0 205 153 l 0 205 102 l 0 153 102 l 0
153 25 m 0 153 76 l 0 205 76 l 0 205 25 l 0 153 25 l 0
EndSplineSet
EndChar

StartChar: cent
Encoding: 162 162 98
Width: 460
VWidth: 0
Flags: W
LayerCount: 2
Fore
SplineSet
0 487 m 0 0 538 l 0 51 538 l 0 51 487 l 0 0 487 l 0
0 410 m 0 0 461 l 0 51 461 l 0 51 410 l 0 0 410 l 0
0 333 m 0 0 384 l 0 51 384 l 0 51 333 l 0 0 333 l 0
0 256 m 0 0 307 l 0 51 307 l 0 51 256 l 0 0 256 l 0
76 564 m 0 76 615 l 0 128 615 l 0 128 564 l 0 76 564 l 0
76 179 m 0 76 230 l 0 128 230 l 0 128 179 l 0 76 179 l 0
153 641 m 0 153 692 l 0 205 692 l 0 205 641 l 0 153 641 l 0
153 564 m 0 153 615 l 0 205 615 l 0 205 564 l 0 153 564 l 0
153 487 m 0 153 538 l 0 205 538 l 0 205 487 l 0 153 487 l 0
153 410 m 0 153 461 l 0 205 461 l 0 205 410 l 0 153 410 l 0
153 333 m 0 153 384 l 0 205 384 l 0 205 333 l 0 153 333 l 0
153 256 m 0 153 307 l 0 205 307 l 0 205 256 l 0 153 256 l 0
153 179 m 0 153 230 l 0 205 230 l 0 205 179 l 0 153 179 l 0
153 102 m 0 153 153 l 0 205 153 l 0 205 102 l 0 153 102 l 0
230 564 m 0 230 615 l 0 282 615 l 0 282 564 l 0 230 564 l 0
230 179 m 0 230 230 l 0 282 230 l 0 282 179 l 0 230 179 l 0
307 487 m 0 307 538 l 0 358 538 l 0 358 487 l 0 307 487 l 0
307 256 m 0 307 307 l 0 358 307 l 0 358 256 l 0 307 256 l 0
EndSplineSet
EndChar

StartChar: sterling
Encoding: 163 163 99
Width: 460
VWidth: 0
Flags: W
LayerCount: 2
Fore
SplineSet
0 333 m 0 0 384 l 0 51 384 l 0 51 333 l 0 0 333 l 0
0 25 m 0 0 76 l 0 51 76 l 0 51 25 l 0 0 25 l 0
76 564 m 0 76 615 l 0 128 615 l 0 128 564 l 0 76 564 l 0
76 487 m 0 76 538 l 0 128 538 l 0 128 487 l 0 76 487 l 0
76 410 m 0 76 461 l 0 128 461 l 0 128 410 l 0 76 410 l 0
76 333 m 0 76 384 l 0 128 384 l 0 128 333 l 0 76 333 l 0
76 256 m 0 76 307 l 0 128 307 l 0 128 256 l 0 76 256 l 0
76 179 m 0 76 230 l 0 128 230 l 0 128 179 l 0 76 179 l 0
76 102 m 0 76 153 l 0 128 153 l 0 128 102 l 0 76 102 l 0
153 641 m 0 153 692 l 0 205 692 l 0 205 641 l 0 153 641 l 0
153 333 m 0 153 384 l 0 205 384 l 0 205 333 l 0 153 333 l 0
153 25 m 0 153 76 l 0 205 76 l 0 205 25 l 0 153 25 l 0
230 641 m 0 230 692 l 0 282 692 l 0 282 641 l 0 230 641 l 0
230 25 m 0 230 76 l 0 282 76 l 0 282 25 l 0 230 25 l 0
307 564 m 0 307 615 l 0 358 615 l 0 358 564 l 0 307 564 l 0
307 102 m 0 307 153 l 0 358 153 l 0 358 102 l 0 307 102 l 0
EndSplineSet
EndChar

StartChar: currency
Encoding: 164 164 100
Width: 460
VWidth: 0
Flags: W
LayerCount: 2
Fore
SplineSet
0 487 m 0 0 538 l 0 51 538 l 0 51 487 l 0 0 487 l 0
0 102 m 0 0 153 l 0 51 153 l 0 51 102 l 0 0 102 l 0
76 410 m 0 76 461 l 0 128 461 l 0 128 410 l 0 76 410 l 0
76 333 m 0 76 384 l 0 128 384 l 0 128 333 l 0 76 333 l 0
76 256 m 0 76 307 l 0 128 307 l 0 128 256 l 0 76 256 l 0
76 179 m 0 76 230 l 0 128 230 l 0 128 179 l 0 76 179 l 0
153 410 m 0 153 461 l 0 205 461 l 0 205 410 l 0 153 410 l 0
153 179 m 0 153 230 l 0 205 230 l 0 205 179 l 0 153 179 l 0
230 410 m 0 230 461 l 0 282 461 l 0 282 410 l 0 230 410 l 0
230 333 m 0 230 384 l 0 282 384 l 0 282 333 l 0 230 333 l 0
230 256 m 0 230 307 l 0 282 307 l 0 282 256 l 0 230 256 l 0
230 179 m 0 230 230 l 0 282 230 l 0 282 179 l 0 230 179 l 0
307 487 m 0 307 538 l 0 358 538 l 0 358 487 l 0 307 487 l 0
307 102 m 0 307 153 l 0 358 153 l 0 358 102 l 0 307 102 l 0
EndSplineSet
EndChar

StartChar: yen
Encoding: 165 165 101
Width: 460
VWidth: 0
Flags: W
LayerCount: 2
Fore
SplineSet
0 641 m 0 0 692 l 0 51 692 l 0 51 641 l 0 0 641 l 0
0 564 m 0 0 615 l 0 51 615 l 0 51 564 l 0 0 564 l 0
0 333 m 0 0 384 l 0 51 384 l 0 51 333 l 0 0 333 l 0
0 179 m 0 0 230 l 0 51 230 l 0 51 179 l 0 0 179 l 0
76 487 m 0 76 538 l 0 128 538 l 0 128 487 l 0 76 487 l 0
76 410 m 0 76 461 l 0 128 461 l 0 128 410 l 0 76 410 l 0
76 333 m 0 76 384 l 0 128 384 l 0 128 333 l 0 76 333 l 0
76 179 m 0 76 230 l 0 128 230 l 0 128 179 l 0 76 179 l 0
153 333 m 0 153 384 l 0 205 384 l 0 205 333 l 0 153 333 l 0
153 256 m 0 153 307 l 0 205 307 l 0 205 256 l 0 153 256 l 0
153 179 m 0 153 230 l 0 205 230 l 0 205 179 l 0 153 179 l 0
153 102 m 0 153 153 l 0 205 153 l 0 205 102 l 0 153 102 l 0
153 25 m 0 153 76 l 0 205 76 l 0 205 25 l 0 153 25 l 0
230 487 m 0 230 538 l 0 282 538 l 0 282 487 l 0 230 487 l 0
230 410 m 0 230 461 l 0 282 461 l 0 282 410 l 0 230 410 l 0
230 333 m 0 230 384 l 0 282 384 l 0 282 333 l 0 230 333 l 0
230 179 m 0 230 230 l 0 282 230 l 0 282 179 l 0 230 179 l 0
307 641 m 0 307 692 l 0 358 692 l 0 358 641 l 0 307 641 l 0
307 564 m 0 307 615 l 0 358 615 l 0 358 564 l 0 307 564 l 0
307 333 m 0 307 384 l 0 358 384 l 0 358 333 l 0 307 333 l 0
307 179 m 0 307 230 l 0 358 230 l 0 358 179 l 0 307 179 l 0
EndSplineSet
EndChar

StartChar: brokenbar
Encoding: 166 166 102
Width: 460
VWidth: 0
Flags: W
LayerCount: 2
Fore
SplineSet
153 641 m 0 153 692 l 0 205 692 l 0 205 641 l 0 153 641 l 0
153 564 m 0 153 615 l 0 205 615 l 0 205 564 l 0 153 564 l 0
153 487 m 0 153 538 l 0 205 538 l 0 205 487 l 0 153 487 l 0
153 410 m 0 153 461 l 0 205 461 l 0 205 410 l 0 153 410 l 0
153 256 m 0 153 307 l 0 205 307 l 0 205 256 l 0 153 256 l 0
153 179 m 0 153 230 l 0 205 230 l 0 205 179 l 0 153 179 l 0
153 102 m 0 153 153 l 0 205 153 l 0 205 102 l 0 153 102 l 0
153 25 m 0 153 76 l 0 205 76 l 0 205 25 l 0 153 25 l 0
EndSplineSet
EndChar

StartChar: section
Encoding: 167 167 103
Width: 460
VWidth: 0
Flags: W
LayerCount: 2
Fore
SplineSet
76 641 m 0 76 692 l 0 128 692 l 0 128 641 l 0 76 641 l 0
76 564 m 0 76 615 l 0 128 615 l 0 128 564 l 0 76 564 l 0
76 410 m 0 76 461 l 0 128 461 l 0 128 410 l 0 76 410 l 0
76 333 m 0 76 384 l 0 128 384 l 0 128 333 l 0 76 333 l 0
76 102 m 0 76 153 l 0 128 153 l 0 128 102 l 0 76 102 l 0
153 717 m 0 153 769 l 0 205 769 l 0 205 717 l 0 153 717 l 0
153 487 m 0 153 538 l 0 205 538 l 0 205 487 l 0 153 487 l 0
153 256 m 0 153 307 l 0 205 307 l 0 205 256 l 0 153 256 l 0
153 25 m 0 153 76 l 0 205 76 l 0 205 25 l 0 153 25 l 0
230 717 m 0 230 769 l 0 282 769 l 0 282 717 l 0 230 717 l 0
230 487 m 0 230 538 l 0 282 538 l 0 282 487 l 0 230 487 l 0
230 256 m 0 230 307 l 0 282 307 l 0 282 256 l 0 230 256 l 0
230 25 m 0 230 76 l 0 282 76 l 0 282 25 l 0 230 25 l 0
307 641 m 0 307 692 l 0 358 692 l 0 358 641 l 0 307 641 l 0
307 410 m 0 307 461 l 0 358 461 l 0 358 410 l 0 307 410 l 0
307 333 m 0 307 384 l 0 358 384 l 0 358 333 l 0 307 333 l 0
307 179 m 0 307 230 l 0 358 230 l 0 358 179 l 0 307 179 l 0
307 102 m 0 307 153 l 0 358 153 l 0 358 102 l 0 307 102 l 0
EndSplineSet
EndChar

StartChar: diaeresis
Encoding: 168 168 104
Width: 460
VWidth: 0
Flags: W
LayerCount: 2
Fore
SplineSet
76 717 m 0 76 769 l 0 128 769 l 0 128 717 l 0 76 717 l 0
76 641 m 0 76 692 l 0 128 692 l 0 128 641 l 0 76 641 l 0
230 717 m 0 230 769 l 0 282 769 l 0 282 717 l 0 230 717 l 0
230 641 m 0 230 692 l 0 282 692 l 0 282 641 l 0 230 641 l 0
EndSplineSet
EndChar

StartChar: copyright
Encoding: 169 169 105
Width: 460
VWidth: 0
Flags: W
LayerCount: 2
Fore
SplineSet
0 641 m 0 0 692 l 0 51 692 l 0 51 641 l 0 0 641 l 0
0 564 m 0 0 615 l 0 51 615 l 0 51 564 l 0 0 564 l 0
0 487 m 0 0 538 l 0 51 538 l 0 51 487 l 0 0 487 l 0
0 410 m 0 0 461 l 0 51 461 l 0 51 410 l 0 0 410 l 0
0 333 m 0 0 384 l 0 51 384 l 0 51 333 l 0 0 333 l 0
0 256 m 0 0 307 l 0 51 307 l 0 51 256 l 0 0 256 l 0
0 179 m 0 0 230 l 0 51 230 l 0 51 179 l 0 0 179 l 0
76 717 m 0 76 769 l 0 128 769 l 0 128 717 l 0 76 717 l 0
76 487 m 0 76 538 l 0 128 538 l 0 128 487 l 0 76 487 l 0
76 410 m 0 76 461 l 0 128 461 l 0 128 410 l 0 76 410 l 0
76 333 m 0 76 384 l 0 128 384 l 0 128 333 l 0 76 333 l 0
76 102 m 0 76 153 l 0 128 153 l 0 128 102 l 0 76 102 l 0
153 717 m 0 153 769 l 0 205 769 l 0 205 717 l 0 153 717 l 0
153 564 m 0 153 615 l 0 205 615 l 0 205 564 l 0 153 564 l 0
153 256 m 0 153 307 l 0 205 307 l 0 205 256 l 0 153 256 l 0
153 102 m 0 153 153 l 0 205 153 l 0 205 102 l 0 153 102 l 0
230 717 m 0 230 769 l 0 282 769 l 0 282 717 l 0 230 717 l 0
230 487 m 0 230 538 l 0 282 538 l 0 282 487 l 0 230 487 l 0
230 333 m 0 230 384 l 0 282 384 l 0 282 333 l 0 230 333 l 0
230 102 m 0 230 153 l 0 282 153 l 0 282 102 l 0 230 102 l 0
307 641 m 0 307 692 l 0 358 692 l 0 358 641 l 0 307 641 l 0
307 564 m 0 307 615 l 0 358 615 l 0 358 564 l 0 307 564 l 0
307 487 m 0 307 538 l 0 358 538 l 0 358 487 l 0 307 487 l 0
307 410 m 0 307 461 l 0 358 461 l 0 358 410 l 0 307 410 l 0
307 333 m 0 307 384 l 0 358 384 l 0 358 333 l 0 307 333 l 0
307 256 m 0 307 307 l 0 358 307 l 0 358 256 l 0 307 256 l 0
307 179 m 0 307 230 l 0 358 230 l 0 358 179 l 0 307 179 l 0
EndSplineSet
EndChar

StartChar: ordfeminine
Encoding: 170 170 106
Width: 460
VWidth: 0
Flags: W
LayerCount: 2
Fore
SplineSet
0 410 m 0 0 461 l 0 51 461 l 0 51 410 l 0 0 410 l 0
0 179 m 0 0 230 l 0 51 230 l 0 51 179 l 0 0 179 l 0
76 641 m 0 76 692 l 0 128 692 l 0 128 641 l 0 76 641 l 0
76 487 m 0 76 538 l 0 128 538 l 0 128 487 l 0 76 487 l 0
76 333 m 0 76 384 l 0 128 384 l 0 128 333 l 0 76 333 l 0
76 179 m 0 76 230 l 0 128 230 l 0 128 179 l 0 76 179 l 0
153 641 m 0 153 692 l 0 205 692 l 0 205 641 l 0 153 641 l 0
153 487 m 0 153 538 l 0 205 538 l 0 205 487 l 0 153 487 l 0
153 333 m 0 153 384 l 0 205 384 l 0 205 333 l 0 153 333 l 0
153 179 m 0 153 230 l 0 205 230 l 0 205 179 l 0 153 179 l 0
230 641 m 0 230 692 l 0 282 692 l 0 282 641 l 0 230 641 l 0
230 487 m 0 230 538 l 0 282 538 l 0 282 487 l 0 230 487 l 0
230 333 m 0 230 384 l 0 282 384 l 0 282 333 l 0 230 333 l 0
230 179 m 0 230 230 l 0 282 230 l 0 282 179 l 0 230 179 l 0
307 564 m 0 307 615 l 0 358 615 l 0 358 564 l 0 307 564 l 0
307 487 m 0 307 538 l 0 358 538 l 0 358 487 l 0 307 487 l 0
307 410 m 0 307 461 l 0 358 461 l 0 358 410 l 0 307 410 l 0
307 333 m 0 307 384 l 0 358 384 l 0 358 333 l 0 307 333 l 0
307 179 m 0 307 230 l 0 358 230 l 0 358 179 l 0 307 179 l 0
EndSplineSet
EndChar

StartChar: guillemotleft
Encoding: 171 171 107
Width: 460
VWidth: 0
Flags: W
LayerCount: 2
Fore
SplineSet
0 333 m 0 0 384 l 0 51 384 l 0 51 333 l 0 0 333 l 0
0 256 m 0 0 307 l 0 51 307 l 0 51 256 l 0 0 256 l 0
76 410 m 0 76 461 l 0 128 461 l 0 128 410 l 0 76 410 l 0
76 179 m 0 76 230 l 0 128 230 l 0 128 179 l 0 76 179 l 0
153 487 m 0 153 538 l 0 205 538 l 0 205 487 l 0 153 487 l 0
153 333 m 0 153 384 l 0 205 384 l 0 205 333 l 0 153 333 l 0
153 256 m 0 153 307 l 0 205 307 l 0 205 256 l 0 153 256 l 0
153 102 m 0 153 153 l 0 205 153 l 0 205 102 l 0 153 102 l 0
230 410 m 0 230 461 l 0 282 461 l 0 282 410 l 0 230 410 l 0
230 179 m 0 230 230 l 0 282 230 l 0 282 179 l 0 230 179 l 0
307 487 m 0 307 538 l 0 358 538 l 0 358 487 l 0 307 487 l 0
307 102 m 0 307 153 l 0 358 153 l 0 358 102 l 0 307 102 l 0
EndSplineSet
EndChar

StartChar: notsign
Encoding: 172 172 108
Width: 460
VWidth: 0
Flags: W
LayerCount: 2
Fore
SplineSet
0 333 m 0 0 384 l 0 51 384 l 0 51 333 l 0 0 333 l 0
76 333 m 0 76 384 l 0 128 384 l 0 128 333 l 0 76 333 l 0
153 333 m 0 153 384 l 0 205 384 l 0 205 333 l 0 153 333 l 0
230 333 m 0 230 384 l 0 282 384 l 0 282 333 l 0 230 333 l 0
307 333 m 0 307 384 l 0 358 384 l 0 358 333 l 0 307 333 l 0
307 256 m 0 307 307 l 0 358 307 l 0 358 256 l 0 307 256 l 0
307 179 m 0 307 230 l 0 358 230 l 0 358 179 l 0 307 179 l 0
EndSplineSet
EndChar

StartChar: hyphen
Encoding: 173 173 109
Width: 460
VWidth: 0
Flags: W
LayerCount: 2
Fore
SplineSet
76 333 m 0 76 384 l 0 128 384 l 0 128 333 l 0 76 333 l 0
153 333 m 0 153 384 l 0 205 384 l 0 205 333 l 0 153 333 l 0
230 333 m 0 230 384 l 0 282 384 l 0 282 333 l 0 230 333 l 0
EndSplineSet
EndChar

StartChar: registered
Encoding: 174 174 110
Width: 460
VWidth: 0
Flags: W
LayerCount: 2
Fore
SplineSet
0 641 m 0 0 692 l 0 51 692 l 0 51 641 l 0 0 641 l 0
0 564 m 0 0 615 l 0 51 615 l 0 51 564 l 0 0 564 l 0
0 487 m 0 0 538 l 0 51 538 l 0 51 487 l 0 0 487 l 0
0 410 m 0 0 461 l 0 51 461 l 0 51 410 l 0 0 410 l 0
0 333 m 0 0 384 l 0 51 384 l 0 51 333 l 0 0 333 l 0
0 256 m 0 0 307 l 0 51 307 l 0 51 256 l 0 0 256 l 0
0 179 m 0 0 230 l 0 51 230 l 0 51 179 l 0 0 179 l 0
76 717 m 0 76 769 l 0 128 769 l 0 128 717 l 0 76 717 l 0
76 564 m 0 76 615 l 0 128 615 l 0 128 564 l 0 76 564 l 0
76 487 m 0 76 538 l 0 128 538 l 0 128 487 l 0 76 487 l 0
76 410 m 0 76 461 l 0 128 461 l 0 128 410 l 0 76 410 l 0
76 333 m 0 76 384 l 0 128 384 l 0 128 333 l 0 76 333 l 0
76 256 m 0 76 307 l 0 128 307 l 0 128 256 l 0 76 256 l 0
76 102 m 0 76 153 l 0 128 153 l 0 128 102 l 0 76 102 l 0
153 717 m 0 153 769 l 0 205 769 l 0 205 717 l 0 153 717 l 0
153 564 m 0 153 615 l 0 205 615 l 0 205 564 l 0 153 564 l 0
153 333 m 0 153 384 l 0 205 384 l 0 205 333 l 0 153 333 l 0
153 102 m 0 153 153 l 0 205 153 l 0 205 102 l 0 153 102 l 0
230 717 m 0 230 769 l 0 282 769 l 0 282 717 l 0 230 717 l 0
230 487 m 0 230 538 l 0 282 538 l 0 282 487 l 0 230 487 l 0
230 410 m 0 230 461 l 0 282 461 l 0 282 410 l 0 230 410 l 0
230 256 m 0 230 307 l 0 282 307 l 0 282 256 l 0 230 256 l 0
230 102 m 0 230 153 l 0 282 153 l 0 282 102 l 0 230 102 l 0
307 641 m 0 307 692 l 0 358 692 l 0 358 641 l 0 307 641 l 0
307 564 m 0 307 615 l 0 358 615 l 0 358 564 l 0 307 564 l 0
307 487 m 0 307 538 l 0 358 538 l 0 358 487 l 0 307 487 l 0
307 410 m 0 307 461 l 0 358 461 l 0 358 410 l 0 307 410 l 0
307 333 m 0 307 384 l 0 358 384 l 0 358 333 l 0 307 333 l 0
307 256 m 0 307 307 l 0 358 307 l 0 358 256 l 0 307 256 l 0
307 179 m 0 307 230 l 0 358 230 l 0 358 179 l 0 307 179 l 0
EndSplineSet
EndChar

StartChar: macron
Encoding: 175 175 111
Width: 460
VWidth: 0
Flags: W
LayerCount: 2
Fore
SplineSet
0 641 m 0 0 692 l 0 51 692 l 0 51 641 l 0 0 641 l 0
76 641 m 0 76 692 l 0 128 692 l 0 128 641 l 0 76 641 l 0
153 641 m 0 153 692 l 0 205 692 l 0 205 641 l 0 153 641 l 0
230 641 m 0 230 692 l 0 282 692 l 0 282 641 l 0 230 641 l 0
307 641 m 0 307 692 l 0 358 692 l 0 358 641 l 0 307 641 l 0
EndSplineSet
EndChar

StartChar: degree
Encoding: 176 176 112
Width: 460
VWidth: 0
Flags: W
LayerCount: 2
Fore
SplineSet
76 564 m 0 76 615 l 0 128 615 l 0 128 564 l 0 76 564 l 0
76 487 m 0 76 538 l 0 128 538 l 0 128 487 l 0 76 487 l 0
153 641 m 0 153 692 l 0 205 692 l 0 205 641 l 0 153 641 l 0
153 410 m 0 153 461 l 0 205 461 l 0 205 410 l 0 153 410 l 0
230 641 m 0 230 692 l 0 282 692 l 0 282 641 l 0 230 641 l 0
230 410 m 0 230 461 l 0 282 461 l 0 282 410 l 0 230 410 l 0
307 564 m 0 307 615 l 0 358 615 l 0 358 564 l 0 307 564 l 0
307 487 m 0 307 538 l 0 358 538 l 0 358 487 l 0 307 487 l 0
EndSplineSet
EndChar

StartChar: plusminus
Encoding: 177 177 113
Width: 460
VWidth: 0
Flags: W
LayerCount: 2
Fore
SplineSet
0 410 m 0 0 461 l 0 51 461 l 0 51 410 l 0 0 410 l 0
0 102 m 0 0 153 l 0 51 153 l 0 51 102 l 0 0 102 l 0
76 410 m 0 76 461 l 0 128 461 l 0 128 410 l 0 76 410 l 0
76 102 m 0 76 153 l 0 128 153 l 0 128 102 l 0 76 102 l 0
153 564 m 0 153 615 l 0 205 615 l 0 205 564 l 0 153 564 l 0
153 487 m 0 153 538 l 0 205 538 l 0 205 487 l 0 153 487 l 0
153 410 m 0 153 461 l 0 205 461 l 0 205 410 l 0 153 410 l 0
153 333 m 0 153 384 l 0 205 384 l 0 205 333 l 0 153 333 l 0
153 256 m 0 153 307 l 0 205 307 l 0 205 256 l 0 153 256 l 0
153 102 m 0 153 153 l 0 205 153 l 0 205 102 l 0 153 102 l 0
230 410 m 0 230 461 l 0 282 461 l 0 282 410 l 0 230 410 l 0
230 102 m 0 230 153 l 0 282 153 l 0 282 102 l 0 230 102 l 0
307 410 m 0 307 461 l 0 358 461 l 0 358 410 l 0 307 410 l 0
307 102 m 0 307 153 l 0 358 153 l 0 358 102 l 0 307 102 l 0
EndSplineSet
EndChar

StartChar: twosuperior
Encoding: 178 178 114
Width: 460
VWidth: 0
Flags: W
LayerCount: 2
Fore
SplineSet
0 641 m 0 0 692 l 0 51 692 l 0 51 641 l 0 0 641 l 0
0 410 m 0 0 461 l 0 51 461 l 0 51 410 l 0 0 410 l 0
76 717 m 0 76 769 l 0 128 769 l 0 128 717 l 0 76 717 l 0
76 487 m 0 76 538 l 0 128 538 l 0 128 487 l 0 76 487 l 0
76 410 m 0 76 461 l 0 128 461 l 0 128 410 l 0 76 410 l 0
153 641 m 0 153 692 l 0 205 692 l 0 205 641 l 0 153 641 l 0
153 564 m 0 153 615 l 0 205 615 l 0 205 564 l 0 153 564 l 0
153 410 m 0 153 461 l 0 205 461 l 0 205 410 l 0 153 410 l 0
EndSplineSet
EndChar

StartChar: threesuperior
Encoding: 179 179 115
Width: 460
VWidth: 0
Flags: W
LayerCount: 2
Fore
SplineSet
0 641 m 0 0 692 l 0 51 692 l 0 51 641 l 0 0 641 l 0
0 410 m 0 0 461 l 0 51 461 l 0 51 410 l 0 0 410 l 0
76 717 m 0 76 769 l 0 128 769 l 0 128 717 l 0 76 717 l 0
76 564 m 0 76 615 l 0 128 615 l 0 128 564 l 0 76 564 l 0
76 410 m 0 76 461 l 0 128 461 l 0 128 410 l 0 76 410 l 0
153 641 m 0 153 692 l 0 205 692 l 0 205 641 l 0 153 641 l 0
153 487 m 0 153 538 l 0 205 538 l 0 205 487 l 0 153 487 l 0
EndSplineSet
EndChar

StartChar: acute
Encoding: 180 180 116
Width: 460
VWidth: 0
Flags: W
LayerCount: 2
Fore
SplineSet
153 641 m 0 153 692 l 0 205 692 l 0 205 641 l 0 153 641 l 0
230 717 m 0 230 769 l 0 282 769 l 0 282 717 l 0 230 717 l 0
EndSplineSet
EndChar

StartChar: mu
Encoding: 181 181 117
Width: 460
VWidth: 0
Flags: W
LayerCount: 2
Fore
SplineSet
0 410 m 0 0 461 l 0 51 461 l 0 51 410 l 0 0 410 l 0
0 333 m 0 0 384 l 0 51 384 l 0 51 333 l 0 0 333 l 0
0 256 m 0 0 307 l 0 51 307 l 0 51 256 l 0 0 256 l 0
0 179 m 0 0 230 l 0 51 230 l 0 51 179 l 0 0 179 l 0
0 102 m 0 0 153 l 0 51 153 l 0 51 102 l 0 0 102 l 0
0 25 m 0 0 76 l 0 51 76 l 0 51 25 l 0 0 25 l 0
0 -51 m 0 0 0 l 0 51 0 l 0 51 -51 l 0 0 -51 l 0
0 -128 m 0 0 -76 l 0 51 -76 l 0 51 -128 l 0 0 -128 l 0
76 25 m 0 76 76 l 0 128 76 l 0 128 25 l 0 76 25 l 0
153 25 m 0 153 76 l 0 205 76 l 0 205 25 l 0 153 25 l 0
230 102 m 0 230 153 l 0 282 153 l 0 282 102 l 0 230 102 l 0
307 410 m 0 307 461 l 0 358 461 l 0 358 410 l 0 307 410 l 0
307 333 m 0 307 384 l 0 358 384 l 0 358 333 l 0 307 333 l 0
307 256 m 0 307 307 l 0 358 307 l 0 358 256 l 0 307 256 l 0
307 179 m 0 307 230 l 0 358 230 l 0 358 179 l 0 307 179 l 0
307 102 m 0 307 153 l 0 358 153 l 0 358 102 l 0 307 102 l 0
307 25 m 0 307 76 l 0 358 76 l 0 358 25 l 0 307 25 l 0
EndSplineSet
EndChar

StartChar: paragraph
Encoding: 182 182 118
Width: 460
VWidth: 0
Flags: W
LayerCount: 2
Fore
SplineSet
0 564 m 0 0 615 l 0 51 615 l 0 51 564 l 0 0 564 l 0
0 487 m 0 0 538 l 0 51 538 l 0 51 487 l 0 0 487 l 0
0 410 m 0 0 461 l 0 51 461 l 0 51 410 l 0 0 410 l 0
0 333 m 0 0 384 l 0 51 384 l 0 51 333 l 0 0 333 l 0
76 641 m 0 76 692 l 0 128 692 l 0 128 641 l 0 76 641 l 0
76 564 m 0 76 615 l 0 128 615 l 0 128 564 l 0 76 564 l 0
76 487 m 0 76 538 l 0 128 538 l 0 128 487 l 0 76 487 l 0
76 410 m 0 76 461 l 0 128 461 l 0 128 410 l 0 76 410 l 0
76 333 m 0 76 384 l 0 128 384 l 0 128 333 l 0 76 333 l 0
76 256 m 0 76 307 l 0 128 307 l 0 128 256 l 0 76 256 l 0
153 641 m 0 153 692 l 0 205 692 l 0 205 641 l 0 153 641 l 0
153 564 m 0 153 615 l 0 205 615 l 0 205 564 l 0 153 564 l 0
153 487 m 0 153 538 l 0 205 538 l 0 205 487 l 0 153 487 l 0
153 410 m 0 153 461 l 0 205 461 l 0 205 410 l 0 153 410 l 0
153 333 m 0 153 384 l 0 205 384 l 0 205 333 l 0 153 333 l 0
153 256 m 0 153 307 l 0 205 307 l 0 205 256 l 0 153 256 l 0
153 179 m 0 153 230 l 0 205 230 l 0 205 179 l 0 153 179 l 0
153 102 m 0 153 153 l 0 205 153 l 0 205 102 l 0 153 102 l 0
153 25 m 0 153 76 l 0 205 76 l 0 205 25 l 0 153 25 l 0
230 641 m 0 230 692 l 0 282 692 l 0 282 641 l 0 230 641 l 0
307 641 m 0 307 692 l 0 358 692 l 0 358 641 l 0 307 641 l 0
307 564 m 0 307 615 l 0 358 615 l 0 358 564 l 0 307 564 l 0
307 487 m 0 307 538 l 0 358 538 l 0 358 487 l 0 307 487 l 0
307 410 m 0 307 461 l 0 358 461 l 0 358 410 l 0 307 410 l 0
307 333 m 0 307 384 l 0 358 384 l 0 358 333 l 0 307 333 l 0
307 256 m 0 307 307 l 0 358 307 l 0 358 256 l 0 307 256 l 0
307 179 m 0 307 230 l 0 358 230 l 0 358 179 l 0 307 179 l 0
307 102 m 0 307 153 l 0 358 153 l 0 358 102 l 0 307 102 l 0
307 25 m 0 307 76 l 0 358 76 l 0 358 25 l 0 307 25 l 0
EndSplineSet
EndChar

StartChar: periodcentered
Encoding: 183 183 119
Width: 460
VWidth: 0
Flags: W
LayerCount: 2
Fore
SplineSet
153 333 m 0 153 384 l 0 205 384 l 0 205 333 l 0 153 333 l 0
230 333 m 0 230 384 l 0 282 384 l 0 282 333 l 0 230 333 l 0
EndSplineSet
EndChar

StartChar: cedilla
Encoding: 184 184 120
Width: 460
VWidth: 0
Flags: W
LayerCount: 2
Fore
SplineSet
153 -128 m 0 153 -76 l 0 205 -76 l 0 205 -128 l 0 153 -128 l 0
230 -51 m 0 230 0 l 0 282 0 l 0 282 -51 l 0 230 -51 l 0
EndSplineSet
EndChar

StartChar: onesuperior
Encoding: 185 185 121
Width: 460
VWidth: 0
Flags: W
LayerCount: 2
Fore
SplineSet
0 641 m 0 0 692 l 0 51 692 l 0 51 641 l 0 0 641 l 0
0 410 m 0 0 461 l 0 51 461 l 0 51 410 l 0 0 410 l 0
76 717 m 0 76 769 l 0 128 769 l 0 128 717 l 0 76 717 l 0
76 641 m 0 76 692 l 0 128 692 l 0 128 641 l 0 76 641 l 0
76 564 m 0 76 615 l 0 128 615 l 0 128 564 l 0 76 564 l 0
76 487 m 0 76 538 l 0 128 538 l 0 128 487 l 0 76 487 l 0
76 410 m 0 76 461 l 0 128 461 l 0 128 410 l 0 76 410 l 0
153 410 m 0 153 461 l 0 205 461 l 0 205 410 l 0 153 410 l 0
EndSplineSet
EndChar

StartChar: masculine
Encoding: 186 186 122
Width: 460
VWidth: 0
Flags: W
LayerCount: 2
Fore
SplineSet
0 564 m 0 0 615 l 0 51 615 l 0 51 564 l 0 0 564 l 0
0 487 m 0 0 538 l 0 51 538 l 0 51 487 l 0 0 487 l 0
0 410 m 0 0 461 l 0 51 461 l 0 51 410 l 0 0 410 l 0
0 179 m 0 0 230 l 0 51 230 l 0 51 179 l 0 0 179 l 0
76 641 m 0 76 692 l 0 128 692 l 0 128 641 l 0 76 641 l 0
76 333 m 0 76 384 l 0 128 384 l 0 128 333 l 0 76 333 l 0
76 179 m 0 76 230 l 0 128 230 l 0 128 179 l 0 76 179 l 0
153 641 m 0 153 692 l 0 205 692 l 0 205 641 l 0 153 641 l 0
153 333 m 0 153 384 l 0 205 384 l 0 205 333 l 0 153 333 l 0
153 179 m 0 153 230 l 0 205 230 l 0 205 179 l 0 153 179 l 0
230 641 m 0 230 692 l 0 282 692 l 0 282 641 l 0 230 641 l 0
230 333 m 0 230 384 l 0 282 384 l 0 282 333 l 0 230 333 l 0
230 179 m 0 230 230 l 0 282 230 l 0 282 179 l 0 230 179 l 0
307 564 m 0 307 615 l 0 358 615 l 0 358 564 l 0 307 564 l 0
307 487 m 0 307 538 l 0 358 538 l 0 358 487 l 0 307 487 l 0
307 410 m 0 307 461 l 0 358 461 l 0 358 410 l 0 307 410 l 0
307 179 m 0 307 230 l 0 358 230 l 0 358 179 l 0 307 179 l 0
EndSplineSet
EndChar

StartChar: guillemotright
Encoding: 187 187 123
Width: 460
VWidth: 0
Flags: W
LayerCount: 2
Fore
SplineSet
0 487 m 0 0 538 l 0 51 538 l 0 51 487 l 0 0 487 l 0
0 102 m 0 0 153 l 0 51 153 l 0 51 102 l 0 0 102 l 0
76 410 m 0 76 461 l 0 128 461 l 0 128 410 l 0 76 410 l 0
76 179 m 0 76 230 l 0 128 230 l 0 128 179 l 0 76 179 l 0
153 487 m 0 153 538 l 0 205 538 l 0 205 487 l 0 153 487 l 0
153 333 m 0 153 384 l 0 205 384 l 0 205 333 l 0 153 333 l 0
153 256 m 0 153 307 l 0 205 307 l 0 205 256 l 0 153 256 l 0
153 102 m 0 153 153 l 0 205 153 l 0 205 102 l 0 153 102 l 0
230 410 m 0 230 461 l 0 282 461 l 0 282 410 l 0 230 410 l 0
230 179 m 0 230 230 l 0 282 230 l 0 282 179 l 0 230 179 l 0
307 333 m 0 307 384 l 0 358 384 l 0 358 333 l 0 307 333 l 0
307 256 m 0 307 307 l 0 358 307 l 0 358 256 l 0 307 256 l 0
EndSplineSet
EndChar

StartChar: onequarter
Encoding: 188 188 124
Width: 460
VWidth: 0
Flags: W
LayerCount: 2
Fore
SplineSet
0 641 m 0 0 692 l 0 51 692 l 0 51 641 l 0 0 641 l 0
0 410 m 0 0 461 l 0 51 461 l 0 51 410 l 0 0 410 l 0
76 717 m 0 76 769 l 0 128 769 l 0 128 717 l 0 76 717 l 0
76 641 m 0 76 692 l 0 128 692 l 0 128 641 l 0 76 641 l 0
76 564 m 0 76 615 l 0 128 615 l 0 128 564 l 0 76 564 l 0
76 487 m 0 76 538 l 0 128 538 l 0 128 487 l 0 76 487 l 0
76 410 m 0 76 461 l 0 128 461 l 0 128 410 l 0 76 410 l 0
153 410 m 0 153 461 l 0 205 461 l 0 205 410 l 0 153 410 l 0
153 179 m 0 153 230 l 0 205 230 l 0 205 179 l 0 153 179 l 0
153 102 m 0 153 153 l 0 205 153 l 0 205 102 l 0 153 102 l 0
230 256 m 0 230 307 l 0 282 307 l 0 282 256 l 0 230 256 l 0
230 102 m 0 230 153 l 0 282 153 l 0 282 102 l 0 230 102 l 0
307 333 m 0 307 384 l 0 358 384 l 0 358 333 l 0 307 333 l 0
307 256 m 0 307 307 l 0 358 307 l 0 358 256 l 0 307 256 l 0
307 179 m 0 307 230 l 0 358 230 l 0 358 179 l 0 307 179 l 0
307 102 m 0 307 153 l 0 358 153 l 0 358 102 l 0 307 102 l 0
307 25 m 0 307 76 l 0 358 76 l 0 358 25 l 0 307 25 l 0
EndSplineSet
EndChar

StartChar: onehalf
Encoding: 189 189 125
Width: 460
VWidth: 0
Flags: W
LayerCount: 2
Fore
SplineSet
0 641 m 0 0 692 l 0 51 692 l 0 51 641 l 0 0 641 l 0
0 410 m 0 0 461 l 0 51 461 l 0 51 410 l 0 0 410 l 0
76 717 m 0 76 769 l 0 128 769 l 0 128 717 l 0 76 717 l 0
76 641 m 0 76 692 l 0 128 692 l 0 128 641 l 0 76 641 l 0
76 564 m 0 76 615 l 0 128 615 l 0 128 564 l 0 76 564 l 0
76 487 m 0 76 538 l 0 128 538 l 0 128 487 l 0 76 487 l 0
76 410 m 0 76 461 l 0 128 461 l 0 128 410 l 0 76 410 l 0
153 410 m 0 153 461 l 0 205 461 l 0 205 410 l 0 153 410 l 0
153 256 m 0 153 307 l 0 205 307 l 0 205 256 l 0 153 256 l 0
153 25 m 0 153 76 l 0 205 76 l 0 205 25 l 0 153 25 l 0
230 333 m 0 230 384 l 0 282 384 l 0 282 333 l 0 230 333 l 0
230 102 m 0 230 153 l 0 282 153 l 0 282 102 l 0 230 102 l 0
230 25 m 0 230 76 l 0 282 76 l 0 282 25 l 0 230 25 l 0
307 256 m 0 307 307 l 0 358 307 l 0 358 256 l 0 307 256 l 0
307 179 m 0 307 230 l 0 358 230 l 0 358 179 l 0 307 179 l 0
307 25 m 0 307 76 l 0 358 76 l 0 358 25 l 0 307 25 l 0
EndSplineSet
EndChar

StartChar: threequarters
Encoding: 190 190 126
Width: 460
VWidth: 0
Flags: W
LayerCount: 2
Fore
SplineSet
0 641 m 0 0 692 l 0 51 692 l 0 51 641 l 0 0 641 l 0
0 410 m 0 0 461 l 0 51 461 l 0 51 410 l 0 0 410 l 0
76 717 m 0 76 769 l 0 128 769 l 0 128 717 l 0 76 717 l 0
76 564 m 0 76 615 l 0 128 615 l 0 128 564 l 0 76 564 l 0
76 333 m 0 76 384 l 0 128 384 l 0 128 333 l 0 76 333 l 0
153 641 m 0 153 692 l 0 205 692 l 0 205 641 l 0 153 641 l 0
153 487 m 0 153 538 l 0 205 538 l 0 205 487 l 0 153 487 l 0
153 410 m 0 153 461 l 0 205 461 l 0 205 410 l 0 153 410 l 0
153 179 m 0 153 230 l 0 205 230 l 0 205 179 l 0 153 179 l 0
153 102 m 0 153 153 l 0 205 153 l 0 205 102 l 0 153 102 l 0
230 256 m 0 230 307 l 0 282 307 l 0 282 256 l 0 230 256 l 0
230 102 m 0 230 153 l 0 282 153 l 0 282 102 l 0 230 102 l 0
307 333 m 0 307 384 l 0 358 384 l 0 358 333 l 0 307 333 l 0
307 256 m 0 307 307 l 0 358 307 l 0 358 256 l 0 307 256 l 0
307 179 m 0 307 230 l 0 358 230 l 0 358 179 l 0 307 179 l 0
307 102 m 0 307 153 l 0 358 153 l 0 358 102 l 0 307 102 l 0
307 25 m 0 307 76 l 0 358 76 l 0 358 25 l 0 307 25 l 0
EndSplineSet
EndChar

StartChar: questiondown
Encoding: 191 191 127
Width: 460
VWidth: 0
Flags: W
LayerCount: 2
Fore
SplineSet
0 256 m 0 0 307 l 0 51 307 l 0 51 256 l 0 0 256 l 0
0 179 m 0 0 230 l 0 51 230 l 0 51 179 l 0 0 179 l 0
0 102 m 0 0 153 l 0 51 153 l 0 51 102 l 0 0 102 l 0
76 333 m 0 76 384 l 0 128 384 l 0 128 333 l 0 76 333 l 0
76 25 m 0 76 76 l 0 128 76 l 0 128 25 l 0 76 25 l 0
153 641 m 0 153 692 l 0 205 692 l 0 205 641 l 0 153 641 l 0
153 487 m 0 153 538 l 0 205 538 l 0 205 487 l 0 153 487 l 0
153 410 m 0 153 461 l 0 205 461 l 0 205 410 l 0 153 410 l 0
153 25 m 0 153 76 l 0 205 76 l 0 205 25 l 0 153 25 l 0
230 25 m 0 230 76 l 0 282 76 l 0 282 25 l 0 230 25 l 0
307 179 m 0 307 230 l 0 358 230 l 0 358 179 l 0 307 179 l 0
307 102 m 0 307 153 l 0 358 153 l 0 358 102 l 0 307 102 l 0
EndSplineSet
EndChar

StartChar: Agrave
Encoding: 192 192 128
Width: 460
VWidth: 0
Flags: W
LayerCount: 2
Fore
SplineSet
0 333 m 0 0 384 l 0 51 384 l 0 51 333 l 0 0 333 l 0
0 256 m 0 0 307 l 0 51 307 l 0 51 256 l 0 0 256 l 0
0 179 m 0 0 230 l 0 51 230 l 0 51 179 l 0 0 179 l 0
0 102 m 0 0 153 l 0 51 153 l 0 51 102 l 0 0 102 l 0
0 25 m 0 0 76 l 0 51 76 l 0 51 25 l 0 0 25 l 0
76 717 m 0 76 769 l 0 128 769 l 0 128 717 l 0 76 717 l 0
76 410 m 0 76 461 l 0 128 461 l 0 128 410 l 0 76 410 l 0
76 179 m 0 76 230 l 0 128 230 l 0 128 179 l 0 76 179 l 0
153 641 m 0 153 692 l 0 205 692 l 0 205 641 l 0 153 641 l 0
153 487 m 0 153 538 l 0 205 538 l 0 205 487 l 0 153 487 l 0
153 179 m 0 153 230 l 0 205 230 l 0 205 179 l 0 153 179 l 0
230 410 m 0 230 461 l 0 282 461 l 0 282 410 l 0 230 410 l 0
230 179 m 0 230 230 l 0 282 230 l 0 282 179 l 0 230 179 l 0
307 333 m 0 307 384 l 0 358 384 l 0 358 333 l 0 307 333 l 0
307 256 m 0 307 307 l 0 358 307 l 0 358 256 l 0 307 256 l 0
307 179 m 0 307 230 l 0 358 230 l 0 358 179 l 0 307 179 l 0
307 102 m 0 307 153 l 0 358 153 l 0 358 102 l 0 307 102 l 0
307 25 m 0 307 76 l 0 358 76 l 0 358 25 l 0 307 25 l 0
EndSplineSet
EndChar

StartChar: Aacute
Encoding: 193 193 129
Width: 460
VWidth: 0
Flags: W
LayerCount: 2
Fore
SplineSet
0 333 m 0 0 384 l 0 51 384 l 0 51 333 l 0 0 333 l 0
0 256 m 0 0 307 l 0 51 307 l 0 51 256 l 0 0 256 l 0
0 179 m 0 0 230 l 0 51 230 l 0 51 179 l 0 0 179 l 0
0 102 m 0 0 153 l 0 51 153 l 0 51 102 l 0 0 102 l 0
0 25 m 0 0 76 l 0 51 76 l 0 51 25 l 0 0 25 l 0
76 410 m 0 76 461 l 0 128 461 l 0 128 410 l 0 76 410 l 0
76 179 m 0 76 230 l 0 128 230 l 0 128 179 l 0 76 179 l 0
153 641 m 0 153 692 l 0 205 692 l 0 205 641 l 0 153 641 l 0
153 487 m 0 153 538 l 0 205 538 l 0 205 487 l 0 153 487 l 0
153 179 m 0 153 230 l 0 205 230 l 0 205 179 l 0 153 179 l 0
230 717 m 0 230 769 l 0 282 769 l 0 282 717 l 0 230 717 l 0
230 410 m 0 230 461 l 0 282 461 l 0 282 410 l 0 230 410 l 0
230 179 m 0 230 230 l 0 282 230 l 0 282 179 l 0 230 179 l 0
307 333 m 0 307 384 l 0 358 384 l 0 358 333 l 0 307 333 l 0
307 256 m 0 307 307 l 0 358 307 l 0 358 256 l 0 307 256 l 0
307 179 m 0 307 230 l 0 358 230 l 0 358 179 l 0 307 179 l 0
307 102 m 0 307 153 l 0 358 153 l 0 358 102 l 0 307 102 l 0
307 25 m 0 307 76 l 0 358 76 l 0 358 25 l 0 307 25 l 0
EndSplineSet
EndChar

StartChar: Acircumflex
Encoding: 194 194 130
Width: 460
VWidth: 0
Flags: W
LayerCount: 2
Fore
SplineSet
0 333 m 0 0 384 l 0 51 384 l 0 51 333 l 0 0 333 l 0
0 256 m 0 0 307 l 0 51 307 l 0 51 256 l 0 0 256 l 0
0 179 m 0 0 230 l 0 51 230 l 0 51 179 l 0 0 179 l 0
0 102 m 0 0 153 l 0 51 153 l 0 51 102 l 0 0 102 l 0
0 25 m 0 0 76 l 0 51 76 l 0 51 25 l 0 0 25 l 0
76 641 m 0 76 692 l 0 128 692 l 0 128 641 l 0 76 641 l 0
76 410 m 0 76 461 l 0 128 461 l 0 128 410 l 0 76 410 l 0
76 179 m 0 76 230 l 0 128 230 l 0 128 179 l 0 76 179 l 0
153 717 m 0 153 769 l 0 205 769 l 0 205 717 l 0 153 717 l 0
153 487 m 0 153 538 l 0 205 538 l 0 205 487 l 0 153 487 l 0
153 179 m 0 153 230 l 0 205 230 l 0 205 179 l 0 153 179 l 0
230 717 m 0 230 769 l 0 282 769 l 0 282 717 l 0 230 717 l 0
230 410 m 0 230 461 l 0 282 461 l 0 282 410 l 0 230 410 l 0
230 179 m 0 230 230 l 0 282 230 l 0 282 179 l 0 230 179 l 0
307 641 m 0 307 692 l 0 358 692 l 0 358 641 l 0 307 641 l 0
307 333 m 0 307 384 l 0 358 384 l 0 358 333 l 0 307 333 l 0
307 256 m 0 307 307 l 0 358 307 l 0 358 256 l 0 307 256 l 0
307 179 m 0 307 230 l 0 358 230 l 0 358 179 l 0 307 179 l 0
307 102 m 0 307 153 l 0 358 153 l 0 358 102 l 0 307 102 l 0
307 25 m 0 307 76 l 0 358 76 l 0 358 25 l 0 307 25 l 0
EndSplineSet
EndChar

StartChar: Atilde
Encoding: 195 195 131
Width: 460
VWidth: 0
Flags: W
LayerCount: 2
Fore
SplineSet
0 333 m 0 0 384 l 0 51 384 l 0 51 333 l 0 0 333 l 0
0 256 m 0 0 307 l 0 51 307 l 0 51 256 l 0 0 256 l 0
0 179 m 0 0 230 l 0 51 230 l 0 51 179 l 0 0 179 l 0
0 102 m 0 0 153 l 0 51 153 l 0 51 102 l 0 0 102 l 0
0 25 m 0 0 76 l 0 51 76 l 0 51 25 l 0 0 25 l 0
76 641 m 0 76 692 l 0 128 692 l 0 128 641 l 0 76 641 l 0
76 410 m 0 76 461 l 0 128 461 l 0 128 410 l 0 76 410 l 0
76 179 m 0 76 230 l 0 128 230 l 0 128 179 l 0 76 179 l 0
153 717 m 0 153 769 l 0 205 769 l 0 205 717 l 0 153 717 l 0
153 487 m 0 153 538 l 0 205 538 l 0 205 487 l 0 153 487 l 0
153 179 m 0 153 230 l 0 205 230 l 0 205 179 l 0 153 179 l 0
230 641 m 0 230 692 l 0 282 692 l 0 282 641 l 0 230 641 l 0
230 410 m 0 230 461 l 0 282 461 l 0 282 410 l 0 230 410 l 0
230 179 m 0 230 230 l 0 282 230 l 0 282 179 l 0 230 179 l 0
307 717 m 0 307 769 l 0 358 769 l 0 358 717 l 0 307 717 l 0
307 333 m 0 307 384 l 0 358 384 l 0 358 333 l 0 307 333 l 0
307 256 m 0 307 307 l 0 358 307 l 0 358 256 l 0 307 256 l 0
307 179 m 0 307 230 l 0 358 230 l 0 358 179 l 0 307 179 l 0
307 102 m 0 307 153 l 0 358 153 l 0 358 102 l 0 307 102 l 0
307 25 m 0 307 76 l 0 358 76 l 0 358 25 l 0 307 25 l 0
EndSplineSet
EndChar

StartChar: Adiaeresis
Encoding: 196 196 132
Width: 460
VWidth: 0
Flags: W
LayerCount: 2
Fore
SplineSet
0 333 m 0 0 384 l 0 51 384 l 0 51 333 l 0 0 333 l 0
0 256 m 0 0 307 l 0 51 307 l 0 51 256 l 0 0 256 l 0
0 179 m 0 0 230 l 0 51 230 l 0 51 179 l 0 0 179 l 0
0 102 m 0 0 153 l 0 51 153 l 0 51 102 l 0 0 102 l 0
0 25 m 0 0 76 l 0 51 76 l 0 51 25 l 0 0 25 l 0
76 717 m 0 76 769 l 0 128 769 l 0 128 717 l 0 76 717 l 0
76 641 m 0 76 692 l 0 128 692 l 0 128 641 l 0 76 641 l 0
76 410 m 0 76 461 l 0 128 461 l 0 128 410 l 0 76 410 l 0
76 179 m 0 76 230 l 0 128 230 l 0 128 179 l 0 76 179 l 0
153 487 m 0 153 538 l 0 205 538 l 0 205 487 l 0 153 487 l 0
153 179 m 0 153 230 l 0 205 230 l 0 205 179 l 0 153 179 l 0
230 717 m 0 230 769 l 0 282 769 l 0 282 717 l 0 230 717 l 0
230 641 m 0 230 692 l 0 282 692 l 0 282 641 l 0 230 641 l 0
230 410 m 0 230 461 l 0 282 461 l 0 282 410 l 0 230 410 l 0
230 179 m 0 230 230 l 0 282 230 l 0 282 179 l 0 230 179 l 0
307 333 m 0 307 384 l 0 358 384 l 0 358 333 l 0 307 333 l 0
307 256 m 0 307 307 l 0 358 307 l 0 358 256 l 0 307 256 l 0
307 179 m 0 307 230 l 0 358 230 l 0 358 179 l 0 307 179 l 0
307 102 m 0 307 153 l 0 358 153 l 0 358 102 l 0 307 102 l 0
307 25 m 0 307 76 l 0 358 76 l 0 358 25 l 0 307 25 l 0
EndSplineSet
EndChar

StartChar: Aring
Encoding: 197 197 133
Width: 460
VWidth: 0
Flags: W
LayerCount: 2
Fore
SplineSet
0 333 m 0 0 384 l 0 51 384 l 0 51 333 l 0 0 333 l 0
0 256 m 0 0 307 l 0 51 307 l 0 51 256 l 0 0 256 l 0
0 179 m 0 0 230 l 0 51 230 l 0 51 179 l 0 0 179 l 0
0 102 m 0 0 153 l 0 51 153 l 0 51 102 l 0 0 102 l 0
0 25 m 0 0 76 l 0 51 76 l 0 51 25 l 0 0 25 l 0
76 641 m 0 76 692 l 0 128 692 l 0 128 641 l 0 76 641 l 0
76 410 m 0 76 461 l 0 128 461 l 0 128 410 l 0 76 410 l 0
76 179 m 0 76 230 l 0 128 230 l 0 128 179 l 0 76 179 l 0
153 717 m 0 153 769 l 0 205 769 l 0 205 717 l 0 153 717 l 0
153 564 m 0 153 615 l 0 205 615 l 0 205 564 l 0 153 564 l 0
153 487 m 0 153 538 l 0 205 538 l 0 205 487 l 0 153 487 l 0
153 179 m 0 153 230 l 0 205 230 l 0 205 179 l 0 153 179 l 0
230 641 m 0 230 692 l 0 282 692 l 0 282 641 l 0 230 641 l 0
230 410 m 0 230 461 l 0 282 461 l 0 282 410 l 0 230 410 l 0
230 179 m 0 230 230 l 0 282 230 l 0 282 179 l 0 230 179 l 0
307 333 m 0 307 384 l 0 358 384 l 0 358 333 l 0 307 333 l 0
307 256 m 0 307 307 l 0 358 307 l 0 358 256 l 0 307 256 l 0
307 179 m 0 307 230 l 0 358 230 l 0 358 179 l 0 307 179 l 0
307 102 m 0 307 153 l 0 358 153 l 0 358 102 l 0 307 102 l 0
307 25 m 0 307 76 l 0 358 76 l 0 358 25 l 0 307 25 l 0
EndSplineSet
EndChar

StartChar: AE
Encoding: 198 198 134
Width: 460
VWidth: 0
Flags: W
LayerCount: 2
Fore
SplineSet
0 564 m 0 0 615 l 0 51 615 l 0 51 564 l 0 0 564 l 0
0 487 m 0 0 538 l 0 51 538 l 0 51 487 l 0 0 487 l 0
0 410 m 0 0 461 l 0 51 461 l 0 51 410 l 0 0 410 l 0
0 333 m 0 0 384 l 0 51 384 l 0 51 333 l 0 0 333 l 0
0 256 m 0 0 307 l 0 51 307 l 0 51 256 l 0 0 256 l 0
0 179 m 0 0 230 l 0 51 230 l 0 51 179 l 0 0 179 l 0
0 102 m 0 0 153 l 0 51 153 l 0 51 102 l 0 0 102 l 0
0 25 m 0 0 76 l 0 51 76 l 0 51 25 l 0 0 25 l 0
76 641 m 0 76 692 l 0 128 692 l 0 128 641 l 0 76 641 l 0
76 256 m 0 76 307 l 0 128 307 l 0 128 256 l 0 76 256 l 0
153 564 m 0 153 615 l 0 205 615 l 0 205 564 l 0 153 564 l 0
153 487 m 0 153 538 l 0 205 538 l 0 205 487 l 0 153 487 l 0
153 410 m 0 153 461 l 0 205 461 l 0 205 410 l 0 153 410 l 0
153 333 m 0 153 384 l 0 205 384 l 0 205 333 l 0 153 333 l 0
153 256 m 0 153 307 l 0 205 307 l 0 205 256 l 0 153 256 l 0
153 179 m 0 153 230 l 0 205 230 l 0 205 179 l 0 153 179 l 0
153 102 m 0 153 153 l 0 205 153 l 0 205 102 l 0 153 102 l 0
153 25 m 0 153 76 l 0 205 76 l 0 205 25 l 0 153 25 l 0
230 641 m 0 230 692 l 0 282 692 l 0 282 641 l 0 230 641 l 0
230 333 m 0 230 384 l 0 282 384 l 0 282 333 l 0 230 333 l 0
230 25 m 0 230 76 l 0 282 76 l 0 282 25 l 0 230 25 l 0
307 641 m 0 307 692 l 0 358 692 l 0 358 641 l 0 307 641 l 0
307 25 m 0 307 76 l 0 358 76 l 0 358 25 l 0 307 25 l 0
EndSplineSet
EndChar

StartChar: Ccedilla
Encoding: 199 199 135
Width: 460
VWidth: 0
Flags: W
LayerCount: 2
Fore
SplineSet
0 564 m 0 0 615 l 0 51 615 l 0 51 564 l 0 0 564 l 0
0 487 m 0 0 538 l 0 51 538 l 0 51 487 l 0 0 487 l 0
0 410 m 0 0 461 l 0 51 461 l 0 51 410 l 0 0 410 l 0
0 333 m 0 0 384 l 0 51 384 l 0 51 333 l 0 0 333 l 0
0 256 m 0 0 307 l 0 51 307 l 0 51 256 l 0 0 256 l 0
0 179 m 0 0 230 l 0 51 230 l 0 51 179 l 0 0 179 l 0
0 102 m 0 0 153 l 0 51 153 l 0 51 102 l 0 0 102 l 0
76 641 m 0 76 692 l 0 128 692 l 0 128 641 l 0 76 641 l 0
76 25 m 0 76 76 l 0 128 76 l 0 128 25 l 0 76 25 l 0
76 -128 m 0 76 -76 l 0 128 -76 l 0 128 -128 l 0 76 -128 l 0
153 641 m 0 153 692 l 0 205 692 l 0 205 641 l 0 153 641 l 0
153 25 m 0 153 76 l 0 205 76 l 0 205 25 l 0 153 25 l 0
153 -51 m 0 153 0 l 0 205 0 l 0 205 -51 l 0 153 -51 l 0
230 641 m 0 230 692 l 0 282 692 l 0 282 641 l 0 230 641 l 0
230 25 m 0 230 76 l 0 282 76 l 0 282 25 l 0 230 25 l 0
307 564 m 0 307 615 l 0 358 615 l 0 358 564 l 0 307 564 l 0
307 102 m 0 307 153 l 0 358 153 l 0 358 102 l 0 307 102 l 0
EndSplineSet
EndChar

StartChar: Egrave
Encoding: 200 200 136
Width: 460
VWidth: 0
Flags: W
LayerCount: 2
Fore
SplineSet
0 487 m 0 0 538 l 0 51 538 l 0 51 487 l 0 0 487 l 0
0 410 m 0 0 461 l 0 51 461 l 0 51 410 l 0 0 410 l 0
0 333 m 0 0 384 l 0 51 384 l 0 51 333 l 0 0 333 l 0
0 256 m 0 0 307 l 0 51 307 l 0 51 256 l 0 0 256 l 0
0 179 m 0 0 230 l 0 51 230 l 0 51 179 l 0 0 179 l 0
0 102 m 0 0 153 l 0 51 153 l 0 51 102 l 0 0 102 l 0
0 25 m 0 0 76 l 0 51 76 l 0 51 25 l 0 0 25 l 0
76 717 m 0 76 769 l 0 128 769 l 0 128 717 l 0 76 717 l 0
76 487 m 0 76 538 l 0 128 538 l 0 128 487 l 0 76 487 l 0
76 256 m 0 76 307 l 0 128 307 l 0 128 256 l 0 76 256 l 0
76 25 m 0 76 76 l 0 128 76 l 0 128 25 l 0 76 25 l 0
153 641 m 0 153 692 l 0 205 692 l 0 205 641 l 0 153 641 l 0
153 487 m 0 153 538 l 0 205 538 l 0 205 487 l 0 153 487 l 0
153 256 m 0 153 307 l 0 205 307 l 0 205 256 l 0 153 256 l 0
153 25 m 0 153 76 l 0 205 76 l 0 205 25 l 0 153 25 l 0
230 487 m 0 230 538 l 0 282 538 l 0 282 487 l 0 230 487 l 0
230 256 m 0 230 307 l 0 282 307 l 0 282 256 l 0 230 256 l 0
230 25 m 0 230 76 l 0 282 76 l 0 282 25 l 0 230 25 l 0
307 487 m 0 307 538 l 0 358 538 l 0 358 487 l 0 307 487 l 0
307 25 m 0 307 76 l 0 358 76 l 0 358 25 l 0 307 25 l 0
EndSplineSet
EndChar

StartChar: Eacute
Encoding: 201 201 137
Width: 460
VWidth: 0
Flags: W
LayerCount: 2
Fore
SplineSet
0 487 m 0 0 538 l 0 51 538 l 0 51 487 l 0 0 487 l 0
0 410 m 0 0 461 l 0 51 461 l 0 51 410 l 0 0 410 l 0
0 333 m 0 0 384 l 0 51 384 l 0 51 333 l 0 0 333 l 0
0 256 m 0 0 307 l 0 51 307 l 0 51 256 l 0 0 256 l 0
0 179 m 0 0 230 l 0 51 230 l 0 51 179 l 0 0 179 l 0
0 102 m 0 0 153 l 0 51 153 l 0 51 102 l 0 0 102 l 0
0 25 m 0 0 76 l 0 51 76 l 0 51 25 l 0 0 25 l 0
76 487 m 0 76 538 l 0 128 538 l 0 128 487 l 0 76 487 l 0
76 256 m 0 76 307 l 0 128 307 l 0 128 256 l 0 76 256 l 0
76 25 m 0 76 76 l 0 128 76 l 0 128 25 l 0 76 25 l 0
153 641 m 0 153 692 l 0 205 692 l 0 205 641 l 0 153 641 l 0
153 487 m 0 153 538 l 0 205 538 l 0 205 487 l 0 153 487 l 0
153 256 m 0 153 307 l 0 205 307 l 0 205 256 l 0 153 256 l 0
153 25 m 0 153 76 l 0 205 76 l 0 205 25 l 0 153 25 l 0
230 717 m 0 230 769 l 0 282 769 l 0 282 717 l 0 230 717 l 0
230 487 m 0 230 538 l 0 282 538 l 0 282 487 l 0 230 487 l 0
230 256 m 0 230 307 l 0 282 307 l 0 282 256 l 0 230 256 l 0
230 25 m 0 230 76 l 0 282 76 l 0 282 25 l 0 230 25 l 0
307 487 m 0 307 538 l 0 358 538 l 0 358 487 l 0 307 487 l 0
307 25 m 0 307 76 l 0 358 76 l 0 358 25 l 0 307 25 l 0
EndSplineSet
EndChar

StartChar: Ecircumflex
Encoding: 202 202 138
Width: 460
VWidth: 0
Flags: W
LayerCount: 2
Fore
SplineSet
0 487 m 0 0 538 l 0 51 538 l 0 51 487 l 0 0 487 l 0
0 410 m 0 0 461 l 0 51 461 l 0 51 410 l 0 0 410 l 0
0 333 m 0 0 384 l 0 51 384 l 0 51 333 l 0 0 333 l 0
0 256 m 0 0 307 l 0 51 307 l 0 51 256 l 0 0 256 l 0
0 179 m 0 0 230 l 0 51 230 l 0 51 179 l 0 0 179 l 0
0 102 m 0 0 153 l 0 51 153 l 0 51 102 l 0 0 102 l 0
0 25 m 0 0 76 l 0 51 76 l 0 51 25 l 0 0 25 l 0
76 641 m 0 76 692 l 0 128 692 l 0 128 641 l 0 76 641 l 0
76 487 m 0 76 538 l 0 128 538 l 0 128 487 l 0 76 487 l 0
76 256 m 0 76 307 l 0 128 307 l 0 128 256 l 0 76 256 l 0
76 25 m 0 76 76 l 0 128 76 l 0 128 25 l 0 76 25 l 0
153 717 m 0 153 769 l 0 205 769 l 0 205 717 l 0 153 717 l 0
153 487 m 0 153 538 l 0 205 538 l 0 205 487 l 0 153 487 l 0
153 256 m 0 153 307 l 0 205 307 l 0 205 256 l 0 153 256 l 0
153 25 m 0 153 76 l 0 205 76 l 0 205 25 l 0 153 25 l 0
230 717 m 0 230 769 l 0 282 769 l 0 282 717 l 0 230 717 l 0
230 487 m 0 230 538 l 0 282 538 l 0 282 487 l 0 230 487 l 0
230 256 m 0 230 307 l 0 282 307 l 0 282 256 l 0 230 256 l 0
230 25 m 0 230 76 l 0 282 76 l 0 282 25 l 0 230 25 l 0
307 641 m 0 307 692 l 0 358 692 l 0 358 641 l 0 307 641 l 0
307 487 m 0 307 538 l 0 358 538 l 0 358 487 l 0 307 487 l 0
307 25 m 0 307 76 l 0 358 76 l 0 358 25 l 0 307 25 l 0
EndSplineSet
EndChar

StartChar: Ediaeresis
Encoding: 203 203 139
Width: 460
VWidth: 0
Flags: W
LayerCount: 2
Fore
SplineSet
0 487 m 0 0 538 l 0 51 538 l 0 51 487 l 0 0 487 l 0
0 410 m 0 0 461 l 0 51 461 l 0 51 410 l 0 0 410 l 0
0 333 m 0 0 384 l 0 51 384 l 0 51 333 l 0 0 333 l 0
0 256 m 0 0 307 l 0 51 307 l 0 51 256 l 0 0 256 l 0
0 179 m 0 0 230 l 0 51 230 l 0 51 179 l 0 0 179 l 0
0 102 m 0 0 153 l 0 51 153 l 0 51 102 l 0 0 102 l 0
0 25 m 0 0 76 l 0 51 76 l 0 51 25 l 0 0 25 l 0
76 717 m 0 76 769 l 0 128 769 l 0 128 717 l 0 76 717 l 0
76 641 m 0 76 692 l 0 128 692 l 0 128 641 l 0 76 641 l 0
76 487 m 0 76 538 l 0 128 538 l 0 128 487 l 0 76 487 l 0
76 256 m 0 76 307 l 0 128 307 l 0 128 256 l 0 76 256 l 0
76 25 m 0 76 76 l 0 128 76 l 0 128 25 l 0 76 25 l 0
153 487 m 0 153 538 l 0 205 538 l 0 205 487 l 0 153 487 l 0
153 256 m 0 153 307 l 0 205 307 l 0 205 256 l 0 153 256 l 0
153 25 m 0 153 76 l 0 205 76 l 0 205 25 l 0 153 25 l 0
230 717 m 0 230 769 l 0 282 769 l 0 282 717 l 0 230 717 l 0
230 641 m 0 230 692 l 0 282 692 l 0 282 641 l 0 230 641 l 0
230 487 m 0 230 538 l 0 282 538 l 0 282 487 l 0 230 487 l 0
230 256 m 0 230 307 l 0 282 307 l 0 282 256 l 0 230 256 l 0
230 25 m 0 230 76 l 0 282 76 l 0 282 25 l 0 230 25 l 0
307 487 m 0 307 538 l 0 358 538 l 0 358 487 l 0 307 487 l 0
307 25 m 0 307 76 l 0 358 76 l 0 358 25 l 0 307 25 l 0
EndSplineSet
EndChar

StartChar: Igrave
Encoding: 204 204 140
Width: 460
VWidth: 0
Flags: W
LayerCount: 2
Fore
SplineSet
76 717 m 0 76 769 l 0 128 769 l 0 128 717 l 0 76 717 l 0
76 487 m 0 76 538 l 0 128 538 l 0 128 487 l 0 76 487 l 0
76 25 m 0 76 76 l 0 128 76 l 0 128 25 l 0 76 25 l 0
153 641 m 0 153 692 l 0 205 692 l 0 205 641 l 0 153 641 l 0
153 487 m 0 153 538 l 0 205 538 l 0 205 487 l 0 153 487 l 0
153 410 m 0 153 461 l 0 205 461 l 0 205 410 l 0 153 410 l 0
153 333 m 0 153 384 l 0 205 384 l 0 205 333 l 0 153 333 l 0
153 256 m 0 153 307 l 0 205 307 l 0 205 256 l 0 153 256 l 0
153 179 m 0 153 230 l 0 205 230 l 0 205 179 l 0 153 179 l 0
153 102 m 0 153 153 l 0 205 153 l 0 205 102 l 0 153 102 l 0
153 25 m 0 153 76 l 0 205 76 l 0 205 25 l 0 153 25 l 0
230 487 m 0 230 538 l 0 282 538 l 0 282 487 l 0 230 487 l 0
230 25 m 0 230 76 l 0 282 76 l 0 282 25 l 0 230 25 l 0
EndSplineSet
EndChar

StartChar: Iacute
Encoding: 205 205 141
Width: 460
VWidth: 0
Flags: W
LayerCount: 2
Fore
SplineSet
76 487 m 0 76 538 l 0 128 538 l 0 128 487 l 0 76 487 l 0
76 25 m 0 76 76 l 0 128 76 l 0 128 25 l 0 76 25 l 0
153 641 m 0 153 692 l 0 205 692 l 0 205 641 l 0 153 641 l 0
153 487 m 0 153 538 l 0 205 538 l 0 205 487 l 0 153 487 l 0
153 410 m 0 153 461 l 0 205 461 l 0 205 410 l 0 153 410 l 0
153 333 m 0 153 384 l 0 205 384 l 0 205 333 l 0 153 333 l 0
153 256 m 0 153 307 l 0 205 307 l 0 205 256 l 0 153 256 l 0
153 179 m 0 153 230 l 0 205 230 l 0 205 179 l 0 153 179 l 0
153 102 m 0 153 153 l 0 205 153 l 0 205 102 l 0 153 102 l 0
153 25 m 0 153 76 l 0 205 76 l 0 205 25 l 0 153 25 l 0
230 717 m 0 230 769 l 0 282 769 l 0 282 717 l 0 230 717 l 0
230 487 m 0 230 538 l 0 282 538 l 0 282 487 l 0 230 487 l 0
230 25 m 0 230 76 l 0 282 76 l 0 282 25 l 0 230 25 l 0
EndSplineSet
EndChar

StartChar: Icircumflex
Encoding: 206 206 142
Width: 460
VWidth: 0
Flags: W
LayerCount: 2
Fore
SplineSet
76 641 m 0 76 692 l 0 128 692 l 0 128 641 l 0 76 641 l 0
76 487 m 0 76 538 l 0 128 538 l 0 128 487 l 0 76 487 l 0
76 25 m 0 76 76 l 0 128 76 l 0 128 25 l 0 76 25 l 0
153 717 m 0 153 769 l 0 205 769 l 0 205 717 l 0 153 717 l 0
153 487 m 0 153 538 l 0 205 538 l 0 205 487 l 0 153 487 l 0
153 410 m 0 153 461 l 0 205 461 l 0 205 410 l 0 153 410 l 0
153 333 m 0 153 384 l 0 205 384 l 0 205 333 l 0 153 333 l 0
153 256 m 0 153 307 l 0 205 307 l 0 205 256 l 0 153 256 l 0
153 179 m 0 153 230 l 0 205 230 l 0 205 179 l 0 153 179 l 0
153 102 m 0 153 153 l 0 205 153 l 0 205 102 l 0 153 102 l 0
153 25 m 0 153 76 l 0 205 76 l 0 205 25 l 0 153 25 l 0
230 717 m 0 230 769 l 0 282 769 l 0 282 717 l 0 230 717 l 0
230 487 m 0 230 538 l 0 282 538 l 0 282 487 l 0 230 487 l 0
230 25 m 0 230 76 l 0 282 76 l 0 282 25 l 0 230 25 l 0
307 641 m 0 307 692 l 0 358 692 l 0 358 641 l 0 307 641 l 0
EndSplineSet
EndChar

StartChar: Idiaeresis
Encoding: 207 207 143
Width: 460
VWidth: 0
Flags: W
LayerCount: 2
Fore
SplineSet
76 717 m 0 76 769 l 0 128 769 l 0 128 717 l 0 76 717 l 0
76 641 m 0 76 692 l 0 128 692 l 0 128 641 l 0 76 641 l 0
76 487 m 0 76 538 l 0 128 538 l 0 128 487 l 0 76 487 l 0
76 25 m 0 76 76 l 0 128 76 l 0 128 25 l 0 76 25 l 0
153 487 m 0 153 538 l 0 205 538 l 0 205 487 l 0 153 487 l 0
153 410 m 0 153 461 l 0 205 461 l 0 205 410 l 0 153 410 l 0
153 333 m 0 153 384 l 0 205 384 l 0 205 333 l 0 153 333 l 0
153 256 m 0 153 307 l 0 205 307 l 0 205 256 l 0 153 256 l 0
153 179 m 0 153 230 l 0 205 230 l 0 205 179 l 0 153 179 l 0
153 102 m 0 153 153 l 0 205 153 l 0 205 102 l 0 153 102 l 0
153 25 m 0 153 76 l 0 205 76 l 0 205 25 l 0 153 25 l 0
230 717 m 0 230 769 l 0 282 769 l 0 282 717 l 0 230 717 l 0
230 641 m 0 230 692 l 0 282 692 l 0 282 641 l 0 230 641 l 0
230 487 m 0 230 538 l 0 282 538 l 0 282 487 l 0 230 487 l 0
230 25 m 0 230 76 l 0 282 76 l 0 282 25 l 0 230 25 l 0
EndSplineSet
EndChar

StartChar: ETH
Encoding: 208 208 144
Width: 460
VWidth: 0
Flags: W
LayerCount: 2
Fore
SplineSet
0 641 m 0 0 692 l 0 51 692 l 0 51 641 l 0 0 641 l 0
0 333 m 0 0 384 l 0 51 384 l 0 51 333 l 0 0 333 l 0
0 25 m 0 0 76 l 0 51 76 l 0 51 25 l 0 0 25 l 0
76 641 m 0 76 692 l 0 128 692 l 0 128 641 l 0 76 641 l 0
76 564 m 0 76 615 l 0 128 615 l 0 128 564 l 0 76 564 l 0
76 487 m 0 76 538 l 0 128 538 l 0 128 487 l 0 76 487 l 0
76 410 m 0 76 461 l 0 128 461 l 0 128 410 l 0 76 410 l 0
76 333 m 0 76 384 l 0 128 384 l 0 128 333 l 0 76 333 l 0
76 256 m 0 76 307 l 0 128 307 l 0 128 256 l 0 76 256 l 0
76 179 m 0 76 230 l 0 128 230 l 0 128 179 l 0 76 179 l 0
76 102 m 0 76 153 l 0 128 153 l 0 128 102 l 0 76 102 l 0
76 25 m 0 76 76 l 0 128 76 l 0 128 25 l 0 76 25 l 0
153 641 m 0 153 692 l 0 205 692 l 0 205 641 l 0 153 641 l 0
153 333 m 0 153 384 l 0 205 384 l 0 205 333 l 0 153 333 l 0
153 25 m 0 153 76 l 0 205 76 l 0 205 25 l 0 153 25 l 0
230 641 m 0 230 692 l 0 282 692 l 0 282 641 l 0 230 641 l 0
230 25 m 0 230 76 l 0 282 76 l 0 282 25 l 0 230 25 l 0
307 564 m 0 307 615 l 0 358 615 l 0 358 564 l 0 307 564 l 0
307 487 m 0 307 538 l 0 358 538 l 0 358 487 l 0 307 487 l 0
307 410 m 0 307 461 l 0 358 461 l 0 358 410 l 0 307 410 l 0
307 333 m 0 307 384 l 0 358 384 l 0 358 333 l 0 307 333 l 0
307 256 m 0 307 307 l 0 358 307 l 0 358 256 l 0 307 256 l 0
307 179 m 0 307 230 l 0 358 230 l 0 358 179 l 0 307 179 l 0
307 102 m 0 307 153 l 0 358 153 l 0 358 102 l 0 307 102 l 0
EndSplineSet
EndChar

StartChar: Ntilde
Encoding: 209 209 145
Width: 460
VWidth: 0
Flags: W
LayerCount: 2
Fore
SplineSet
0 487 m 0 0 538 l 0 51 538 l 0 51 487 l 0 0 487 l 0
0 410 m 0 0 461 l 0 51 461 l 0 51 410 l 0 0 410 l 0
0 333 m 0 0 384 l 0 51 384 l 0 51 333 l 0 0 333 l 0
0 256 m 0 0 307 l 0 51 307 l 0 51 256 l 0 0 256 l 0
0 179 m 0 0 230 l 0 51 230 l 0 51 179 l 0 0 179 l 0
0 102 m 0 0 153 l 0 51 153 l 0 51 102 l 0 0 102 l 0
0 25 m 0 0 76 l 0 51 76 l 0 51 25 l 0 0 25 l 0
76 641 m 0 76 692 l 0 128 692 l 0 128 641 l 0 76 641 l 0
76 333 m 0 76 384 l 0 128 384 l 0 128 333 l 0 76 333 l 0
153 717 m 0 153 769 l 0 205 769 l 0 205 717 l 0 153 717 l 0
153 256 m 0 153 307 l 0 205 307 l 0 205 256 l 0 153 256 l 0
230 641 m 0 230 692 l 0 282 692 l 0 282 641 l 0 230 641 l 0
230 179 m 0 230 230 l 0 282 230 l 0 282 179 l 0 230 179 l 0
307 717 m 0 307 769 l 0 358 769 l 0 358 717 l 0 307 717 l 0
307 487 m 0 307 538 l 0 358 538 l 0 358 487 l 0 307 487 l 0
307 410 m 0 307 461 l 0 358 461 l 0 358 410 l 0 307 410 l 0
307 333 m 0 307 384 l 0 358 384 l 0 358 333 l 0 307 333 l 0
307 256 m 0 307 307 l 0 358 307 l 0 358 256 l 0 307 256 l 0
307 179 m 0 307 230 l 0 358 230 l 0 358 179 l 0 307 179 l 0
307 102 m 0 307 153 l 0 358 153 l 0 358 102 l 0 307 102 l 0
307 25 m 0 307 76 l 0 358 76 l 0 358 25 l 0 307 25 l 0
EndSplineSet
EndChar

StartChar: Ograve
Encoding: 210 210 146
Width: 460
VWidth: 0
Flags: W
LayerCount: 2
Fore
SplineSet
0 410 m 0 0 461 l 0 51 461 l 0 51 410 l 0 0 410 l 0
0 333 m 0 0 384 l 0 51 384 l 0 51 333 l 0 0 333 l 0
0 256 m 0 0 307 l 0 51 307 l 0 51 256 l 0 0 256 l 0
0 179 m 0 0 230 l 0 51 230 l 0 51 179 l 0 0 179 l 0
0 102 m 0 0 153 l 0 51 153 l 0 51 102 l 0 0 102 l 0
76 717 m 0 76 769 l 0 128 769 l 0 128 717 l 0 76 717 l 0
76 487 m 0 76 538 l 0 128 538 l 0 128 487 l 0 76 487 l 0
76 25 m 0 76 76 l 0 128 76 l 0 128 25 l 0 76 25 l 0
153 641 m 0 153 692 l 0 205 692 l 0 205 641 l 0 153 641 l 0
153 487 m 0 153 538 l 0 205 538 l 0 205 487 l 0 153 487 l 0
153 25 m 0 153 76 l 0 205 76 l 0 205 25 l 0 153 25 l 0
230 487 m 0 230 538 l 0 282 538 l 0 282 487 l 0 230 487 l 0
230 25 m 0 230 76 l 0 282 76 l 0 282 25 l 0 230 25 l 0
307 410 m 0 307 461 l 0 358 461 l 0 358 410 l 0 307 410 l 0
307 333 m 0 307 384 l 0 358 384 l 0 358 333 l 0 307 333 l 0
307 256 m 0 307 307 l 0 358 307 l 0 358 256 l 0 307 256 l 0
307 179 m 0 307 230 l 0 358 230 l 0 358 179 l 0 307 179 l 0
307 102 m 0 307 153 l 0 358 153 l 0 358 102 l 0 307 102 l 0
EndSplineSet
EndChar

StartChar: Oacute
Encoding: 211 211 147
Width: 460
VWidth: 0
Flags: W
LayerCount: 2
Fore
SplineSet
0 410 m 0 0 461 l 0 51 461 l 0 51 410 l 0 0 410 l 0
0 333 m 0 0 384 l 0 51 384 l 0 51 333 l 0 0 333 l 0
0 256 m 0 0 307 l 0 51 307 l 0 51 256 l 0 0 256 l 0
0 179 m 0 0 230 l 0 51 230 l 0 51 179 l 0 0 179 l 0
0 102 m 0 0 153 l 0 51 153 l 0 51 102 l 0 0 102 l 0
76 487 m 0 76 538 l 0 128 538 l 0 128 487 l 0 76 487 l 0
76 25 m 0 76 76 l 0 128 76 l 0 128 25 l 0 76 25 l 0
153 641 m 0 153 692 l 0 205 692 l 0 205 641 l 0 153 641 l 0
153 487 m 0 153 538 l 0 205 538 l 0 205 487 l 0 153 487 l 0
153 25 m 0 153 76 l 0 205 76 l 0 205 25 l 0 153 25 l 0
230 717 m 0 230 769 l 0 282 769 l 0 282 717 l 0 230 717 l 0
230 487 m 0 230 538 l 0 282 538 l 0 282 487 l 0 230 487 l 0
230 25 m 0 230 76 l 0 282 76 l 0 282 25 l 0 230 25 l 0
307 410 m 0 307 461 l 0 358 461 l 0 358 410 l 0 307 410 l 0
307 333 m 0 307 384 l 0 358 384 l 0 358 333 l 0 307 333 l 0
307 256 m 0 307 307 l 0 358 307 l 0 358 256 l 0 307 256 l 0
307 179 m 0 307 230 l 0 358 230 l 0 358 179 l 0 307 179 l 0
307 102 m 0 307 153 l 0 358 153 l 0 358 102 l 0 307 102 l 0
EndSplineSet
EndChar

StartChar: Ocircumflex
Encoding: 212 212 148
Width: 460
VWidth: 0
Flags: W
LayerCount: 2
Fore
SplineSet
0 410 m 0 0 461 l 0 51 461 l 0 51 410 l 0 0 410 l 0
0 333 m 0 0 384 l 0 51 384 l 0 51 333 l 0 0 333 l 0
0 256 m 0 0 307 l 0 51 307 l 0 51 256 l 0 0 256 l 0
0 179 m 0 0 230 l 0 51 230 l 0 51 179 l 0 0 179 l 0
0 102 m 0 0 153 l 0 51 153 l 0 51 102 l 0 0 102 l 0
76 641 m 0 76 692 l 0 128 692 l 0 128 641 l 0 76 641 l 0
76 487 m 0 76 538 l 0 128 538 l 0 128 487 l 0 76 487 l 0
76 25 m 0 76 76 l 0 128 76 l 0 128 25 l 0 76 25 l 0
153 717 m 0 153 769 l 0 205 769 l 0 205 717 l 0 153 717 l 0
153 487 m 0 153 538 l 0 205 538 l 0 205 487 l 0 153 487 l 0
153 25 m 0 153 76 l 0 205 76 l 0 205 25 l 0 153 25 l 0
230 717 m 0 230 769 l 0 282 769 l 0 282 717 l 0 230 717 l 0
230 487 m 0 230 538 l 0 282 538 l 0 282 487 l 0 230 487 l 0
230 25 m 0 230 76 l 0 282 76 l 0 282 25 l 0 230 25 l 0
307 641 m 0 307 692 l 0 358 692 l 0 358 641 l 0 307 641 l 0
307 410 m 0 307 461 l 0 358 461 l 0 358 410 l 0 307 410 l 0
307 333 m 0 307 384 l 0 358 384 l 0 358 333 l 0 307 333 l 0
307 256 m 0 307 307 l 0 358 307 l 0 358 256 l 0 307 256 l 0
307 179 m 0 307 230 l 0 358 230 l 0 358 179 l 0 307 179 l 0
307 102 m 0 307 153 l 0 358 153 l 0 358 102 l 0 307 102 l 0
EndSplineSet
EndChar

StartChar: Otilde
Encoding: 213 213 149
Width: 460
VWidth: 0
Flags: W
LayerCount: 2
Fore
SplineSet
0 410 m 0 0 461 l 0 51 461 l 0 51 410 l 0 0 410 l 0
0 333 m 0 0 384 l 0 51 384 l 0 51 333 l 0 0 333 l 0
0 256 m 0 0 307 l 0 51 307 l 0 51 256 l 0 0 256 l 0
0 179 m 0 0 230 l 0 51 230 l 0 51 179 l 0 0 179 l 0
0 102 m 0 0 153 l 0 51 153 l 0 51 102 l 0 0 102 l 0
76 641 m 0 76 692 l 0 128 692 l 0 128 641 l 0 76 641 l 0
76 487 m 0 76 538 l 0 128 538 l 0 128 487 l 0 76 487 l 0
76 25 m 0 76 76 l 0 128 76 l 0 128 25 l 0 76 25 l 0
153 717 m 0 153 769 l 0 205 769 l 0 205 717 l 0 153 717 l 0
153 487 m 0 153 538 l 0 205 538 l 0 205 487 l 0 153 487 l 0
153 25 m 0 153 76 l 0 205 76 l 0 205 25 l 0 153 25 l 0
230 641 m 0 230 692 l 0 282 692 l 0 282 641 l 0 230 641 l 0
230 487 m 0 230 538 l 0 282 538 l 0 282 487 l 0 230 487 l 0
230 25 m 0 230 76 l 0 282 76 l 0 282 25 l 0 230 25 l 0
307 717 m 0 307 769 l 0 358 769 l 0 358 717 l 0 307 717 l 0
307 410 m 0 307 461 l 0 358 461 l 0 358 410 l 0 307 410 l 0
307 333 m 0 307 384 l 0 358 384 l 0 358 333 l 0 307 333 l 0
307 256 m 0 307 307 l 0 358 307 l 0 358 256 l 0 307 256 l 0
307 179 m 0 307 230 l 0 358 230 l 0 358 179 l 0 307 179 l 0
307 102 m 0 307 153 l 0 358 153 l 0 358 102 l 0 307 102 l 0
EndSplineSet
EndChar

StartChar: Odiaeresis
Encoding: 214 214 150
Width: 460
VWidth: 0
Flags: W
LayerCount: 2
Fore
SplineSet
0 410 m 0 0 461 l 0 51 461 l 0 51 410 l 0 0 410 l 0
0 333 m 0 0 384 l 0 51 384 l 0 51 333 l 0 0 333 l 0
0 256 m 0 0 307 l 0 51 307 l 0 51 256 l 0 0 256 l 0
0 179 m 0 0 230 l 0 51 230 l 0 51 179 l 0 0 179 l 0
0 102 m 0 0 153 l 0 51 153 l 0 51 102 l 0 0 102 l 0
76 717 m 0 76 769 l 0 128 769 l 0 128 717 l 0 76 717 l 0
76 641 m 0 76 692 l 0 128 692 l 0 128 641 l 0 76 641 l 0
76 487 m 0 76 538 l 0 128 538 l 0 128 487 l 0 76 487 l 0
76 25 m 0 76 76 l 0 128 76 l 0 128 25 l 0 76 25 l 0
153 487 m 0 153 538 l 0 205 538 l 0 205 487 l 0 153 487 l 0
153 25 m 0 153 76 l 0 205 76 l 0 205 25 l 0 153 25 l 0
230 717 m 0 230 769 l 0 282 769 l 0 282 717 l 0 230 717 l 0
230 641 m 0 230 692 l 0 282 692 l 0 282 641 l 0 230 641 l 0
230 487 m 0 230 538 l 0 282 538 l 0 282 487 l 0 230 487 l 0
230 25 m 0 230 76 l 0 282 76 l 0 282 25 l 0 230 25 l 0
307 410 m 0 307 461 l 0 358 461 l 0 358 410 l 0 307 410 l 0
307 333 m 0 307 384 l 0 358 384 l 0 358 333 l 0 307 333 l 0
307 256 m 0 307 307 l 0 358 307 l 0 358 256 l 0 307 256 l 0
307 179 m 0 307 230 l 0 358 230 l 0 358 179 l 0 307 179 l 0
307 102 m 0 307 153 l 0 358 153 l 0 358 102 l 0 307 102 l 0
EndSplineSet
EndChar

StartChar: multiply
Encoding: 215 215 151
Width: 460
VWidth: 0
Flags: W
LayerCount: 2
Fore
SplineSet
0 410 m 0 0 461 l 0 51 461 l 0 51 410 l 0 0 410 l 0
0 102 m 0 0 153 l 0 51 153 l 0 51 102 l 0 0 102 l 0
76 333 m 0 76 384 l 0 128 384 l 0 128 333 l 0 76 333 l 0
76 179 m 0 76 230 l 0 128 230 l 0 128 179 l 0 76 179 l 0
153 256 m 0 153 307 l 0 205 307 l 0 205 256 l 0 153 256 l 0
230 333 m 0 230 384 l 0 282 384 l 0 282 333 l 0 230 333 l 0
230 179 m 0 230 230 l 0 282 230 l 0 282 179 l 0 230 179 l 0
307 410 m 0 307 461 l 0 358 461 l 0 358 410 l 0 307 410 l 0
307 102 m 0 307 153 l 0 358 153 l 0 358 102 l 0 307 102 l 0
EndSplineSet
EndChar

StartChar: Ooblique
Encoding: 216 216 152
Width: 460
VWidth: 0
Flags: W
LayerCount: 2
Fore
SplineSet
0 564 m 0 0 615 l 0 51 615 l 0 51 564 l 0 0 564 l 0
0 487 m 0 0 538 l 0 51 538 l 0 51 487 l 0 0 487 l 0
0 410 m 0 0 461 l 0 51 461 l 0 51 410 l 0 0 410 l 0
0 333 m 0 0 384 l 0 51 384 l 0 51 333 l 0 0 333 l 0
0 256 m 0 0 307 l 0 51 307 l 0 51 256 l 0 0 256 l 0
0 179 m 0 0 230 l 0 51 230 l 0 51 179 l 0 0 179 l 0
0 102 m 0 0 153 l 0 51 153 l 0 51 102 l 0 0 102 l 0
0 -51 m 0 0 0 l 0 51 0 l 0 51 -51 l 0 0 -51 l 0
76 641 m 0 76 692 l 0 128 692 l 0 128 641 l 0 76 641 l 0
76 179 m 0 76 230 l 0 128 230 l 0 128 179 l 0 76 179 l 0
76 102 m 0 76 153 l 0 128 153 l 0 128 102 l 0 76 102 l 0
76 25 m 0 76 76 l 0 128 76 l 0 128 25 l 0 76 25 l 0
153 641 m 0 153 692 l 0 205 692 l 0 205 641 l 0 153 641 l 0
153 410 m 0 153 461 l 0 205 461 l 0 205 410 l 0 153 410 l 0
153 333 m 0 153 384 l 0 205 384 l 0 205 333 l 0 153 333 l 0
153 256 m 0 153 307 l 0 205 307 l 0 205 256 l 0 153 256 l 0
153 25 m 0 153 76 l 0 205 76 l 0 205 25 l 0 153 25 l 0
230 641 m 0 230 692 l 0 282 692 l 0 282 641 l 0 230 641 l 0
230 564 m 0 230 615 l 0 282 615 l 0 282 564 l 0 230 564 l 0
230 487 m 0 230 538 l 0 282 538 l 0 282 487 l 0 230 487 l 0
230 25 m 0 230 76 l 0 282 76 l 0 282 25 l 0 230 25 l 0
307 717 m 0 307 769 l 0 358 769 l 0 358 717 l 0 307 717 l 0
307 564 m 0 307 615 l 0 358 615 l 0 358 564 l 0 307 564 l 0
307 487 m 0 307 538 l 0 358 538 l 0 358 487 l 0 307 487 l 0
307 410 m 0 307 461 l 0 358 461 l 0 358 410 l 0 307 410 l 0
307 333 m 0 307 384 l 0 358 384 l 0 358 333 l 0 307 333 l 0
307 256 m 0 307 307 l 0 358 307 l 0 358 256 l 0 307 256 l 0
307 179 m 0 307 230 l 0 358 230 l 0 358 179 l 0 307 179 l 0
307 102 m 0 307 153 l 0 358 153 l 0 358 102 l 0 307 102 l 0
EndSplineSet
EndChar

StartChar: Ugrave
Encoding: 217 217 153
Width: 460
VWidth: 0
Flags: W
LayerCount: 2
Fore
SplineSet
0 487 m 0 0 538 l 0 51 538 l 0 51 487 l 0 0 487 l 0
0 410 m 0 0 461 l 0 51 461 l 0 51 410 l 0 0 410 l 0
0 333 m 0 0 384 l 0 51 384 l 0 51 333 l 0 0 333 l 0
0 256 m 0 0 307 l 0 51 307 l 0 51 256 l 0 0 256 l 0
0 179 m 0 0 230 l 0 51 230 l 0 51 179 l 0 0 179 l 0
0 102 m 0 0 153 l 0 51 153 l 0 51 102 l 0 0 102 l 0
76 717 m 0 76 769 l 0 128 769 l 0 128 717 l 0 76 717 l 0
76 25 m 0 76 76 l 0 128 76 l 0 128 25 l 0 76 25 l 0
153 641 m 0 153 692 l 0 205 692 l 0 205 641 l 0 153 641 l 0
153 25 m 0 153 76 l 0 205 76 l 0 205 25 l 0 153 25 l 0
230 25 m 0 230 76 l 0 282 76 l 0 282 25 l 0 230 25 l 0
307 487 m 0 307 538 l 0 358 538 l 0 358 487 l 0 307 487 l 0
307 410 m 0 307 461 l 0 358 461 l 0 358 410 l 0 307 410 l 0
307 333 m 0 307 384 l 0 358 384 l 0 358 333 l 0 307 333 l 0
307 256 m 0 307 307 l 0 358 307 l 0 358 256 l 0 307 256 l 0
307 179 m 0 307 230 l 0 358 230 l 0 358 179 l 0 307 179 l 0
307 102 m 0 307 153 l 0 358 153 l 0 358 102 l 0 307 102 l 0
EndSplineSet
EndChar

StartChar: Uacute
Encoding: 218 218 154
Width: 460
VWidth: 0
Flags: W
LayerCount: 2
Fore
SplineSet
0 487 m 0 0 538 l 0 51 538 l 0 51 487 l 0 0 487 l 0
0 410 m 0 0 461 l 0 51 461 l 0 51 410 l 0 0 410 l 0
0 333 m 0 0 384 l 0 51 384 l 0 51 333 l 0 0 333 l 0
0 256 m 0 0 307 l 0 51 307 l 0 51 256 l 0 0 256 l 0
0 179 m 0 0 230 l 0 51 230 l 0 51 179 l 0 0 179 l 0
0 102 m 0 0 153 l 0 51 153 l 0 51 102 l 0 0 102 l 0
76 25 m 0 76 76 l 0 128 76 l 0 128 25 l 0 76 25 l 0
153 641 m 0 153 692 l 0 205 692 l 0 205 641 l 0 153 641 l 0
153 25 m 0 153 76 l 0 205 76 l 0 205 25 l 0 153 25 l 0
230 717 m 0 230 769 l 0 282 769 l 0 282 717 l 0 230 717 l 0
230 25 m 0 230 76 l 0 282 76 l 0 282 25 l 0 230 25 l 0
307 487 m 0 307 538 l 0 358 538 l 0 358 487 l 0 307 487 l 0
307 410 m 0 307 461 l 0 358 461 l 0 358 410 l 0 307 410 l 0
307 333 m 0 307 384 l 0 358 384 l 0 358 333 l 0 307 333 l 0
307 256 m 0 307 307 l 0 358 307 l 0 358 256 l 0 307 256 l 0
307 179 m 0 307 230 l 0 358 230 l 0 358 179 l 0 307 179 l 0
307 102 m 0 307 153 l 0 358 153 l 0 358 102 l 0 307 102 l 0
EndSplineSet
EndChar

StartChar: Ucircumflex
Encoding: 219 219 155
Width: 460
VWidth: 0
Flags: W
LayerCount: 2
Fore
SplineSet
0 487 m 0 0 538 l 0 51 538 l 0 51 487 l 0 0 487 l 0
0 410 m 0 0 461 l 0 51 461 l 0 51 410 l 0 0 410 l 0
0 333 m 0 0 384 l 0 51 384 l 0 51 333 l 0 0 333 l 0
0 256 m 0 0 307 l 0 51 307 l 0 51 256 l 0 0 256 l 0
0 179 m 0 0 230 l 0 51 230 l 0 51 179 l 0 0 179 l 0
0 102 m 0 0 153 l 0 51 153 l 0 51 102 l 0 0 102 l 0
76 641 m 0 76 692 l 0 128 692 l 0 128 641 l 0 76 641 l 0
76 25 m 0 76 76 l 0 128 76 l 0 128 25 l 0 76 25 l 0
153 717 m 0 153 769 l 0 205 769 l 0 205 717 l 0 153 717 l 0
153 25 m 0 153 76 l 0 205 76 l 0 205 25 l 0 153 25 l 0
230 717 m 0 230 769 l 0 282 769 l 0 282 717 l 0 230 717 l 0
230 25 m 0 230 76 l 0 282 76 l 0 282 25 l 0 230 25 l 0
307 641 m 0 307 692 l 0 358 692 l 0 358 641 l 0 307 641 l 0
307 487 m 0 307 538 l 0 358 538 l 0 358 487 l 0 307 487 l 0
307 410 m 0 307 461 l 0 358 461 l 0 358 410 l 0 307 410 l 0
307 333 m 0 307 384 l 0 358 384 l 0 358 333 l 0 307 333 l 0
307 256 m 0 307 307 l 0 358 307 l 0 358 256 l 0 307 256 l 0
307 179 m 0 307 230 l 0 358 230 l 0 358 179 l 0 307 179 l 0
307 102 m 0 307 153 l 0 358 153 l 0 358 102 l 0 307 102 l 0
EndSplineSet
EndChar

StartChar: Udiaeresis
Encoding: 220 220 156
Width: 460
VWidth: 0
Flags: W
LayerCount: 2
Fore
SplineSet
0 487 m 0 0 538 l 0 51 538 l 0 51 487 l 0 0 487 l 0
0 410 m 0 0 461 l 0 51 461 l 0 51 410 l 0 0 410 l 0
0 333 m 0 0 384 l 0 51 384 l 0 51 333 l 0 0 333 l 0
0 256 m 0 0 307 l 0 51 307 l 0 51 256 l 0 0 256 l 0
0 179 m 0 0 230 l 0 51 230 l 0 51 179 l 0 0 179 l 0
0 102 m 0 0 153 l 0 51 153 l 0 51 102 l 0 0 102 l 0
76 717 m 0 76 769 l 0 128 769 l 0 128 717 l 0 76 717 l 0
76 641 m 0 76 692 l 0 128 692 l 0 128 641 l 0 76 641 l 0
76 25 m 0 76 76 l 0 128 76 l 0 128 25 l 0 76 25 l 0
153 25 m 0 153 76 l 0 205 76 l 0 205 25 l 0 153 25 l 0
230 717 m 0 230 769 l 0 282 769 l 0 282 717 l 0 230 717 l 0
230 641 m 0 230 692 l 0 282 692 l 0 282 641 l 0 230 641 l 0
230 25 m 0 230 76 l 0 282 76 l 0 282 25 l 0 230 25 l 0
307 487 m 0 307 538 l 0 358 538 l 0 358 487 l 0 307 487 l 0
307 410 m 0 307 461 l 0 358 461 l 0 358 410 l 0 307 410 l 0
307 333 m 0 307 384 l 0 358 384 l 0 358 333 l 0 307 333 l 0
307 256 m 0 307 307 l 0 358 307 l 0 358 256 l 0 307 256 l 0
307 179 m 0 307 230 l 0 358 230 l 0 358 179 l 0 307 179 l 0
307 102 m 0 307 153 l 0 358 153 l 0 358 102 l 0 307 102 l 0
EndSplineSet
EndChar

StartChar: Yacute
Encoding: 221 221 157
Width: 460
VWidth: 0
Flags: W
LayerCount: 2
Fore
SplineSet
0 487 m 0 0 538 l 0 51 538 l 0 51 487 l 0 0 487 l 0
0 410 m 0 0 461 l 0 51 461 l 0 51 410 l 0 0 410 l 0
76 333 m 0 76 384 l 0 128 384 l 0 128 333 l 0 76 333 l 0
153 641 m 0 153 692 l 0 205 692 l 0 205 641 l 0 153 641 l 0
153 256 m 0 153 307 l 0 205 307 l 0 205 256 l 0 153 256 l 0
153 179 m 0 153 230 l 0 205 230 l 0 205 179 l 0 153 179 l 0
153 102 m 0 153 153 l 0 205 153 l 0 205 102 l 0 153 102 l 0
153 25 m 0 153 76 l 0 205 76 l 0 205 25 l 0 153 25 l 0
230 717 m 0 230 769 l 0 282 769 l 0 282 717 l 0 230 717 l 0
230 333 m 0 230 384 l 0 282 384 l 0 282 333 l 0 230 333 l 0
307 487 m 0 307 538 l 0 358 538 l 0 358 487 l 0 307 487 l 0
307 410 m 0 307 461 l 0 358 461 l 0 358 410 l 0 307 410 l 0
EndSplineSet
EndChar

StartChar: THORN
Encoding: 222 222 158
Width: 460
VWidth: 0
Flags: W
LayerCount: 2
Fore
SplineSet
0 641 m 0 0 692 l 0 51 692 l 0 51 641 l 0 0 641 l 0
0 564 m 0 0 615 l 0 51 615 l 0 51 564 l 0 0 564 l 0
0 487 m 0 0 538 l 0 51 538 l 0 51 487 l 0 0 487 l 0
0 410 m 0 0 461 l 0 51 461 l 0 51 410 l 0 0 410 l 0
0 333 m 0 0 384 l 0 51 384 l 0 51 333 l 0 0 333 l 0
0 256 m 0 0 307 l 0 51 307 l 0 51 256 l 0 0 256 l 0
0 179 m 0 0 230 l 0 51 230 l 0 51 179 l 0 0 179 l 0
0 102 m 0 0 153 l 0 51 153 l 0 51 102 l 0 0 102 l 0
0 25 m 0 0 76 l 0 51 76 l 0 51 25 l 0 0 25 l 0
76 564 m 0 76 615 l 0 128 615 l 0 128 564 l 0 76 564 l 0
76 256 m 0 76 307 l 0 128 307 l 0 128 256 l 0 76 256 l 0
153 564 m 0 153 615 l 0 205 615 l 0 205 564 l 0 153 564 l 0
153 256 m 0 153 307 l 0 205 307 l 0 205 256 l 0 153 256 l 0
230 564 m 0 230 615 l 0 282 615 l 0 282 564 l 0 230 564 l 0
230 256 m 0 230 307 l 0 282 307 l 0 282 256 l 0 230 256 l 0
307 487 m 0 307 538 l 0 358 538 l 0 358 487 l 0 307 487 l 0
307 410 m 0 307 461 l 0 358 461 l 0 358 410 l 0 307 410 l 0
307 333 m 0 307 384 l 0 358 384 l 0 358 333 l 0 307 333 l 0
EndSplineSet
EndChar

StartChar: ssharp
Encoding: 223 223 159
Width: 460
VWidth: 0
Flags: W
LayerCount: 2
Fore
SplineSet
0 564 m 0 0 615 l 0 51 615 l 0 51 564 l 0 0 564 l 0
0 487 m 0 0 538 l 0 51 538 l 0 51 487 l 0 0 487 l 0
0 410 m 0 0 461 l 0 51 461 l 0 51 410 l 0 0 410 l 0
0 333 m 0 0 384 l 0 51 384 l 0 51 333 l 0 0 333 l 0
0 256 m 0 0 307 l 0 51 307 l 0 51 256 l 0 0 256 l 0
0 179 m 0 0 230 l 0 51 230 l 0 51 179 l 0 0 179 l 0
0 102 m 0 0 153 l 0 51 153 l 0 51 102 l 0 0 102 l 0
0 25 m 0 0 76 l 0 51 76 l 0 51 25 l 0 0 25 l 0
76 641 m 0 76 692 l 0 128 692 l 0 128 641 l 0 76 641 l 0
153 641 m 0 153 692 l 0 205 692 l 0 205 641 l 0 153 641 l 0
153 410 m 0 153 461 l 0 205 461 l 0 205 410 l 0 153 410 l 0
153 333 m 0 153 384 l 0 205 384 l 0 205 333 l 0 153 333 l 0
153 25 m 0 153 76 l 0 205 76 l 0 205 25 l 0 153 25 l 0
230 564 m 0 230 615 l 0 282 615 l 0 282 564 l 0 230 564 l 0
230 487 m 0 230 538 l 0 282 538 l 0 282 487 l 0 230 487 l 0
230 256 m 0 230 307 l 0 282 307 l 0 282 256 l 0 230 256 l 0
230 25 m 0 230 76 l 0 282 76 l 0 282 25 l 0 230 25 l 0
307 179 m 0 307 230 l 0 358 230 l 0 358 179 l 0 307 179 l 0
307 102 m 0 307 153 l 0 358 153 l 0 358 102 l 0 307 102 l 0
EndSplineSet
EndChar

StartChar: agrave
Encoding: 224 224 160
Width: 460
VWidth: 0
Flags: W
LayerCount: 2
Fore
SplineSet
0 179 m 0 0 230 l 0 51 230 l 0 51 179 l 0 0 179 l 0
0 102 m 0 0 153 l 0 51 153 l 0 51 102 l 0 0 102 l 0
76 641 m 0 76 692 l 0 128 692 l 0 128 641 l 0 76 641 l 0
76 410 m 0 76 461 l 0 128 461 l 0 128 410 l 0 76 410 l 0
76 256 m 0 76 307 l 0 128 307 l 0 128 256 l 0 76 256 l 0
76 25 m 0 76 76 l 0 128 76 l 0 128 25 l 0 76 25 l 0
153 564 m 0 153 615 l 0 205 615 l 0 205 564 l 0 153 564 l 0
153 410 m 0 153 461 l 0 205 461 l 0 205 410 l 0 153 410 l 0
153 256 m 0 153 307 l 0 205 307 l 0 205 256 l 0 153 256 l 0
153 25 m 0 153 76 l 0 205 76 l 0 205 25 l 0 153 25 l 0
230 410 m 0 230 461 l 0 282 461 l 0 282 410 l 0 230 410 l 0
230 256 m 0 230 307 l 0 282 307 l 0 282 256 l 0 230 256 l 0
230 102 m 0 230 153 l 0 282 153 l 0 282 102 l 0 230 102 l 0
307 333 m 0 307 384 l 0 358 384 l 0 358 333 l 0 307 333 l 0
307 256 m 0 307 307 l 0 358 307 l 0 358 256 l 0 307 256 l 0
307 179 m 0 307 230 l 0 358 230 l 0 358 179 l 0 307 179 l 0
307 102 m 0 307 153 l 0 358 153 l 0 358 102 l 0 307 102 l 0
307 25 m 0 307 76 l 0 358 76 l 0 358 25 l 0 307 25 l 0
EndSplineSet
EndChar

StartChar: aacute
Encoding: 225 225 161
Width: 460
VWidth: 0
Flags: W
LayerCount: 2
Fore
SplineSet
0 179 m 0 0 230 l 0 51 230 l 0 51 179 l 0 0 179 l 0
0 102 m 0 0 153 l 0 51 153 l 0 51 102 l 0 0 102 l 0
76 410 m 0 76 461 l 0 128 461 l 0 128 410 l 0 76 410 l 0
76 256 m 0 76 307 l 0 128 307 l 0 128 256 l 0 76 256 l 0
76 25 m 0 76 76 l 0 128 76 l 0 128 25 l 0 76 25 l 0
153 564 m 0 153 615 l 0 205 615 l 0 205 564 l 0 153 564 l 0
153 410 m 0 153 461 l 0 205 461 l 0 205 410 l 0 153 410 l 0
153 256 m 0 153 307 l 0 205 307 l 0 205 256 l 0 153 256 l 0
153 25 m 0 153 76 l 0 205 76 l 0 205 25 l 0 153 25 l 0
230 641 m 0 230 692 l 0 282 692 l 0 282 641 l 0 230 641 l 0
230 410 m 0 230 461 l 0 282 461 l 0 282 410 l 0 230 410 l 0
230 256 m 0 230 307 l 0 282 307 l 0 282 256 l 0 230 256 l 0
230 102 m 0 230 153 l 0 282 153 l 0 282 102 l 0 230 102 l 0
307 333 m 0 307 384 l 0 358 384 l 0 358 333 l 0 307 333 l 0
307 256 m 0 307 307 l 0 358 307 l 0 358 256 l 0 307 256 l 0
307 179 m 0 307 230 l 0 358 230 l 0 358 179 l 0 307 179 l 0
307 102 m 0 307 153 l 0 358 153 l 0 358 102 l 0 307 102 l 0
307 25 m 0 307 76 l 0 358 76 l 0 358 25 l 0 307 25 l 0
EndSplineSet
EndChar

StartChar: acircumflex
Encoding: 226 226 162
Width: 460
VWidth: 0
Flags: W
LayerCount: 2
Fore
SplineSet
0 179 m 0 0 230 l 0 51 230 l 0 51 179 l 0 0 179 l 0
0 102 m 0 0 153 l 0 51 153 l 0 51 102 l 0 0 102 l 0
76 564 m 0 76 615 l 0 128 615 l 0 128 564 l 0 76 564 l 0
76 410 m 0 76 461 l 0 128 461 l 0 128 410 l 0 76 410 l 0
76 256 m 0 76 307 l 0 128 307 l 0 128 256 l 0 76 256 l 0
76 25 m 0 76 76 l 0 128 76 l 0 128 25 l 0 76 25 l 0
153 641 m 0 153 692 l 0 205 692 l 0 205 641 l 0 153 641 l 0
153 410 m 0 153 461 l 0 205 461 l 0 205 410 l 0 153 410 l 0
153 256 m 0 153 307 l 0 205 307 l 0 205 256 l 0 153 256 l 0
153 25 m 0 153 76 l 0 205 76 l 0 205 25 l 0 153 25 l 0
230 641 m 0 230 692 l 0 282 692 l 0 282 641 l 0 230 641 l 0
230 410 m 0 230 461 l 0 282 461 l 0 282 410 l 0 230 410 l 0
230 256 m 0 230 307 l 0 282 307 l 0 282 256 l 0 230 256 l 0
230 102 m 0 230 153 l 0 282 153 l 0 282 102 l 0 230 102 l 0
307 564 m 0 307 615 l 0 358 615 l 0 358 564 l 0 307 564 l 0
307 333 m 0 307 384 l 0 358 384 l 0 358 333 l 0 307 333 l 0
307 256 m 0 307 307 l 0 358 307 l 0 358 256 l 0 307 256 l 0
307 179 m 0 307 230 l 0 358 230 l 0 358 179 l 0 307 179 l 0
307 102 m 0 307 153 l 0 358 153 l 0 358 102 l 0 307 102 l 0
307 25 m 0 307 76 l 0 358 76 l 0 358 25 l 0 307 25 l 0
EndSplineSet
EndChar

StartChar: atilde
Encoding: 227 227 163
Width: 460
VWidth: 0
Flags: W
LayerCount: 2
Fore
SplineSet
0 179 m 0 0 230 l 0 51 230 l 0 51 179 l 0 0 179 l 0
0 102 m 0 0 153 l 0 51 153 l 0 51 102 l 0 0 102 l 0
76 564 m 0 76 615 l 0 128 615 l 0 128 564 l 0 76 564 l 0
76 410 m 0 76 461 l 0 128 461 l 0 128 410 l 0 76 410 l 0
76 256 m 0 76 307 l 0 128 307 l 0 128 256 l 0 76 256 l 0
76 25 m 0 76 76 l 0 128 76 l 0 128 25 l 0 76 25 l 0
153 641 m 0 153 692 l 0 205 692 l 0 205 641 l 0 153 641 l 0
153 410 m 0 153 461 l 0 205 461 l 0 205 410 l 0 153 410 l 0
153 256 m 0 153 307 l 0 205 307 l 0 205 256 l 0 153 256 l 0
153 25 m 0 153 76 l 0 205 76 l 0 205 25 l 0 153 25 l 0
230 564 m 0 230 615 l 0 282 615 l 0 282 564 l 0 230 564 l 0
230 410 m 0 230 461 l 0 282 461 l 0 282 410 l 0 230 410 l 0
230 256 m 0 230 307 l 0 282 307 l 0 282 256 l 0 230 256 l 0
230 102 m 0 230 153 l 0 282 153 l 0 282 102 l 0 230 102 l 0
307 641 m 0 307 692 l 0 358 692 l 0 358 641 l 0 307 641 l 0
307 333 m 0 307 384 l 0 358 384 l 0 358 333 l 0 307 333 l 0
307 256 m 0 307 307 l 0 358 307 l 0 358 256 l 0 307 256 l 0
307 179 m 0 307 230 l 0 358 230 l 0 358 179 l 0 307 179 l 0
307 102 m 0 307 153 l 0 358 153 l 0 358 102 l 0 307 102 l 0
307 25 m 0 307 76 l 0 358 76 l 0 358 25 l 0 307 25 l 0
EndSplineSet
EndChar

StartChar: adiaeresis
Encoding: 228 228 164
Width: 460
VWidth: 0
Flags: W
LayerCount: 2
Fore
SplineSet
0 179 m 0 0 230 l 0 51 230 l 0 51 179 l 0 0 179 l 0
0 102 m 0 0 153 l 0 51 153 l 0 51 102 l 0 0 102 l 0
76 641 m 0 76 692 l 0 128 692 l 0 128 641 l 0 76 641 l 0
76 564 m 0 76 615 l 0 128 615 l 0 128 564 l 0 76 564 l 0
76 410 m 0 76 461 l 0 128 461 l 0 128 410 l 0 76 410 l 0
76 256 m 0 76 307 l 0 128 307 l 0 128 256 l 0 76 256 l 0
76 25 m 0 76 76 l 0 128 76 l 0 128 25 l 0 76 25 l 0
153 410 m 0 153 461 l 0 205 461 l 0 205 410 l 0 153 410 l 0
153 256 m 0 153 307 l 0 205 307 l 0 205 256 l 0 153 256 l 0
153 25 m 0 153 76 l 0 205 76 l 0 205 25 l 0 153 25 l 0
230 641 m 0 230 692 l 0 282 692 l 0 282 641 l 0 230 641 l 0
230 564 m 0 230 615 l 0 282 615 l 0 282 564 l 0 230 564 l 0
230 410 m 0 230 461 l 0 282 461 l 0 282 410 l 0 230 410 l 0
230 256 m 0 230 307 l 0 282 307 l 0 282 256 l 0 230 256 l 0
230 102 m 0 230 153 l 0 282 153 l 0 282 102 l 0 230 102 l 0
307 333 m 0 307 384 l 0 358 384 l 0 358 333 l 0 307 333 l 0
307 256 m 0 307 307 l 0 358 307 l 0 358 256 l 0 307 256 l 0
307 179 m 0 307 230 l 0 358 230 l 0 358 179 l 0 307 179 l 0
307 102 m 0 307 153 l 0 358 153 l 0 358 102 l 0 307 102 l 0
307 25 m 0 307 76 l 0 358 76 l 0 358 25 l 0 307 25 l 0
EndSplineSet
EndChar

StartChar: aring
Encoding: 229 229 165
Width: 460
VWidth: 0
Flags: W
LayerCount: 2
Fore
SplineSet
0 179 m 0 0 230 l 0 51 230 l 0 51 179 l 0 0 179 l 0
0 102 m 0 0 153 l 0 51 153 l 0 51 102 l 0 0 102 l 0
76 641 m 0 76 692 l 0 128 692 l 0 128 641 l 0 76 641 l 0
76 410 m 0 76 461 l 0 128 461 l 0 128 410 l 0 76 410 l 0
76 256 m 0 76 307 l 0 128 307 l 0 128 256 l 0 76 256 l 0
76 25 m 0 76 76 l 0 128 76 l 0 128 25 l 0 76 25 l 0
153 717 m 0 153 769 l 0 205 769 l 0 205 717 l 0 153 717 l 0
153 564 m 0 153 615 l 0 205 615 l 0 205 564 l 0 153 564 l 0
153 410 m 0 153 461 l 0 205 461 l 0 205 410 l 0 153 410 l 0
153 256 m 0 153 307 l 0 205 307 l 0 205 256 l 0 153 256 l 0
153 25 m 0 153 76 l 0 205 76 l 0 205 25 l 0 153 25 l 0
230 717 m 0 230 769 l 0 282 769 l 0 282 717 l 0 230 717 l 0
230 564 m 0 230 615 l 0 282 615 l 0 282 564 l 0 230 564 l 0
230 410 m 0 230 461 l 0 282 461 l 0 282 410 l 0 230 410 l 0
230 256 m 0 230 307 l 0 282 307 l 0 282 256 l 0 230 256 l 0
230 102 m 0 230 153 l 0 282 153 l 0 282 102 l 0 230 102 l 0
307 641 m 0 307 692 l 0 358 692 l 0 358 641 l 0 307 641 l 0
307 333 m 0 307 384 l 0 358 384 l 0 358 333 l 0 307 333 l 0
307 256 m 0 307 307 l 0 358 307 l 0 358 256 l 0 307 256 l 0
307 179 m 0 307 230 l 0 358 230 l 0 358 179 l 0 307 179 l 0
307 102 m 0 307 153 l 0 358 153 l 0 358 102 l 0 307 102 l 0
307 25 m 0 307 76 l 0 358 76 l 0 358 25 l 0 307 25 l 0
EndSplineSet
EndChar

StartChar: ae
Encoding: 230 230 166
Width: 460
VWidth: 0
Flags: W
LayerCount: 2
Fore
SplineSet
0 179 m 0 0 230 l 0 51 230 l 0 51 179 l 0 0 179 l 0
0 102 m 0 0 153 l 0 51 153 l 0 51 102 l 0 0 102 l 0
76 410 m 0 76 461 l 0 128 461 l 0 128 410 l 0 76 410 l 0
76 256 m 0 76 307 l 0 128 307 l 0 128 256 l 0 76 256 l 0
76 25 m 0 76 76 l 0 128 76 l 0 128 25 l 0 76 25 l 0
153 410 m 0 153 461 l 0 205 461 l 0 205 410 l 0 153 410 l 0
153 333 m 0 153 384 l 0 205 384 l 0 205 333 l 0 153 333 l 0
153 256 m 0 153 307 l 0 205 307 l 0 205 256 l 0 153 256 l 0
153 179 m 0 153 230 l 0 205 230 l 0 205 179 l 0 153 179 l 0
153 102 m 0 153 153 l 0 205 153 l 0 205 102 l 0 153 102 l 0
230 410 m 0 230 461 l 0 282 461 l 0 282 410 l 0 230 410 l 0
230 256 m 0 230 307 l 0 282 307 l 0 282 256 l 0 230 256 l 0
230 25 m 0 230 76 l 0 282 76 l 0 282 25 l 0 230 25 l 0
307 333 m 0 307 384 l 0 358 384 l 0 358 333 l 0 307 333 l 0
307 102 m 0 307 153 l 0 358 153 l 0 358 102 l 0 307 102 l 0
EndSplineSet
EndChar

StartChar: ccedilla
Encoding: 231 231 167
Width: 460
VWidth: 0
Flags: W
LayerCount: 2
Fore
SplineSet
0 333 m 0 0 384 l 0 51 384 l 0 51 333 l 0 0 333 l 0
0 256 m 0 0 307 l 0 51 307 l 0 51 256 l 0 0 256 l 0
0 179 m 0 0 230 l 0 51 230 l 0 51 179 l 0 0 179 l 0
0 102 m 0 0 153 l 0 51 153 l 0 51 102 l 0 0 102 l 0
76 410 m 0 76 461 l 0 128 461 l 0 128 410 l 0 76 410 l 0
76 25 m 0 76 76 l 0 128 76 l 0 128 25 l 0 76 25 l 0
76 -128 m 0 76 -76 l 0 128 -76 l 0 128 -128 l 0 76 -128 l 0
153 410 m 0 153 461 l 0 205 461 l 0 205 410 l 0 153 410 l 0
153 25 m 0 153 76 l 0 205 76 l 0 205 25 l 0 153 25 l 0
153 -51 m 0 153 0 l 0 205 0 l 0 205 -51 l 0 153 -51 l 0
230 410 m 0 230 461 l 0 282 461 l 0 282 410 l 0 230 410 l 0
230 25 m 0 230 76 l 0 282 76 l 0 282 25 l 0 230 25 l 0
307 333 m 0 307 384 l 0 358 384 l 0 358 333 l 0 307 333 l 0
307 102 m 0 307 153 l 0 358 153 l 0 358 102 l 0 307 102 l 0
EndSplineSet
EndChar

StartChar: egrave
Encoding: 232 232 168
Width: 460
VWidth: 0
Flags: W
LayerCount: 2
Fore
SplineSet
0 333 m 0 0 384 l 0 51 384 l 0 51 333 l 0 0 333 l 0
0 256 m 0 0 307 l 0 51 307 l 0 51 256 l 0 0 256 l 0
0 179 m 0 0 230 l 0 51 230 l 0 51 179 l 0 0 179 l 0
0 102 m 0 0 153 l 0 51 153 l 0 51 102 l 0 0 102 l 0
76 641 m 0 76 692 l 0 128 692 l 0 128 641 l 0 76 641 l 0
76 410 m 0 76 461 l 0 128 461 l 0 128 410 l 0 76 410 l 0
76 256 m 0 76 307 l 0 128 307 l 0 128 256 l 0 76 256 l 0
76 25 m 0 76 76 l 0 128 76 l 0 128 25 l 0 76 25 l 0
153 564 m 0 153 615 l 0 205 615 l 0 205 564 l 0 153 564 l 0
153 410 m 0 153 461 l 0 205 461 l 0 205 410 l 0 153 410 l 0
153 256 m 0 153 307 l 0 205 307 l 0 205 256 l 0 153 256 l 0
153 25 m 0 153 76 l 0 205 76 l 0 205 25 l 0 153 25 l 0
230 410 m 0 230 461 l 0 282 461 l 0 282 410 l 0 230 410 l 0
230 256 m 0 230 307 l 0 282 307 l 0 282 256 l 0 230 256 l 0
230 25 m 0 230 76 l 0 282 76 l 0 282 25 l 0 230 25 l 0
307 333 m 0 307 384 l 0 358 384 l 0 358 333 l 0 307 333 l 0
307 256 m 0 307 307 l 0 358 307 l 0 358 256 l 0 307 256 l 0
307 102 m 0 307 153 l 0 358 153 l 0 358 102 l 0 307 102 l 0
EndSplineSet
EndChar

StartChar: eacute
Encoding: 233 233 169
Width: 460
VWidth: 0
Flags: W
LayerCount: 2
Fore
SplineSet
0 333 m 0 0 384 l 0 51 384 l 0 51 333 l 0 0 333 l 0
0 256 m 0 0 307 l 0 51 307 l 0 51 256 l 0 0 256 l 0
0 179 m 0 0 230 l 0 51 230 l 0 51 179 l 0 0 179 l 0
0 102 m 0 0 153 l 0 51 153 l 0 51 102 l 0 0 102 l 0
76 410 m 0 76 461 l 0 128 461 l 0 128 410 l 0 76 410 l 0
76 256 m 0 76 307 l 0 128 307 l 0 128 256 l 0 76 256 l 0
76 25 m 0 76 76 l 0 128 76 l 0 128 25 l 0 76 25 l 0
153 564 m 0 153 615 l 0 205 615 l 0 205 564 l 0 153 564 l 0
153 410 m 0 153 461 l 0 205 461 l 0 205 410 l 0 153 410 l 0
153 256 m 0 153 307 l 0 205 307 l 0 205 256 l 0 153 256 l 0
153 25 m 0 153 76 l 0 205 76 l 0 205 25 l 0 153 25 l 0
230 641 m 0 230 692 l 0 282 692 l 0 282 641 l 0 230 641 l 0
230 410 m 0 230 461 l 0 282 461 l 0 282 410 l 0 230 410 l 0
230 256 m 0 230 307 l 0 282 307 l 0 282 256 l 0 230 256 l 0
230 25 m 0 230 76 l 0 282 76 l 0 282 25 l 0 230 25 l 0
307 333 m 0 307 384 l 0 358 384 l 0 358 333 l 0 307 333 l 0
307 256 m 0 307 307 l 0 358 307 l 0 358 256 l 0 307 256 l 0
307 102 m 0 307 153 l 0 358 153 l 0 358 102 l 0 307 102 l 0
EndSplineSet
EndChar

StartChar: ecircumflex
Encoding: 234 234 170
Width: 460
VWidth: 0
Flags: W
LayerCount: 2
Fore
SplineSet
0 333 m 0 0 384 l 0 51 384 l 0 51 333 l 0 0 333 l 0
0 256 m 0 0 307 l 0 51 307 l 0 51 256 l 0 0 256 l 0
0 179 m 0 0 230 l 0 51 230 l 0 51 179 l 0 0 179 l 0
0 102 m 0 0 153 l 0 51 153 l 0 51 102 l 0 0 102 l 0
76 564 m 0 76 615 l 0 128 615 l 0 128 564 l 0 76 564 l 0
76 410 m 0 76 461 l 0 128 461 l 0 128 410 l 0 76 410 l 0
76 256 m 0 76 307 l 0 128 307 l 0 128 256 l 0 76 256 l 0
76 25 m 0 76 76 l 0 128 76 l 0 128 25 l 0 76 25 l 0
153 641 m 0 153 692 l 0 205 692 l 0 205 641 l 0 153 641 l 0
153 410 m 0 153 461 l 0 205 461 l 0 205 410 l 0 153 410 l 0
153 256 m 0 153 307 l 0 205 307 l 0 205 256 l 0 153 256 l 0
153 25 m 0 153 76 l 0 205 76 l 0 205 25 l 0 153 25 l 0
230 641 m 0 230 692 l 0 282 692 l 0 282 641 l 0 230 641 l 0
230 410 m 0 230 461 l 0 282 461 l 0 282 410 l 0 230 410 l 0
230 256 m 0 230 307 l 0 282 307 l 0 282 256 l 0 230 256 l 0
230 25 m 0 230 76 l 0 282 76 l 0 282 25 l 0 230 25 l 0
307 564 m 0 307 615 l 0 358 615 l 0 358 564 l 0 307 564 l 0
307 333 m 0 307 384 l 0 358 384 l 0 358 333 l 0 307 333 l 0
307 256 m 0 307 307 l 0 358 307 l 0 358 256 l 0 307 256 l 0
307 102 m 0 307 153 l 0 358 153 l 0 358 102 l 0 307 102 l 0
EndSplineSet
EndChar

StartChar: ediaeresis
Encoding: 235 235 171
Width: 460
VWidth: 0
Flags: W
LayerCount: 2
Fore
SplineSet
0 333 m 0 0 384 l 0 51 384 l 0 51 333 l 0 0 333 l 0
0 256 m 0 0 307 l 0 51 307 l 0 51 256 l 0 0 256 l 0
0 179 m 0 0 230 l 0 51 230 l 0 51 179 l 0 0 179 l 0
0 102 m 0 0 153 l 0 51 153 l 0 51 102 l 0 0 102 l 0
76 641 m 0 76 692 l 0 128 692 l 0 128 641 l 0 76 641 l 0
76 564 m 0 76 615 l 0 128 615 l 0 128 564 l 0 76 564 l 0
76 410 m 0 76 461 l 0 128 461 l 0 128 410 l 0 76 410 l 0
76 256 m 0 76 307 l 0 128 307 l 0 128 256 l 0 76 256 l 0
76 25 m 0 76 76 l 0 128 76 l 0 128 25 l 0 76 25 l 0
153 410 m 0 153 461 l 0 205 461 l 0 205 410 l 0 153 410 l 0
153 256 m 0 153 307 l 0 205 307 l 0 205 256 l 0 153 256 l 0
153 25 m 0 153 76 l 0 205 76 l 0 205 25 l 0 153 25 l 0
230 641 m 0 230 692 l 0 282 692 l 0 282 641 l 0 230 641 l 0
230 564 m 0 230 615 l 0 282 615 l 0 282 564 l 0 230 564 l 0
230 410 m 0 230 461 l 0 282 461 l 0 282 410 l 0 230 410 l 0
230 256 m 0 230 307 l 0 282 307 l 0 282 256 l 0 230 256 l 0
230 25 m 0 230 76 l 0 282 76 l 0 282 25 l 0 230 25 l 0
307 333 m 0 307 384 l 0 358 384 l 0 358 333 l 0 307 333 l 0
307 256 m 0 307 307 l 0 358 307 l 0 358 256 l 0 307 256 l 0
307 102 m 0 307 153 l 0 358 153 l 0 358 102 l 0 307 102 l 0
EndSplineSet
EndChar

StartChar: igrave
Encoding: 236 236 172
Width: 460
VWidth: 0
Flags: W
LayerCount: 2
Fore
SplineSet
76 641 m 0 76 692 l 0 128 692 l 0 128 641 l 0 76 641 l 0
76 410 m 0 76 461 l 0 128 461 l 0 128 410 l 0 76 410 l 0
76 25 m 0 76 76 l 0 128 76 l 0 128 25 l 0 76 25 l 0
153 564 m 0 153 615 l 0 205 615 l 0 205 564 l 0 153 564 l 0
153 410 m 0 153 461 l 0 205 461 l 0 205 410 l 0 153 410 l 0
153 333 m 0 153 384 l 0 205 384 l 0 205 333 l 0 153 333 l 0
153 256 m 0 153 307 l 0 205 307 l 0 205 256 l 0 153 256 l 0
153 179 m 0 153 230 l 0 205 230 l 0 205 179 l 0 153 179 l 0
153 102 m 0 153 153 l 0 205 153 l 0 205 102 l 0 153 102 l 0
153 25 m 0 153 76 l 0 205 76 l 0 205 25 l 0 153 25 l 0
230 25 m 0 230 76 l 0 282 76 l 0 282 25 l 0 230 25 l 0
EndSplineSet
EndChar

StartChar: iacute
Encoding: 237 237 173
Width: 460
VWidth: 0
Flags: W
LayerCount: 2
Fore
SplineSet
76 410 m 0 76 461 l 0 128 461 l 0 128 410 l 0 76 410 l 0
76 25 m 0 76 76 l 0 128 76 l 0 128 25 l 0 76 25 l 0
153 564 m 0 153 615 l 0 205 615 l 0 205 564 l 0 153 564 l 0
153 410 m 0 153 461 l 0 205 461 l 0 205 410 l 0 153 410 l 0
153 333 m 0 153 384 l 0 205 384 l 0 205 333 l 0 153 333 l 0
153 256 m 0 153 307 l 0 205 307 l 0 205 256 l 0 153 256 l 0
153 179 m 0 153 230 l 0 205 230 l 0 205 179 l 0 153 179 l 0
153 102 m 0 153 153 l 0 205 153 l 0 205 102 l 0 153 102 l 0
153 25 m 0 153 76 l 0 205 76 l 0 205 25 l 0 153 25 l 0
230 641 m 0 230 692 l 0 282 692 l 0 282 641 l 0 230 641 l 0
230 25 m 0 230 76 l 0 282 76 l 0 282 25 l 0 230 25 l 0
EndSplineSet
EndChar

StartChar: icircumflex
Encoding: 238 238 174
Width: 460
VWidth: 0
Flags: W
LayerCount: 2
Fore
SplineSet
76 564 m 0 76 615 l 0 128 615 l 0 128 564 l 0 76 564 l 0
76 410 m 0 76 461 l 0 128 461 l 0 128 410 l 0 76 410 l 0
76 25 m 0 76 76 l 0 128 76 l 0 128 25 l 0 76 25 l 0
153 641 m 0 153 692 l 0 205 692 l 0 205 641 l 0 153 641 l 0
153 410 m 0 153 461 l 0 205 461 l 0 205 410 l 0 153 410 l 0
153 333 m 0 153 384 l 0 205 384 l 0 205 333 l 0 153 333 l 0
153 256 m 0 153 307 l 0 205 307 l 0 205 256 l 0 153 256 l 0
153 179 m 0 153 230 l 0 205 230 l 0 205 179 l 0 153 179 l 0
153 102 m 0 153 153 l 0 205 153 l 0 205 102 l 0 153 102 l 0
153 25 m 0 153 76 l 0 205 76 l 0 205 25 l 0 153 25 l 0
230 641 m 0 230 692 l 0 282 692 l 0 282 641 l 0 230 641 l 0
230 25 m 0 230 76 l 0 282 76 l 0 282 25 l 0 230 25 l 0
307 564 m 0 307 615 l 0 358 615 l 0 358 564 l 0 307 564 l 0
EndSplineSet
EndChar

StartChar: idiaeresis
Encoding: 239 239 175
Width: 460
VWidth: 0
Flags: W
LayerCount: 2
Fore
SplineSet
76 641 m 0 76 692 l 0 128 692 l 0 128 641 l 0 76 641 l 0
76 564 m 0 76 615 l 0 128 615 l 0 128 564 l 0 76 564 l 0
76 410 m 0 76 461 l 0 128 461 l 0 128 410 l 0 76 410 l 0
76 25 m 0 76 76 l 0 128 76 l 0 128 25 l 0 76 25 l 0
153 410 m 0 153 461 l 0 205 461 l 0 205 410 l 0 153 410 l 0
153 333 m 0 153 384 l 0 205 384 l 0 205 333 l 0 153 333 l 0
153 256 m 0 153 307 l 0 205 307 l 0 205 256 l 0 153 256 l 0
153 179 m 0 153 230 l 0 205 230 l 0 205 179 l 0 153 179 l 0
153 102 m 0 153 153 l 0 205 153 l 0 205 102 l 0 153 102 l 0
153 25 m 0 153 76 l 0 205 76 l 0 205 25 l 0 153 25 l 0
230 641 m 0 230 692 l 0 282 692 l 0 282 641 l 0 230 641 l 0
230 564 m 0 230 615 l 0 282 615 l 0 282 564 l 0 230 564 l 0
230 25 m 0 230 76 l 0 282 76 l 0 282 25 l 0 230 25 l 0
EndSplineSet
EndChar

StartChar: eth
Encoding: 240 240 176
Width: 460
VWidth: 0
Flags: W
LayerCount: 2
Fore
SplineSet
0 333 m 0 0 384 l 0 51 384 l 0 51 333 l 0 0 333 l 0
0 256 m 0 0 307 l 0 51 307 l 0 51 256 l 0 0 256 l 0
0 179 m 0 0 230 l 0 51 230 l 0 51 179 l 0 0 179 l 0
0 102 m 0 0 153 l 0 51 153 l 0 51 102 l 0 0 102 l 0
76 717 m 0 76 769 l 0 128 769 l 0 128 717 l 0 76 717 l 0
76 564 m 0 76 615 l 0 128 615 l 0 128 564 l 0 76 564 l 0
76 410 m 0 76 461 l 0 128 461 l 0 128 410 l 0 76 410 l 0
76 25 m 0 76 76 l 0 128 76 l 0 128 25 l 0 76 25 l 0
153 641 m 0 153 692 l 0 205 692 l 0 205 641 l 0 153 641 l 0
153 564 m 0 153 615 l 0 205 615 l 0 205 564 l 0 153 564 l 0
153 410 m 0 153 461 l 0 205 461 l 0 205 410 l 0 153 410 l 0
153 25 m 0 153 76 l 0 205 76 l 0 205 25 l 0 153 25 l 0
230 717 m 0 230 769 l 0 282 769 l 0 282 717 l 0 230 717 l 0
230 487 m 0 230 538 l 0 282 538 l 0 282 487 l 0 230 487 l 0
230 410 m 0 230 461 l 0 282 461 l 0 282 410 l 0 230 410 l 0
230 25 m 0 230 76 l 0 282 76 l 0 282 25 l 0 230 25 l 0
307 333 m 0 307 384 l 0 358 384 l 0 358 333 l 0 307 333 l 0
307 256 m 0 307 307 l 0 358 307 l 0 358 256 l 0 307 256 l 0
307 179 m 0 307 230 l 0 358 230 l 0 358 179 l 0 307 179 l 0
307 102 m 0 307 153 l 0 358 153 l 0 358 102 l 0 307 102 l 0
EndSplineSet
EndChar

StartChar: ntilde
Encoding: 241 241 177
Width: 460
VWidth: 0
Flags: W
LayerCount: 2
Fore
SplineSet
0 410 m 0 0 461 l 0 51 461 l 0 51 410 l 0 0 410 l 0
0 333 m 0 0 384 l 0 51 384 l 0 51 333 l 0 0 333 l 0
0 256 m 0 0 307 l 0 51 307 l 0 51 256 l 0 0 256 l 0
0 179 m 0 0 230 l 0 51 230 l 0 51 179 l 0 0 179 l 0
0 102 m 0 0 153 l 0 51 153 l 0 51 102 l 0 0 102 l 0
0 25 m 0 0 76 l 0 51 76 l 0 51 25 l 0 0 25 l 0
76 564 m 0 76 615 l 0 128 615 l 0 128 564 l 0 76 564 l 0
76 333 m 0 76 384 l 0 128 384 l 0 128 333 l 0 76 333 l 0
153 641 m 0 153 692 l 0 205 692 l 0 205 641 l 0 153 641 l 0
153 410 m 0 153 461 l 0 205 461 l 0 205 410 l 0 153 410 l 0
230 564 m 0 230 615 l 0 282 615 l 0 282 564 l 0 230 564 l 0
230 410 m 0 230 461 l 0 282 461 l 0 282 410 l 0 230 410 l 0
307 641 m 0 307 692 l 0 358 692 l 0 358 641 l 0 307 641 l 0
307 333 m 0 307 384 l 0 358 384 l 0 358 333 l 0 307 333 l 0
307 256 m 0 307 307 l 0 358 307 l 0 358 256 l 0 307 256 l 0
307 179 m 0 307 230 l 0 358 230 l 0 358 179 l 0 307 179 l 0
307 102 m 0 307 153 l 0 358 153 l 0 358 102 l 0 307 102 l 0
307 25 m 0 307 76 l 0 358 76 l 0 358 25 l 0 307 25 l 0
EndSplineSet
EndChar

StartChar: ograve
Encoding: 242 242 178
Width: 460
VWidth: 0
Flags: W
LayerCount: 2
Fore
SplineSet
0 333 m 0 0 384 l 0 51 384 l 0 51 333 l 0 0 333 l 0
0 256 m 0 0 307 l 0 51 307 l 0 51 256 l 0 0 256 l 0
0 179 m 0 0 230 l 0 51 230 l 0 51 179 l 0 0 179 l 0
0 102 m 0 0 153 l 0 51 153 l 0 51 102 l 0 0 102 l 0
76 641 m 0 76 692 l 0 128 692 l 0 128 641 l 0 76 641 l 0
76 410 m 0 76 461 l 0 128 461 l 0 128 410 l 0 76 410 l 0
76 25 m 0 76 76 l 0 128 76 l 0 128 25 l 0 76 25 l 0
153 564 m 0 153 615 l 0 205 615 l 0 205 564 l 0 153 564 l 0
153 410 m 0 153 461 l 0 205 461 l 0 205 410 l 0 153 410 l 0
153 25 m 0 153 76 l 0 205 76 l 0 205 25 l 0 153 25 l 0
230 410 m 0 230 461 l 0 282 461 l 0 282 410 l 0 230 410 l 0
230 25 m 0 230 76 l 0 282 76 l 0 282 25 l 0 230 25 l 0
307 333 m 0 307 384 l 0 358 384 l 0 358 333 l 0 307 333 l 0
307 256 m 0 307 307 l 0 358 307 l 0 358 256 l 0 307 256 l 0
307 179 m 0 307 230 l 0 358 230 l 0 358 179 l 0 307 179 l 0
307 102 m 0 307 153 l 0 358 153 l 0 358 102 l 0 307 102 l 0
EndSplineSet
EndChar

StartChar: oacute
Encoding: 243 243 179
Width: 460
VWidth: 0
Flags: W
LayerCount: 2
Fore
SplineSet
0 333 m 0 0 384 l 0 51 384 l 0 51 333 l 0 0 333 l 0
0 256 m 0 0 307 l 0 51 307 l 0 51 256 l 0 0 256 l 0
0 179 m 0 0 230 l 0 51 230 l 0 51 179 l 0 0 179 l 0
0 102 m 0 0 153 l 0 51 153 l 0 51 102 l 0 0 102 l 0
76 410 m 0 76 461 l 0 128 461 l 0 128 410 l 0 76 410 l 0
76 25 m 0 76 76 l 0 128 76 l 0 128 25 l 0 76 25 l 0
153 564 m 0 153 615 l 0 205 615 l 0 205 564 l 0 153 564 l 0
153 410 m 0 153 461 l 0 205 461 l 0 205 410 l 0 153 410 l 0
153 25 m 0 153 76 l 0 205 76 l 0 205 25 l 0 153 25 l 0
230 641 m 0 230 692 l 0 282 692 l 0 282 641 l 0 230 641 l 0
230 410 m 0 230 461 l 0 282 461 l 0 282 410 l 0 230 410 l 0
230 25 m 0 230 76 l 0 282 76 l 0 282 25 l 0 230 25 l 0
307 333 m 0 307 384 l 0 358 384 l 0 358 333 l 0 307 333 l 0
307 256 m 0 307 307 l 0 358 307 l 0 358 256 l 0 307 256 l 0
307 179 m 0 307 230 l 0 358 230 l 0 358 179 l 0 307 179 l 0
307 102 m 0 307 153 l 0 358 153 l 0 358 102 l 0 307 102 l 0
EndSplineSet
EndChar

StartChar: ocircumflex
Encoding: 244 244 180
Width: 460
VWidth: 0
Flags: W
LayerCount: 2
Fore
SplineSet
0 333 m 0 0 384 l 0 51 384 l 0 51 333 l 0 0 333 l 0
0 256 m 0 0 307 l 0 51 307 l 0 51 256 l 0 0 256 l 0
0 179 m 0 0 230 l 0 51 230 l 0 51 179 l 0 0 179 l 0
0 102 m 0 0 153 l 0 51 153 l 0 51 102 l 0 0 102 l 0
76 564 m 0 76 615 l 0 128 615 l 0 128 564 l 0 76 564 l 0
76 410 m 0 76 461 l 0 128 461 l 0 128 410 l 0 76 410 l 0
76 25 m 0 76 76 l 0 128 76 l 0 128 25 l 0 76 25 l 0
153 641 m 0 153 692 l 0 205 692 l 0 205 641 l 0 153 641 l 0
153 410 m 0 153 461 l 0 205 461 l 0 205 410 l 0 153 410 l 0
153 25 m 0 153 76 l 0 205 76 l 0 205 25 l 0 153 25 l 0
230 641 m 0 230 692 l 0 282 692 l 0 282 641 l 0 230 641 l 0
230 410 m 0 230 461 l 0 282 461 l 0 282 410 l 0 230 410 l 0
230 25 m 0 230 76 l 0 282 76 l 0 282 25 l 0 230 25 l 0
307 564 m 0 307 615 l 0 358 615 l 0 358 564 l 0 307 564 l 0
307 333 m 0 307 384 l 0 358 384 l 0 358 333 l 0 307 333 l 0
307 256 m 0 307 307 l 0 358 307 l 0 358 256 l 0 307 256 l 0
307 179 m 0 307 230 l 0 358 230 l 0 358 179 l 0 307 179 l 0
307 102 m 0 307 153 l 0 358 153 l 0 358 102 l 0 307 102 l 0
EndSplineSet
EndChar

StartChar: otilde
Encoding: 245 245 181
Width: 460
VWidth: 0
Flags: W
LayerCount: 2
Fore
SplineSet
0 333 m 0 0 384 l 0 51 384 l 0 51 333 l 0 0 333 l 0
0 256 m 0 0 307 l 0 51 307 l 0 51 256 l 0 0 256 l 0
0 179 m 0 0 230 l 0 51 230 l 0 51 179 l 0 0 179 l 0
0 102 m 0 0 153 l 0 51 153 l 0 51 102 l 0 0 102 l 0
76 564 m 0 76 615 l 0 128 615 l 0 128 564 l 0 76 564 l 0
76 410 m 0 76 461 l 0 128 461 l 0 128 410 l 0 76 410 l 0
76 25 m 0 76 76 l 0 128 76 l 0 128 25 l 0 76 25 l 0
153 641 m 0 153 692 l 0 205 692 l 0 205 641 l 0 153 641 l 0
153 410 m 0 153 461 l 0 205 461 l 0 205 410 l 0 153 410 l 0
153 25 m 0 153 76 l 0 205 76 l 0 205 25 l 0 153 25 l 0
230 564 m 0 230 615 l 0 282 615 l 0 282 564 l 0 230 564 l 0
230 410 m 0 230 461 l 0 282 461 l 0 282 410 l 0 230 410 l 0
230 25 m 0 230 76 l 0 282 76 l 0 282 25 l 0 230 25 l 0
307 641 m 0 307 692 l 0 358 692 l 0 358 641 l 0 307 641 l 0
307 333 m 0 307 384 l 0 358 384 l 0 358 333 l 0 307 333 l 0
307 256 m 0 307 307 l 0 358 307 l 0 358 256 l 0 307 256 l 0
307 179 m 0 307 230 l 0 358 230 l 0 358 179 l 0 307 179 l 0
307 102 m 0 307 153 l 0 358 153 l 0 358 102 l 0 307 102 l 0
EndSplineSet
EndChar

StartChar: odiaeresis
Encoding: 246 246 182
Width: 460
VWidth: 0
Flags: W
LayerCount: 2
Fore
SplineSet
0 333 m 0 0 384 l 0 51 384 l 0 51 333 l 0 0 333 l 0
0 256 m 0 0 307 l 0 51 307 l 0 51 256 l 0 0 256 l 0
0 179 m 0 0 230 l 0 51 230 l 0 51 179 l 0 0 179 l 0
0 102 m 0 0 153 l 0 51 153 l 0 51 102 l 0 0 102 l 0
76 641 m 0 76 692 l 0 128 692 l 0 128 641 l 0 76 641 l 0
76 564 m 0 76 615 l 0 128 615 l 0 128 564 l 0 76 564 l 0
76 410 m 0 76 461 l 0 128 461 l 0 128 410 l 0 76 410 l 0
76 25 m 0 76 76 l 0 128 76 l 0 128 25 l 0 76 25 l 0
153 410 m 0 153 461 l 0 205 461 l 0 205 410 l 0 153 410 l 0
153 25 m 0 153 76 l 0 205 76 l 0 205 25 l 0 153 25 l 0
230 641 m 0 230 692 l 0 282 692 l 0 282 641 l 0 230 641 l 0
230 564 m 0 230 615 l 0 282 615 l 0 282 564 l 0 230 564 l 0
230 410 m 0 230 461 l 0 282 461 l 0 282 410 l 0 230 410 l 0
230 25 m 0 230 76 l 0 282 76 l 0 282 25 l 0 230 25 l 0
307 333 m 0 307 384 l 0 358 384 l 0 358 333 l 0 307 333 l 0
307 256 m 0 307 307 l 0 358 307 l 0 358 256 l 0 307 256 l 0
307 179 m 0 307 230 l 0 358 230 l 0 358 179 l 0 307 179 l 0
307 102 m 0 307 153 l 0 358 153 l 0 358 102 l 0 307 102 l 0
EndSplineSet
EndChar

StartChar: division
Encoding: 247 247 183
Width: 460
VWidth: 0
Flags: W
LayerCount: 2
Fore
SplineSet
0 333 m 0 0 384 l 0 51 384 l 0 51 333 l 0 0 333 l 0
76 333 m 0 76 384 l 0 128 384 l 0 128 333 l 0 76 333 l 0
153 564 m 0 153 615 l 0 205 615 l 0 205 564 l 0 153 564 l 0
153 487 m 0 153 538 l 0 205 538 l 0 205 487 l 0 153 487 l 0
153 333 m 0 153 384 l 0 205 384 l 0 205 333 l 0 153 333 l 0
153 179 m 0 153 230 l 0 205 230 l 0 205 179 l 0 153 179 l 0
153 102 m 0 153 153 l 0 205 153 l 0 205 102 l 0 153 102 l 0
230 333 m 0 230 384 l 0 282 384 l 0 282 333 l 0 230 333 l 0
307 333 m 0 307 384 l 0 358 384 l 0 358 333 l 0 307 333 l 0
EndSplineSet
EndChar

StartChar: oslash
Encoding: 248 248 184
Width: 460
VWidth: 0
Flags: W
LayerCount: 2
Fore
SplineSet
0 333 m 0 0 384 l 0 51 384 l 0 51 333 l 0 0 333 l 0
0 256 m 0 0 307 l 0 51 307 l 0 51 256 l 0 0 256 l 0
0 179 m 0 0 230 l 0 51 230 l 0 51 179 l 0 0 179 l 0
0 102 m 0 0 153 l 0 51 153 l 0 51 102 l 0 0 102 l 0
0 -51 m 0 0 0 l 0 51 0 l 0 51 -51 l 0 0 -51 l 0
76 410 m 0 76 461 l 0 128 461 l 0 128 410 l 0 76 410 l 0
76 102 m 0 76 153 l 0 128 153 l 0 128 102 l 0 76 102 l 0
76 25 m 0 76 76 l 0 128 76 l 0 128 25 l 0 76 25 l 0
153 410 m 0 153 461 l 0 205 461 l 0 205 410 l 0 153 410 l 0
153 256 m 0 153 307 l 0 205 307 l 0 205 256 l 0 153 256 l 0
153 179 m 0 153 230 l 0 205 230 l 0 205 179 l 0 153 179 l 0
153 25 m 0 153 76 l 0 205 76 l 0 205 25 l 0 153 25 l 0
230 410 m 0 230 461 l 0 282 461 l 0 282 410 l 0 230 410 l 0
230 333 m 0 230 384 l 0 282 384 l 0 282 333 l 0 230 333 l 0
230 25 m 0 230 76 l 0 282 76 l 0 282 25 l 0 230 25 l 0
307 487 m 0 307 538 l 0 358 538 l 0 358 487 l 0 307 487 l 0
307 333 m 0 307 384 l 0 358 384 l 0 358 333 l 0 307 333 l 0
307 256 m 0 307 307 l 0 358 307 l 0 358 256 l 0 307 256 l 0
307 179 m 0 307 230 l 0 358 230 l 0 358 179 l 0 307 179 l 0
307 102 m 0 307 153 l 0 358 153 l 0 358 102 l 0 307 102 l 0
EndSplineSet
EndChar

StartChar: ugrave
Encoding: 249 249 185
Width: 460
VWidth: 0
Flags: W
LayerCount: 2
Fore
SplineSet
0 410 m 0 0 461 l 0 51 461 l 0 51 410 l 0 0 410 l 0
0 333 m 0 0 384 l 0 51 384 l 0 51 333 l 0 0 333 l 0
0 256 m 0 0 307 l 0 51 307 l 0 51 256 l 0 0 256 l 0
0 179 m 0 0 230 l 0 51 230 l 0 51 179 l 0 0 179 l 0
0 102 m 0 0 153 l 0 51 153 l 0 51 102 l 0 0 102 l 0
76 641 m 0 76 692 l 0 128 692 l 0 128 641 l 0 76 641 l 0
76 25 m 0 76 76 l 0 128 76 l 0 128 25 l 0 76 25 l 0
153 564 m 0 153 615 l 0 205 615 l 0 205 564 l 0 153 564 l 0
153 25 m 0 153 76 l 0 205 76 l 0 205 25 l 0 153 25 l 0
230 102 m 0 230 153 l 0 282 153 l 0 282 102 l 0 230 102 l 0
307 410 m 0 307 461 l 0 358 461 l 0 358 410 l 0 307 410 l 0
307 333 m 0 307 384 l 0 358 384 l 0 358 333 l 0 307 333 l 0
307 256 m 0 307 307 l 0 358 307 l 0 358 256 l 0 307 256 l 0
307 179 m 0 307 230 l 0 358 230 l 0 358 179 l 0 307 179 l 0
307 102 m 0 307 153 l 0 358 153 l 0 358 102 l 0 307 102 l 0
307 25 m 0 307 76 l 0 358 76 l 0 358 25 l 0 307 25 l 0
EndSplineSet
EndChar

StartChar: uacute
Encoding: 250 250 186
Width: 460
VWidth: 0
Flags: W
LayerCount: 2
Fore
SplineSet
0 410 m 0 0 461 l 0 51 461 l 0 51 410 l 0 0 410 l 0
0 333 m 0 0 384 l 0 51 384 l 0 51 333 l 0 0 333 l 0
0 256 m 0 0 307 l 0 51 307 l 0 51 256 l 0 0 256 l 0
0 179 m 0 0 230 l 0 51 230 l 0 51 179 l 0 0 179 l 0
0 102 m 0 0 153 l 0 51 153 l 0 51 102 l 0 0 102 l 0
76 25 m 0 76 76 l 0 128 76 l 0 128 25 l 0 76 25 l 0
153 564 m 0 153 615 l 0 205 615 l 0 205 564 l 0 153 564 l 0
153 25 m 0 153 76 l 0 205 76 l 0 205 25 l 0 153 25 l 0
230 641 m 0 230 692 l 0 282 692 l 0 282 641 l 0 230 641 l 0
230 102 m 0 230 153 l 0 282 153 l 0 282 102 l 0 230 102 l 0
307 410 m 0 307 461 l 0 358 461 l 0 358 410 l 0 307 410 l 0
307 333 m 0 307 384 l 0 358 384 l 0 358 333 l 0 307 333 l 0
307 256 m 0 307 307 l 0 358 307 l 0 358 256 l 0 307 256 l 0
307 179 m 0 307 230 l 0 358 230 l 0 358 179 l 0 307 179 l 0
307 102 m 0 307 153 l 0 358 153 l 0 358 102 l 0 307 102 l 0
307 25 m 0 307 76 l 0 358 76 l 0 358 25 l 0 307 25 l 0
EndSplineSet
EndChar

StartChar: ucircumflex
Encoding: 251 251 187
Width: 460
VWidth: 0
Flags: W
LayerCount: 2
Fore
SplineSet
0 410 m 0 0 461 l 0 51 461 l 0 51 410 l 0 0 410 l 0
0 333 m 0 0 384 l 0 51 384 l 0 51 333 l 0 0 333 l 0
0 256 m 0 0 307 l 0 51 307 l 0 51 256 l 0 0 256 l 0
0 179 m 0 0 230 l 0 51 230 l 0 51 179 l 0 0 179 l 0
0 102 m 0 0 153 l 0 51 153 l 0 51 102 l 0 0 102 l 0
76 564 m 0 76 615 l 0 128 615 l 0 128 564 l 0 76 564 l 0
76 25 m 0 76 76 l 0 128 76 l 0 128 25 l 0 76 25 l 0
153 641 m 0 153 692 l 0 205 692 l 0 205 641 l 0 153 641 l 0
153 25 m 0 153 76 l 0 205 76 l 0 205 25 l 0 153 25 l 0
230 641 m 0 230 692 l 0 282 692 l 0 282 641 l 0 230 641 l 0
230 102 m 0 230 153 l 0 282 153 l 0 282 102 l 0 230 102 l 0
307 564 m 0 307 615 l 0 358 615 l 0 358 564 l 0 307 564 l 0
307 410 m 0 307 461 l 0 358 461 l 0 358 410 l 0 307 410 l 0
307 333 m 0 307 384 l 0 358 384 l 0 358 333 l 0 307 333 l 0
307 256 m 0 307 307 l 0 358 307 l 0 358 256 l 0 307 256 l 0
307 179 m 0 307 230 l 0 358 230 l 0 358 179 l 0 307 179 l 0
307 102 m 0 307 153 l 0 358 153 l 0 358 102 l 0 307 102 l 0
307 25 m 0 307 76 l 0 358 76 l 0 358 25 l 0 307 25 l 0
EndSplineSet
EndChar

StartChar: udiaeresis
Encoding: 252 252 188
Width: 460
VWidth: 0
Flags: W
LayerCount: 2
Fore
SplineSet
0 410 m 0 0 461 l 0 51 461 l 0 51 410 l 0 0 410 l 0
0 333 m 0 0 384 l 0 51 384 l 0 51 333 l 0 0 333 l 0
0 256 m 0 0 307 l 0 51 307 l 0 51 256 l 0 0 256 l 0
0 179 m 0 0 230 l 0 51 230 l 0 51 179 l 0 0 179 l 0
0 102 m 0 0 153 l 0 51 153 l 0 51 102 l 0 0 102 l 0
76 641 m 0 76 692 l 0 128 692 l 0 128 641 l 0 76 641 l 0
76 564 m 0 76 615 l 0 128 615 l 0 128 564 l 0 76 564 l 0
76 25 m 0 76 76 l 0 128 76 l 0 128 25 l 0 76 25 l 0
153 25 m 0 153 76 l 0 205 76 l 0 205 25 l 0 153 25 l 0
230 641 m 0 230 692 l 0 282 692 l 0 282 641 l 0 230 641 l 0
230 564 m 0 230 615 l 0 282 615 l 0 282 564 l 0 230 564 l 0
230 102 m 0 230 153 l 0 282 153 l 0 282 102 l 0 230 102 l 0
307 410 m 0 307 461 l 0 358 461 l 0 358 410 l 0 307 410 l 0
307 333 m 0 307 384 l 0 358 384 l 0 358 333 l 0 307 333 l 0
307 256 m 0 307 307 l 0 358 307 l 0 358 256 l 0 307 256 l 0
307 179 m 0 307 230 l 0 358 230 l 0 358 179 l 0 307 179 l 0
307 102 m 0 307 153 l 0 358 153 l 0 358 102 l 0 307 102 l 0
307 25 m 0 307 76 l 0 358 76 l 0 358 25 l 0 307 25 l 0
EndSplineSet
EndChar

StartChar: yacute
Encoding: 253 253 189
Width: 460
VWidth: 0
Flags: W
LayerCount: 2
Fore
SplineSet
0 410 m 0 0 461 l 0 51 461 l 0 51 410 l 0 0 410 l 0
0 333 m 0 0 384 l 0 51 384 l 0 51 333 l 0 0 333 l 0
0 256 m 0 0 307 l 0 51 307 l 0 51 256 l 0 0 256 l 0
0 179 m 0 0 230 l 0 51 230 l 0 51 179 l 0 0 179 l 0
0 -51 m 0 0 0 l 0 51 0 l 0 51 -51 l 0 0 -51 l 0
76 102 m 0 76 153 l 0 128 153 l 0 128 102 l 0 76 102 l 0
76 -128 m 0 76 -76 l 0 128 -76 l 0 128 -128 l 0 76 -128 l 0
153 564 m 0 153 615 l 0 205 615 l 0 205 564 l 0 153 564 l 0
153 102 m 0 153 153 l 0 205 153 l 0 205 102 l 0 153 102 l 0
153 -128 m 0 153 -76 l 0 205 -76 l 0 205 -128 l 0 153 -128 l 0
230 641 m 0 230 692 l 0 282 692 l 0 282 641 l 0 230 641 l 0
230 179 m 0 230 230 l 0 282 230 l 0 282 179 l 0 230 179 l 0
230 -128 m 0 230 -76 l 0 282 -76 l 0 282 -128 l 0 230 -128 l 0
307 410 m 0 307 461 l 0 358 461 l 0 358 410 l 0 307 410 l 0
307 333 m 0 307 384 l 0 358 384 l 0 358 333 l 0 307 333 l 0
307 256 m 0 307 307 l 0 358 307 l 0 358 256 l 0 307 256 l 0
307 179 m 0 307 230 l 0 358 230 l 0 358 179 l 0 307 179 l 0
307 102 m 0 307 153 l 0 358 153 l 0 358 102 l 0 307 102 l 0
307 25 m 0 307 76 l 0 358 76 l 0 358 25 l 0 307 25 l 0
307 -51 m 0 307 0 l 0 358 0 l 0 358 -51 l 0 307 -51 l 0
EndSplineSet
EndChar

StartChar: thorn
Encoding: 254 254 190
Width: 460
VWidth: 0
Flags: W
LayerCount: 2
Fore
SplineSet
0 564 m 0 0 615 l 0 51 615 l 0 51 564 l 0 0 564 l 0
0 487 m 0 0 538 l 0 51 538 l 0 51 487 l 0 0 487 l 0
0 410 m 0 0 461 l 0 51 461 l 0 51 410 l 0 0 410 l 0
0 333 m 0 0 384 l 0 51 384 l 0 51 333 l 0 0 333 l 0
0 256 m 0 0 307 l 0 51 307 l 0 51 256 l 0 0 256 l 0
0 179 m 0 0 230 l 0 51 230 l 0 51 179 l 0 0 179 l 0
0 102 m 0 0 153 l 0 51 153 l 0 51 102 l 0 0 102 l 0
0 25 m 0 0 76 l 0 51 76 l 0 51 25 l 0 0 25 l 0
0 -51 m 0 0 0 l 0 51 0 l 0 51 -51 l 0 0 -51 l 0
0 -128 m 0 0 -76 l 0 51 -76 l 0 51 -128 l 0 0 -128 l 0
76 333 m 0 76 384 l 0 128 384 l 0 128 333 l 0 76 333 l 0
76 102 m 0 76 153 l 0 128 153 l 0 128 102 l 0 76 102 l 0
153 410 m 0 153 461 l 0 205 461 l 0 205 410 l 0 153 410 l 0
153 25 m 0 153 76 l 0 205 76 l 0 205 25 l 0 153 25 l 0
230 410 m 0 230 461 l 0 282 461 l 0 282 410 l 0 230 410 l 0
230 25 m 0 230 76 l 0 282 76 l 0 282 25 l 0 230 25 l 0
307 333 m 0 307 384 l 0 358 384 l 0 358 333 l 0 307 333 l 0
307 256 m 0 307 307 l 0 358 307 l 0 358 256 l 0 307 256 l 0
307 179 m 0 307 230 l 0 358 230 l 0 358 179 l 0 307 179 l 0
307 102 m 0 307 153 l 0 358 153 l 0 358 102 l 0 307 102 l 0
EndSplineSet
EndChar

StartChar: ydiaeresis
Encoding: 255 255 191
Width: 460
VWidth: 0
Flags: W
LayerCount: 2
Fore
SplineSet
0 410 m 0 0 461 l 0 51 461 l 0 51 410 l 0 0 410 l 0
0 333 m 0 0 384 l 0 51 384 l 0 51 333 l 0 0 333 l 0
0 256 m 0 0 307 l 0 51 307 l 0 51 256 l 0 0 256 l 0
0 179 m 0 0 230 l 0 51 230 l 0 51 179 l 0 0 179 l 0
0 -51 m 0 0 0 l 0 51 0 l 0 51 -51 l 0 0 -51 l 0
76 641 m 0 76 692 l 0 128 692 l 0 128 641 l 0 76 641 l 0
76 564 m 0 76 615 l 0 128 615 l 0 128 564 l 0 76 564 l 0
76 102 m 0 76 153 l 0 128 153 l 0 128 102 l 0 76 102 l 0
76 -128 m 0 76 -76 l 0 128 -76 l 0 128 -128 l 0 76 -128 l 0
153 102 m 0 153 153 l 0 205 153 l 0 205 102 l 0 153 102 l 0
153 -128 m 0 153 -76 l 0 205 -76 l 0 205 -128 l 0 153 -128 l 0
230 641 m 0 230 692 l 0 282 692 l 0 282 641 l 0 230 641 l 0
230 564 m 0 230 615 l 0 282 615 l 0 282 564 l 0 230 564 l 0
230 179 m 0 230 230 l 0 282 230 l 0 282 179 l 0 230 179 l 0
230 -128 m 0 230 -76 l 0 282 -76 l 0 282 -128 l 0 230 -128 l 0
307 410 m 0 307 461 l 0 358 461 l 0 358 410 l 0 307 410 l 0
307 333 m 0 307 384 l 0 358 384 l 0 358 333 l 0 307 333 l 0
307 256 m 0 307 307 l 0 358 307 l 0 358 256 l 0 307 256 l 0
307 179 m 0 307 230 l 0 358 230 l 0 358 179 l 0 307 179 l 0
307 102 m 0 307 153 l 0 358 153 l 0 358 102 l 0 307 102 l 0
307 25 m 0 307 76 l 0 358 76 l 0 358 25 l 0 307 25 l 0
307 -51 m 0 307 0 l 0 358 0 l 0 358 -51 l 0 307 -51 l 0
EndSplineSet
EndChar

StartChar: C400
Encoding: 256 256 192
Width: 460
VWidth: 0
Flags: W
LayerCount: 2
Fore
SplineSet
0 717 m 0 0 769 l 0 51 769 l 0 51 717 l 0 0 717 l 0
0 410 m 0 0 461 l 0 51 461 l 0 51 410 l 0 0 410 l 0
0 333 m 0 0 384 l 0 51 384 l 0 51 333 l 0 0 333 l 0
0 256 m 0 0 307 l 0 51 307 l 0 51 256 l 0 0 256 l 0
0 179 m 0 0 230 l 0 51 230 l 0 51 179 l 0 0 179 l 0
0 102 m 0 0 153 l 0 51 153 l 0 51 102 l 0 0 102 l 0
0 25 m 0 0 76 l 0 51 76 l 0 51 25 l 0 0 25 l 0
76 717 m 0 76 769 l 0 128 769 l 0 128 717 l 0 76 717 l 0
76 487 m 0 76 538 l 0 128 538 l 0 128 487 l 0 76 487 l 0
76 256 m 0 76 307 l 0 128 307 l 0 128 256 l 0 76 256 l 0
153 717 m 0 153 769 l 0 205 769 l 0 205 717 l 0 153 717 l 0
153 564 m 0 153 615 l 0 205 615 l 0 205 564 l 0 153 564 l 0
153 256 m 0 153 307 l 0 205 307 l 0 205 256 l 0 153 256 l 0
230 717 m 0 230 769 l 0 282 769 l 0 282 717 l 0 230 717 l 0
230 487 m 0 230 538 l 0 282 538 l 0 282 487 l 0 230 487 l 0
230 256 m 0 230 307 l 0 282 307 l 0 282 256 l 0 230 256 l 0
307 717 m 0 307 769 l 0 358 769 l 0 358 717 l 0 307 717 l 0
307 410 m 0 307 461 l 0 358 461 l 0 358 410 l 0 307 410 l 0
307 333 m 0 307 384 l 0 358 384 l 0 358 333 l 0 307 333 l 0
307 256 m 0 307 307 l 0 358 307 l 0 358 256 l 0 307 256 l 0
307 179 m 0 307 230 l 0 358 230 l 0 358 179 l 0 307 179 l 0
307 102 m 0 307 153 l 0 358 153 l 0 358 102 l 0 307 102 l 0
307 25 m 0 307 76 l 0 358 76 l 0 358 25 l 0 307 25 l 0
EndSplineSet
EndChar

StartChar: C401
Encoding: 257 257 193
Width: 460
VWidth: 0
Flags: W
LayerCount: 2
Fore
SplineSet
0 564 m 0 0 615 l 0 51 615 l 0 51 564 l 0 0 564 l 0
0 179 m 0 0 230 l 0 51 230 l 0 51 179 l 0 0 179 l 0
0 102 m 0 0 153 l 0 51 153 l 0 51 102 l 0 0 102 l 0
76 564 m 0 76 615 l 0 128 615 l 0 128 564 l 0 76 564 l 0
76 410 m 0 76 461 l 0 128 461 l 0 128 410 l 0 76 410 l 0
76 256 m 0 76 307 l 0 128 307 l 0 128 256 l 0 76 256 l 0
76 25 m 0 76 76 l 0 128 76 l 0 128 25 l 0 76 25 l 0
153 564 m 0 153 615 l 0 205 615 l 0 205 564 l 0 153 564 l 0
153 410 m 0 153 461 l 0 205 461 l 0 205 410 l 0 153 410 l 0
153 256 m 0 153 307 l 0 205 307 l 0 205 256 l 0 153 256 l 0
153 25 m 0 153 76 l 0 205 76 l 0 205 25 l 0 153 25 l 0
230 564 m 0 230 615 l 0 282 615 l 0 282 564 l 0 230 564 l 0
230 410 m 0 230 461 l 0 282 461 l 0 282 410 l 0 230 410 l 0
230 256 m 0 230 307 l 0 282 307 l 0 282 256 l 0 230 256 l 0
230 102 m 0 230 153 l 0 282 153 l 0 282 102 l 0 230 102 l 0
307 564 m 0 307 615 l 0 358 615 l 0 358 564 l 0 307 564 l 0
307 333 m 0 307 384 l 0 358 384 l 0 358 333 l 0 307 333 l 0
307 256 m 0 307 307 l 0 358 307 l 0 358 256 l 0 307 256 l 0
307 179 m 0 307 230 l 0 358 230 l 0 358 179 l 0 307 179 l 0
307 102 m 0 307 153 l 0 358 153 l 0 358 102 l 0 307 102 l 0
307 25 m 0 307 76 l 0 358 76 l 0 358 25 l 0 307 25 l 0
EndSplineSet
EndChar

StartChar: C402
Encoding: 258 258 194
Width: 460
VWidth: 0
Flags: W
LayerCount: 2
Fore
SplineSet
0 717 m 0 0 769 l 0 51 769 l 0 51 717 l 0 0 717 l 0
0 333 m 0 0 384 l 0 51 384 l 0 51 333 l 0 0 333 l 0
0 256 m 0 0 307 l 0 51 307 l 0 51 256 l 0 0 256 l 0
0 179 m 0 0 230 l 0 51 230 l 0 51 179 l 0 0 179 l 0
0 102 m 0 0 153 l 0 51 153 l 0 51 102 l 0 0 102 l 0
0 25 m 0 0 76 l 0 51 76 l 0 51 25 l 0 0 25 l 0
76 641 m 0 76 692 l 0 128 692 l 0 128 641 l 0 76 641 l 0
76 410 m 0 76 461 l 0 128 461 l 0 128 410 l 0 76 410 l 0
76 179 m 0 76 230 l 0 128 230 l 0 128 179 l 0 76 179 l 0
153 641 m 0 153 692 l 0 205 692 l 0 205 641 l 0 153 641 l 0
153 487 m 0 153 538 l 0 205 538 l 0 205 487 l 0 153 487 l 0
153 179 m 0 153 230 l 0 205 230 l 0 205 179 l 0 153 179 l 0
230 641 m 0 230 692 l 0 282 692 l 0 282 641 l 0 230 641 l 0
230 410 m 0 230 461 l 0 282 461 l 0 282 410 l 0 230 410 l 0
230 179 m 0 230 230 l 0 282 230 l 0 282 179 l 0 230 179 l 0
307 717 m 0 307 769 l 0 358 769 l 0 358 717 l 0 307 717 l 0
307 333 m 0 307 384 l 0 358 384 l 0 358 333 l 0 307 333 l 0
307 256 m 0 307 307 l 0 358 307 l 0 358 256 l 0 307 256 l 0
307 179 m 0 307 230 l 0 358 230 l 0 358 179 l 0 307 179 l 0
307 102 m 0 307 153 l 0 358 153 l 0 358 102 l 0 307 102 l 0
307 25 m 0 307 76 l 0 358 76 l 0 358 25 l 0 307 25 l 0
EndSplineSet
EndChar

StartChar: C403
Encoding: 259 259 195
Width: 460
VWidth: 0
Flags: W
LayerCount: 2
Fore
SplineSet
0 641 m 0 0 692 l 0 51 692 l 0 51 641 l 0 0 641 l 0
0 179 m 0 0 230 l 0 51 230 l 0 51 179 l 0 0 179 l 0
0 102 m 0 0 153 l 0 51 153 l 0 51 102 l 0 0 102 l 0
76 564 m 0 76 615 l 0 128 615 l 0 128 564 l 0 76 564 l 0
76 410 m 0 76 461 l 0 128 461 l 0 128 410 l 0 76 410 l 0
76 256 m 0 76 307 l 0 128 307 l 0 128 256 l 0 76 256 l 0
76 25 m 0 76 76 l 0 128 76 l 0 128 25 l 0 76 25 l 0
153 564 m 0 153 615 l 0 205 615 l 0 205 564 l 0 153 564 l 0
153 410 m 0 153 461 l 0 205 461 l 0 205 410 l 0 153 410 l 0
153 256 m 0 153 307 l 0 205 307 l 0 205 256 l 0 153 256 l 0
153 25 m 0 153 76 l 0 205 76 l 0 205 25 l 0 153 25 l 0
230 564 m 0 230 615 l 0 282 615 l 0 282 564 l 0 230 564 l 0
230 410 m 0 230 461 l 0 282 461 l 0 282 410 l 0 230 410 l 0
230 256 m 0 230 307 l 0 282 307 l 0 282 256 l 0 230 256 l 0
230 102 m 0 230 153 l 0 282 153 l 0 282 102 l 0 230 102 l 0
307 641 m 0 307 692 l 0 358 692 l 0 358 641 l 0 307 641 l 0
307 333 m 0 307 384 l 0 358 384 l 0 358 333 l 0 307 333 l 0
307 256 m 0 307 307 l 0 358 307 l 0 358 256 l 0 307 256 l 0
307 179 m 0 307 230 l 0 358 230 l 0 358 179 l 0 307 179 l 0
307 102 m 0 307 153 l 0 358 153 l 0 358 102 l 0 307 102 l 0
307 25 m 0 307 76 l 0 358 76 l 0 358 25 l 0 307 25 l 0
EndSplineSet
EndChar

StartChar: C404
Encoding: 260 260 196
Width: 460
VWidth: 0
Flags: W
LayerCount: 2
Fore
SplineSet
0 487 m 0 0 538 l 0 51 538 l 0 51 487 l 0 0 487 l 0
0 410 m 0 0 461 l 0 51 461 l 0 51 410 l 0 0 410 l 0
0 333 m 0 0 384 l 0 51 384 l 0 51 333 l 0 0 333 l 0
0 256 m 0 0 307 l 0 51 307 l 0 51 256 l 0 0 256 l 0
0 179 m 0 0 230 l 0 51 230 l 0 51 179 l 0 0 179 l 0
0 102 m 0 0 153 l 0 51 153 l 0 51 102 l 0 0 102 l 0
0 25 m 0 0 76 l 0 51 76 l 0 51 25 l 0 0 25 l 0
76 564 m 0 76 615 l 0 128 615 l 0 128 564 l 0 76 564 l 0
76 256 m 0 76 307 l 0 128 307 l 0 128 256 l 0 76 256 l 0
153 641 m 0 153 692 l 0 205 692 l 0 205 641 l 0 153 641 l 0
153 256 m 0 153 307 l 0 205 307 l 0 205 256 l 0 153 256 l 0
230 564 m 0 230 615 l 0 282 615 l 0 282 564 l 0 230 564 l 0
230 256 m 0 230 307 l 0 282 307 l 0 282 256 l 0 230 256 l 0
307 487 m 0 307 538 l 0 358 538 l 0 358 487 l 0 307 487 l 0
307 410 m 0 307 461 l 0 358 461 l 0 358 410 l 0 307 410 l 0
307 333 m 0 307 384 l 0 358 384 l 0 358 333 l 0 307 333 l 0
307 256 m 0 307 307 l 0 358 307 l 0 358 256 l 0 307 256 l 0
307 179 m 0 307 230 l 0 358 230 l 0 358 179 l 0 307 179 l 0
307 102 m 0 307 153 l 0 358 153 l 0 358 102 l 0 307 102 l 0
307 25 m 0 307 76 l 0 358 76 l 0 358 25 l 0 307 25 l 0
307 -51 m 0 307 0 l 0 358 0 l 0 358 -51 l 0 307 -51 l 0
384 -128 m 0 384 -76 l 0 435 -76 l 0 435 -128 l 0 384 -128 l 0
EndSplineSet
EndChar

StartChar: C405
Encoding: 261 261 197
Width: 460
VWidth: 0
Flags: W
LayerCount: 2
Fore
SplineSet
0 179 m 0 0 230 l 0 51 230 l 0 51 179 l 0 0 179 l 0
0 102 m 0 0 153 l 0 51 153 l 0 51 102 l 0 0 102 l 0
76 410 m 0 76 461 l 0 128 461 l 0 128 410 l 0 76 410 l 0
76 256 m 0 76 307 l 0 128 307 l 0 128 256 l 0 76 256 l 0
76 25 m 0 76 76 l 0 128 76 l 0 128 25 l 0 76 25 l 0
153 410 m 0 153 461 l 0 205 461 l 0 205 410 l 0 153 410 l 0
153 256 m 0 153 307 l 0 205 307 l 0 205 256 l 0 153 256 l 0
153 25 m 0 153 76 l 0 205 76 l 0 205 25 l 0 153 25 l 0
230 410 m 0 230 461 l 0 282 461 l 0 282 410 l 0 230 410 l 0
230 256 m 0 230 307 l 0 282 307 l 0 282 256 l 0 230 256 l 0
230 102 m 0 230 153 l 0 282 153 l 0 282 102 l 0 230 102 l 0
307 333 m 0 307 384 l 0 358 384 l 0 358 333 l 0 307 333 l 0
307 256 m 0 307 307 l 0 358 307 l 0 358 256 l 0 307 256 l 0
307 179 m 0 307 230 l 0 358 230 l 0 358 179 l 0 307 179 l 0
307 102 m 0 307 153 l 0 358 153 l 0 358 102 l 0 307 102 l 0
307 25 m 0 307 76 l 0 358 76 l 0 358 25 l 0 307 25 l 0
307 -51 m 0 307 0 l 0 358 0 l 0 358 -51 l 0 307 -51 l 0
384 -128 m 0 384 -76 l 0 435 -76 l 0 435 -128 l 0 384 -128 l 0
EndSplineSet
EndChar

StartChar: C406
Encoding: 262 262 198
Width: 460
VWidth: 0
Flags: W
LayerCount: 2
Fore
SplineSet
0 410 m 0 0 461 l 0 51 461 l 0 51 410 l 0 0 410 l 0
0 333 m 0 0 384 l 0 51 384 l 0 51 333 l 0 0 333 l 0
0 256 m 0 0 307 l 0 51 307 l 0 51 256 l 0 0 256 l 0
0 179 m 0 0 230 l 0 51 230 l 0 51 179 l 0 0 179 l 0
0 102 m 0 0 153 l 0 51 153 l 0 51 102 l 0 0 102 l 0
76 487 m 0 76 538 l 0 128 538 l 0 128 487 l 0 76 487 l 0
76 25 m 0 76 76 l 0 128 76 l 0 128 25 l 0 76 25 l 0
153 641 m 0 153 692 l 0 205 692 l 0 205 641 l 0 153 641 l 0
153 487 m 0 153 538 l 0 205 538 l 0 205 487 l 0 153 487 l 0
153 25 m 0 153 76 l 0 205 76 l 0 205 25 l 0 153 25 l 0
230 717 m 0 230 769 l 0 282 769 l 0 282 717 l 0 230 717 l 0
230 487 m 0 230 538 l 0 282 538 l 0 282 487 l 0 230 487 l 0
230 25 m 0 230 76 l 0 282 76 l 0 282 25 l 0 230 25 l 0
307 410 m 0 307 461 l 0 358 461 l 0 358 410 l 0 307 410 l 0
307 102 m 0 307 153 l 0 358 153 l 0 358 102 l 0 307 102 l 0
EndSplineSet
EndChar

